<?xml version="1.0" encoding="iso-8859-1"?>
<!-- Generator: Adobe Illustrator 19.0.0, SVG Export Plug-In . SVG Version: 6.00 Build 0)  -->
<svg version="1.1" id="Capa_1" xmlns="http://www.w3.org/2000/svg" xmlns:xlink="http://www.w3.org/1999/xlink" x="0px" y="0px"
	 viewBox="0 0 512 512" style="enable-background:new 0 0 512 512;" xml:space="preserve">
<g>
	<g>
		<path d="M493.488,404.11l-86.965-86.965c16.427-30.823,25.144-65.398,25.143-101.313c0-57.651-22.45-111.852-63.216-152.617
			C327.685,22.451,273.484,0,215.832,0c0,0-0.001,0-0.002,0C96.822,0,0.002,96.823,0,215.833
			c0,57.651,22.451,111.852,63.217,152.617c40.766,40.766,94.965,63.216,152.615,63.216c35.915,0,70.489-8.717,101.313-25.143
			l86.966,86.967C416.048,505.427,431.919,512,448.801,512c16.882,0,32.752-6.573,44.686-18.51
			C505.425,481.552,511.999,465.68,512,448.8C511.999,431.918,505.426,416.047,493.488,404.11z M215.832,335.266
			c-65.854,0-119.432-53.577-119.434-119.432c0.004-65.857,53.584-119.435,119.436-119.436
			c65.857,0.001,119.433,53.579,119.433,119.435S281.689,335.266,215.832,335.266z" fill="#ff465b"/>
	</g>
</g>
<g>
</g>
<g>
</g>
<g>
</g>
<g>
</g>
<g>
</g>
<g>
</g>
<g>
</g>
<g>
</g>
<g>
</g>
<g>
</g>
<g>
</g>
<g>
</g>
<g>
</g>
<g>
</g>
<g>
</g>
</svg>
