<?xml version="1.0" encoding="iso-8859-1"?>
<!-- Generator: Adobe Illustrator 19.0.0, SVG Export Plug-In . SVG Version: 6.00 Build 0)  -->
<svg version="1.1" id="Capa_1" xmlns="http://www.w3.org/2000/svg" xmlns:xlink="http://www.w3.org/1999/xlink" x="0px" y="0px"
	 viewBox="0 0 451.584 451.584" style="enable-background:new 0 0 451.584 451.584;" xml:space="preserve">
<g>
	<g>
		<path d="M345.088,0H106.496c-36.864,0-66.56,29.696-66.56,66.56v317.952c0,36.864,29.696,67.072,66.56,67.072h238.592
			c36.864,0,66.56-29.696,66.56-66.56V66.56C411.648,29.696,381.952,0,345.088,0z M171.008,125.952h110.08
			c8.704,0,15.36,6.656,15.36,15.36c0,8.704-6.656,15.36-15.36,15.36h-110.08c-8.704,0-15.36-6.656-15.36-15.36
			C155.648,132.608,162.304,125.952,171.008,125.952z M320,325.632H131.072c-8.704,0-15.36-6.656-15.36-15.36
			s7.168-15.36,15.36-15.36H320c8.704,0,15.36,6.656,15.36,15.36S328.704,325.632,320,325.632z M320,241.152H131.072
			c-8.704,0-15.36-6.656-15.36-15.36s7.168-15.36,15.36-15.36H320c8.704,0,15.36,6.656,15.36,15.36S328.704,241.152,320,241.152z" fill="#ff465b"/>
	</g>
</g>
<g>
</g>
<g>
</g>
<g>
</g>
<g>
</g>
<g>
</g>
<g>
</g>
<g>
</g>
<g>
</g>
<g>
</g>
<g>
</g>
<g>
</g>
<g>
</g>
<g>
</g>
<g>
</g>
<g>
</g>
</svg>
