<svg id="Capa_1" enable-background="new 0 0 512 512" height="512" viewBox="0 0 512 512" width="512" xmlns="http://www.w3.org/2000/svg"><g><path d="m426.606 95.394c-35.058-35.06-54.918-55.92-90-91-2.812-2.814-6.627-4.394-10.606-4.394-32.282 0-208.908 0-230 0-8.284 0-15 6.716-15 15v161c0 8.284 6.716 15 15 15h17v98h-17c-8.284 0-15 6.716-15 15v178c0 16.542 13.458 30 30 30h290c16.542 0 30-13.458 30-30 0-14.625 0-362.519 0-376 0-3.979-1.58-7.794-4.394-10.606zm-187.606-65.394h34v67h-34zm-30 67h-34v-67h34zm-98-67h34v67h-34zm17 289c8.284 0 15-6.716 15-15v-128c0-8.284-6.716-15-15-15h-17v-34h177c8.284 0 15-6.716 15-15v-82h16.781c30.883 30.959 50.186 51.1 81.219 82.208v304.792h-290v-98zm273 163h-290v-35h290z" fill="green"/></g></svg>