<?xml version="1.0" ?><!-- Uploaded to: SVG Repo, www.svgrepo.com, Generator: SVG Repo Mixer Tools -->
<svg width="800px" height="800px" viewBox="0 0 1000 1000" data-name="Layer 2" id="Layer_2" xmlns="http://www.w3.org/2000/svg"><defs><style>.cls-1{fill:none;stroke:#020202;stroke-linecap:round;stroke-miterlimit:10;stroke-width:22px;}.cls-2{fill:#020202;}</style></defs><path class="cls-1" d="M423,277.22a250,250,0,0,1,148.74-1.38"/><path class="cls-1" d="M622.09,297.46A248.53,248.53,0,0,1,748.16,513.82c0,137.31-111.31,248.62-248.62,248.62S250.92,651.13,250.92,513.82A248.49,248.49,0,0,1,372.54,300"/><rect class="cls-2" height="41.49" rx="20.74" transform="translate(-132.83 315.49) rotate(-48.62)" width="165.45" x="200.1" y="284.04"/><rect class="cls-2" height="41.49" rx="20.74" transform="translate(962.63 1044.36) rotate(-131.38)" width="165.45" x="634.45" y="284.04"/><path d="M439.4,411H570.08L469.33,568.69h97.48V589H429.92L530.57,431.14H439.4Z"/></svg>