<?xml version="1.0" standalone="no"?>
<!DOCTYPE svg PUBLIC "-//W3C//DTD SVG 1.1//EN" "http://www.w3.org/Graphics/SVG/1.1/DTD/svg11.dtd" >
<svg xmlns="http://www.w3.org/2000/svg" xmlns:xlink="http://www.w3.org/1999/xlink" version="1.1">
<metadata>
Created by FontForge 20170731 at Fri Jan  6 15:22:19 2012
 By Aleksey,,,
Copyright (c) 2011 by vernon adams (vern@newtypography.co.uk), with Reserved Font Name Niconne.
</metadata>
<defs>
<font id="Niconne-Regular" horiz-adv-x="1442" >
  <font-face 
    font-family="Niconne"
    font-weight="400"
    font-stretch="normal"
    units-per-em="2048"
    panose-1="2 0 5 5 5 0 0 2 0 2"
    ascent="1638"
    descent="-410"
    x-height="604"
    cap-height="1442"
    bbox="-268 -585 3417 1898"
    underline-thickness="102"
    underline-position="-307"
    unicode-range="U+0001-FB06"
  />
<missing-glyph horiz-adv-x="457" 
 />
    <glyph glyph-name=".notdef" horiz-adv-x="457" 
 />
    <glyph glyph-name=".null" horiz-adv-x="0" 
 />
    <glyph glyph-name="nonmarkingreturn" horiz-adv-x="682" 
 />
    <glyph glyph-name="NULL" horiz-adv-x="348" 
 />
    <glyph glyph-name="NULL" horiz-adv-x="348" 
 />
    <glyph glyph-name="uni0001" horiz-adv-x="0" 
 />
    <glyph glyph-name="CR" unicode="&#xd;" horiz-adv-x="348" 
 />
    <glyph glyph-name="space" unicode=" " horiz-adv-x="350" 
 />
    <glyph glyph-name="exclam" unicode="!" horiz-adv-x="780" 
d="M471 1350h157q-215 -588 -332 -1003h-61q21 393 236 1003zM302 156.5q26 -23.5 26 -72t-32.5 -78t-73.5 -29.5t-68 25t-27 72t34 76.5t74.5 29.5t66.5 -23.5z" />
    <glyph glyph-name="quotedbl" unicode="&#x22;" horiz-adv-x="594" 
d="M403 1045h-32q0 91 -23 299l-8 73l170 1q-79 -310 -107 -373zM177 1045h-32q0 91 -23 299l-8 73l170 1q-79 -310 -107 -373z" />
    <glyph glyph-name="numbersign" unicode="#" horiz-adv-x="728" 
d="M277 -53l157 525h-134l-146 -490l-79 -35l157 525h-166l9 66h176l30 98h-176l7 66h188l155 516l77 32l-164 -548h134l155 516l77 32l-164 -548h173l-19 -66h-174l-29 -98h184l-19 -66h-184l-146 -490zM348 636l-29 -98h134l30 98h-135z" />
    <glyph glyph-name="dollar" unicode="$" horiz-adv-x="897" 
d="M154.5 277.5q28.5 -29.5 28.5 -77.5t-70 -77h-2q87 -58 240 -66l56 316q-130 47 -176 77q-86 58 -87 144q0 153 158 234q83 43 195 54l28 160l64 -16l-25 -141q92 -2 157 -28q121 -48 121 -140q0 -46 -26 -78.5t-65.5 -32.5t-65 25.5t-25.5 65.5t66 83h2q-61 43 -160 43
h-15l-47 -266q173 -65 230 -125q63 -66 63 -145.5t-36.5 -137.5t-96.5 -93q-119 -72 -262 -78l-47 -271l-65 12l45 259q-244 16 -314 134q-22 38 -22 82t21.5 78.5t62.5 34.5t69.5 -29.5zM609 205q0 49 -36.5 82t-103.5 61l-51 -290q109 7 160 64q31 34 31 83zM298 700
q0 -38 37 -64.5t109 -54.5l41 237q-187 -22 -187 -118z" />
    <glyph glyph-name="percent" unicode="%" horiz-adv-x="1610" 
d="M160 -283l1228 2055l46 -35l-1227 -2052zM138.5 736.5q-68.5 69.5 -68.5 172.5t50 185.5t126.5 128t156.5 45.5q119 0 184.5 -73.5t65.5 -179.5q0 -130 -85 -236q-41 -51 -109 -81.5t-160 -30.5t-160.5 69.5zM211 911q0 -76 28.5 -131t89 -55t104.5 45q85 85 85 240
q0 85 -31.5 142.5t-95.5 57.5t-122 -83t-58 -216zM887.5 57.5q-68.5 69.5 -68.5 172.5t50 185.5t126.5 128t156.5 45.5q119 0 184.5 -73.5t65.5 -179.5q0 -130 -85 -236q-41 -51 -109 -81.5t-160 -30.5t-160.5 69.5zM960 232q0 -76 28.5 -131t89 -55t104.5 44q85 86 85 241
q0 85 -31.5 142.5t-95.5 57.5t-122 -83t-58 -216z" />
    <glyph glyph-name="ampersand" unicode="&#x26;" horiz-adv-x="1661" 
d="M866 1245q62 0 86 -61q15 30 15 63.5t-19.5 59.5t-51.5 39q-59 26 -128 26q-157 0 -248.5 -92.5t-91.5 -230.5q0 -67 17 -121q82 20 159 20q197 0 197 -129q0 -56 -49 -91.5t-107 -35.5q-107 0 -245 92q-132 -148 -132 -321q0 -126 70 -232.5t186 -167.5t250 -61
q246 0 406 153q117 111 117 283q0 93 -72 162.5t-152 69.5t-132 -45.5t-52 -98.5t31 -88.5t78 -46.5q-23 31 -23 69t23 64.5t65 26.5t67 -27.5t25 -70.5t-37.5 -78t-109.5 -35t-131.5 58t-59.5 135t27 131t73 84.5t106 50.5t125.5 30t131.5 19t126 22t106 34q100 44 100 155
q0 83 -53.5 134.5t-123 51.5t-89.5 -51q104 -14 104 -84q0 -40 -30.5 -68t-73 -28t-73 37t-30.5 79q0 77 56 128t135 51q120 0 186 -83.5t66 -203.5q0 -195 -172 -284q-96 -49 -246 -79q47 -59 71.5 -111t24.5 -134.5t-37 -168.5t-98 -142.5t-141 -95.5q-150 -73 -332 -73
q-159 0 -278.5 33.5t-189 74.5t-124.5 96q-119 117 -119 313q0 207 177 363q42 37 87 63q-20 29 -37.5 80.5t-17.5 97.5q0 115 70.5 205t177.5 136t227 46q109 0 184 -34q142 -62 142 -183q0 -71 -41 -123.5t-101.5 -52.5t-94 27t-33.5 77q0 92 81 92zM467 848
q102 -74 179 -74t77 43q0 55 -91 55q-45 0 -125 -16z" />
    <glyph glyph-name="quotesingle" unicode="'" horiz-adv-x="403" 
d="M177 1045h-32q0 91 -23 299l-8 73l170 1q-79 -310 -107 -373z" />
    <glyph glyph-name="parenleft" unicode="(" horiz-adv-x="571" 
d="M343 -220l-30 -28q-187 172 -187 484q0 182 64.5 385.5t164.5 370t227.5 288.5t246.5 154l26 -54q-131 -44 -245.5 -175.5t-189.5 -304.5q-159 -370 -159 -736q0 -235 82 -384z" />
    <glyph glyph-name="parenright" unicode=")" horiz-adv-x="660" 
d="M-11 -270l-31 51q103 70 196 225t153 330q131 384 131 649.5t-66 394.5l53 30q58 -65 92.5 -187t34.5 -302.5t-48 -379t-127.5 -355t-180 -275.5t-207.5 -181z" />
    <glyph glyph-name="asterisk" unicode="*" horiz-adv-x="1036" 
d="M165 770.5q-24 25.5 -24 65t68.5 75t140 52t105.5 16.5h7l13 -13q-4 -27 -109.5 -124t-141 -97t-59.5 25.5zM179 1098q-38 28 -38 65.5t21.5 63.5t52.5 26t93.5 -50t111.5 -103t52 -66l-17 -19q-24 10 -84.5 22t-107 22.5t-84.5 38.5zM561 1031q13 12 69 75
q122 139 182 139h27q23 -9 39.5 -29.5t16.5 -33.5t-8 -33l3 -8q0 -34 -42.5 -57.5t-94.5 -33.5q-161 -31 -175 -40zM865.5 768.5q-24.5 -26.5 -54 -26.5t-56 15t-56 43.5t-51 52.5t-51 59.5t-39.5 46.5l18 20h2q11 -3 70 -17q157 -35 178 -51q26 0 45 -25.5t19 -58
t-24.5 -59zM503 1058q-5 24 -36.5 123.5t-31.5 140t22 69.5t60 29t61.5 -25t23.5 -73t-33 -139.5t-39 -124.5l-16 -7zM513 578q-79 0 -79 101q0 47 33.5 134t39.5 122l10 9q12 -4 47 -123.5t35 -146.5q0 -96 -86 -96z" />
    <glyph glyph-name="plus" unicode="+" horiz-adv-x="713" 
d="M93 366l21 81h189l50 206h117l-52 -206h191l-21 -81h-193l-53 -210h-111l49 210h-187z" />
    <glyph glyph-name="comma" unicode="," horiz-adv-x="403" 
d="M77 -229h-32q55 229 69 321l170 55q0 -47 -79 -185t-128 -191z" />
    <glyph glyph-name="hyphen" unicode="-" horiz-adv-x="639" 
d="M645 445l-11 -41q-30 -3 -95 -12q-133 -20 -193.5 -20t-106 5t-101.5 14.5t-83 12.5q0 13 12 41q32 4 93 13q141 21 194 21t101 -6t103.5 -15t86.5 -13z" />
    <glyph glyph-name="period" unicode="." horiz-adv-x="337" 
d="M254 156.5q26 -23.5 26 -72t-32.5 -78t-73.5 -29.5t-68 25t-27 72t34 76.5t74.5 29.5t66.5 -23.5z" />
    <glyph glyph-name="slash" unicode="/" horiz-adv-x="1096" 
d="M-82 -283l1228 2055l46 -35l-1227 -2052z" />
    <glyph glyph-name="zero" unicode="0" horiz-adv-x="946" 
d="M162 80.5q-90 103.5 -82.5 256t85 274t189 188.5t225 67t194.5 -54q156 -102 145 -321q-8 -156 -94 -285q-151 -229 -433 -229q-139 0 -229 103.5zM357 80q30 -25 72 -25q80 0 144 67q125 131 136 365q6 128 -31 214.5t-122.5 86.5t-170.5 -124.5t-94 -322.5t66 -261z
" />
    <glyph glyph-name="one" unicode="1" horiz-adv-x="533" 
d="M266 0h-172l17 66q148 604 158 639q-20 -13 -150 -72l-35 49q121 56 192 101.5t100 62.5h83zM291 100l-1 -5q0 -22 33 -39t66 -19l-4 -37h-387l4 37q36 0 66 16q43 24 51 47h172z" />
    <glyph glyph-name="two" unicode="2" horiz-adv-x="793" 
d="M122 601l-61 30q43 103 131 168.5t195 65.5q129 0 215 -76q65 -57 65 -149q0 -74 -22.5 -116t-38 -67.5t-43.5 -54t-47.5 -48t-56 -48t-55.5 -43.5q-49 -37 -118 -86q43 1 111.5 1t172.5 -11q30 17 50.5 58t31.5 67l12 26l40 -6l-105 -313q-25 3 -95 13q-156 22 -257 22
t-193 -25l-27 49l39 24q131 81 223 173q171 171 171 308q0 85 -38 135t-100.5 50t-116.5 -39.5t-83 -107.5z" />
    <glyph glyph-name="three" unicode="3" horiz-adv-x="781" 
d="M538 676q0 72 -106 72q-63 0 -121 -43.5t-87 -103.5l-59 30q57 106 148 170t189.5 64t161 -42.5t62.5 -123t-55 -140t-137 -80.5q69 -12 109 -59.5t40 -119t-36.5 -133t-94.5 -99.5q-121 -79 -266 -79q-87 0 -145 31q-106 55 -106 152q0 49 32.5 80t70.5 31t57 -20
t19 -48q0 -71 -92 -71q35 -83 142 -83q79 0 144 56t65 131t-48 113t-120 38l-58 -3l35 94q127 0 212 86q44 44 44 100z" />
    <glyph glyph-name="four" unicode="4" horiz-adv-x="810" 
d="M611 281h-82l-43 -183q5 -24 45 -39.5t82 -17.5l-4 -41h-438l4 41q59 0 117 33q13 8 20 17l45 190h-327l-15 53l590 532h57l-118 -524h81q26 3 56.5 47t42.5 86h33l-68 -338h-33q0 63 -13.5 103.5t-31.5 40.5zM447 649l-323 -307h248z" />
    <glyph glyph-name="five" unicode="5" horiz-adv-x="831" 
d="M812 885l-100 -299h-43q6 21 6 51t-21 30h-337l-61 -161q75 39 187.5 39t184 -69t71.5 -168q0 -121 -101 -216q-111 -104 -309 -104q-86 0 -153 30q-125 57 -125 167q0 50 31.5 78t66.5 28q80 0 80 -67q0 -33 -28 -50.5t-63 -17.5q41 -95 174 -95q104 0 161 50t57 120
t-54 122.5t-133.5 52.5t-149.5 -10l169 439h396q15 0 23.5 10.5t12.5 14.5q15 18 15 25h43z" />
    <glyph glyph-name="six" unicode="6" horiz-adv-x="886" 
d="M375 -24q-154 0 -240 79.5t-86 212.5t60 249t159 203q204 180 470 244l27 -66q-137 -27 -265 -128t-202 -260q120 121 269 121q108 0 183 -66.5t75 -173.5q0 -148 -121 -276q-56 -60 -142.5 -98.5t-186.5 -40.5zM272.5 108q39.5 -55 115.5 -55t136 54t91.5 130
t31.5 150.5t-34.5 121t-102.5 46.5q-95 0 -186 -92.5t-91 -212.5q0 -87 39.5 -142z" />
    <glyph glyph-name="seven" unicode="7" horiz-adv-x="663" 
d="M186 657q-31 -16 -74 -101l-40 6l85 263q28 -3 91 -13q143 -24 244 -24t170 32l27 -49l-29 -29q-233 -254 -326 -581q-21 -74 -38 -161h-147q49 194 137 371t204 283q-43 -11 -106.5 -11t-197.5 14z" />
    <glyph glyph-name="eight" unicode="8" horiz-adv-x="826" 
d="M729 695q0 -102 -191 -199q212 -134 212 -287q0 -58 -36 -105t-92 -74q-113 -56 -232 -56q-120 0 -201.5 32t-116 74t-34.5 107q0 121 223 233q-141 99 -141 221q0 56 36.5 101.5t91.5 71.5q113 55 223 55q134 0 213 -75q45 -41 45 -99zM581 176q0 90 -231 197
q-189 -83 -189 -175q0 -105 149 -133q36 -7 90.5 -7t117.5 32.5t63 85.5zM404 572q17 -10 45 -25q161 74 161 137q0 53 -46 82t-105 29t-107.5 -27t-48.5 -82t101 -114z" />
    <glyph glyph-name="nine" unicode="9" horiz-adv-x="884" 
d="M512 866q163 0 244 -82t81 -208t-57 -243.5t-152 -206.5q-195 -184 -459 -248l-27 66q242 100 358 244q53 65 89 144q-103 -120 -248 -120q-109 0 -185 69.5t-76 190.5q0 141 116 264q55 57 138 93.5t178 36.5zM609.5 728q-34.5 61 -104 61t-127.5 -53t-88.5 -129.5
t-30.5 -148.5t34 -116.5t111 -44.5t158.5 83.5t81.5 185t-34.5 162.5z" />
    <glyph glyph-name="colon" unicode=":" horiz-adv-x="463" 
d="M251 156.5q26 -23.5 26 -72t-32.5 -78t-73.5 -29.5t-68 25t-27 72t34 76.5t74.5 29.5t66.5 -23.5zM347 558q26 -24 26 -72t-32.5 -77.5t-73 -29.5t-67.5 24.5t-27 72t33.5 77t74 29.5t66.5 -24z" />
    <glyph glyph-name="semicolon" unicode=";" horiz-adv-x="446" 
d="M91 -229h-32q55 229 69 321l170 55q0 -47 -79 -185t-128 -191zM313 558q26 -24 26 -72t-32.5 -77.5t-73 -29.5t-67.5 24.5t-27 72t33.5 77t74 29.5t66.5 -24z" />
    <glyph glyph-name="less" unicode="&#x3c;" horiz-adv-x="667" 
d="M412 68l-89 -70q-268 330 -268 344q99 95 208 185.5t174 130.5l63 -84q-196 -135 -313 -236q30 -22 225 -270z" />
    <glyph glyph-name="equal" unicode="=" horiz-adv-x="934" 
d="M104 417l5 66h670l-15 -66h-660zM114 552l4 66h691l-16 -66h-679z" />
    <glyph glyph-name="greater" unicode="&#x3e;" horiz-adv-x="599" 
d="M98 -7l-77 75q257 250 294 268h-2q-104 112 -256 238l67 79q60 -43 144 -125t138 -142l53 -61q0 -2 -25 -24q-108 -93 -336 -308z" />
    <glyph glyph-name="question" unicode="?" horiz-adv-x="750" 
d="M273 347l-59 8q33 138 122 239q39 45 82 87.5t82.5 83t71.5 84.5q71 95 71 215t-58.5 177t-133.5 57t-134.5 -32.5t-100 -102t-40.5 -153t29 -164.5l-54 -18q-56 108 -56 218q0 159 113 265.5t293 106.5q112 0 215 -78q50 -38 82 -103t32 -142t-20 -139t-56 -109
t-80.5 -88t-98 -84.5t-104.5 -87.5q-120 -104 -198 -240zM279 156.5q26 -23.5 26 -72t-32.5 -78t-73.5 -29.5t-68 25t-27 72t34 76.5t74.5 29.5t66.5 -23.5z" />
    <glyph glyph-name="at" unicode="@" horiz-adv-x="1509" 
d="M1023.5 986.5q-83.5 29.5 -195 29.5t-221.5 -37t-186.5 -99.5t-130.5 -145.5q-106 -161 -106 -361q0 -129 43 -235t118 -176q156 -144 381 -144t439 124l68 -61q-235 -172 -502 -172q-271 0 -461 173q-90 82 -143 205t-53 250.5t29.5 231.5t92 197.5t151 164t216 112
t258.5 41.5t232 -33t181.5 -96t127.5 -164.5t47 -228.5t-43 -242.5t-123.5 -190.5t-179.5 -75q-152 0 -152 183q0 15 1 24q-17 -60 -65 -109q-89 -94 -199.5 -94t-176 75.5t-65.5 187.5q0 154 107.5 259t247.5 105q77 0 128.5 -38.5t67.5 -100.5l33 127h156l-82 -309
q-21 -76 -21 -126q0 -93 62 -93q68 0 137 101q76 112 76 305q0 113 -39 203.5t-105.5 146.5t-150 85.5zM648 516.5q-61 -82.5 -61 -176.5q0 -185 124 -185q49 0 91.5 32t67.5 79q52 101 52 184q0 149 -122 149q-91 0 -152 -82.5z" />
    <glyph glyph-name="A" unicode="A" horiz-adv-x="1786" 
d="M1110 20l29 50q40 -23 81 -23q79 0 144 85t109 226h-656l-82 -122q-91 -135 -208 -197t-261 -62t-210.5 55t-66.5 116.5t36.5 99t91 37.5t80.5 -34.5t26 -92t-54 -86.5q3 -10 22.5 -19.5t54 -9.5t66.5 8.5t74 37.5t88 87q99 125 247 381.5t288.5 427t335.5 305.5
q-58 38 -142 61t-188.5 23t-218 -37.5t-192 -101.5t-132.5 -151q-105 -167 -105 -390q0 -153 52 -301l-65 -31q-112 181 -112 384q0 137 54 262t151.5 222t247.5 154.5t329 57.5q130 0 186 -18l72 -22q36 -11 85 -40.5t50 -30.5q96 45 165 58.5t160 13.5l25 -47
q-159 0 -287 -76q119 -104 177 -266t58 -355.5t-55 -368t-146.5 -276.5t-198.5 -102t-205 108zM1417 1234q-168 -125 -275 -291q-93 -143 -172.5 -299t-116.5 -222h638q47 188 47 374q0 308 -121 438z" />
    <glyph glyph-name="B" unicode="B" horiz-adv-x="1933" 
d="M543 316l-62 -18q-17 44 -33.5 118t-16.5 92q-75 0 -151.5 -22t-122 -47t-78 -71.5t-32.5 -108t31.5 -108.5t83.5 -71q100 -47 209.5 -47t188.5 23t133.5 61t99.5 96t73 118.5t55 138.5t45 146q49 181 98.5 303t146.5 240.5t220 194.5q-60 14 -153 14t-211.5 -40.5
t-220.5 -113t-182.5 -165.5t-126.5 -205.5t-46 -225.5q220 -45 318 -163l-42 -44q-103 67 -154 79t-61 14q-46 6 -63 6q12 -74 43 -164zM1831 1499l20 -47q-92 -17 -171 -50l-27 -11q72 -36 114.5 -98t42.5 -113.5t-9 -86.5t-22 -63t-34.5 -58.5t-39.5 -51t-44.5 -46
t-41.5 -38.5q-27 -22 -67 -54q143 -59 218 -139.5t75 -201t-72.5 -233.5t-192 -180t-253.5 -67q-148 0 -227 83q-43 45 -43 105t36.5 97t88.5 37t82 -26t30 -60.5t-12 -54t-28.5 -30.5t-34.5 -18q-31 -12 -42 -12q0 -44 109 -55q19 -2 35 -2q139 0 233 105t94 245
q0 70 -31 129.5t-76 95.5t-89.5 61.5t-75.5 39.5t-31 18.5t30 24.5t73.5 52.5t86.5 74.5t73 102.5t30 121.5t-34 130.5t-99 97.5q-188 -116 -271 -359q-36 -104 -54 -187q-44 -209 -64 -289.5t-79.5 -178.5t-147.5 -176t-214 -123t-274 -45q-203 0 -330 93q-100 74 -100 206
q0 89 43 160t112 112q140 84 305 84q0 162 76 314.5t201.5 263t294 177.5t346.5 67q62 0 201 -17q189 68 281 74z" />
    <glyph glyph-name="C" unicode="C" horiz-adv-x="1214" 
d="M1034 301l48 -45q-227 -295 -547 -295q-209 0 -353 135q-70 65 -110.5 166t-40.5 231t49 270.5t136 260.5t199 214.5t247 149t284 54.5t258 -95t109 -266q0 -101 -46.5 -212.5t-120 -202t-173.5 -149.5t-199 -59t-157 64t-58 149q0 146 121.5 282.5t312.5 201.5l23 -53
q-96 -32 -181 -107t-132.5 -160.5t-47.5 -148.5q0 -131 146 -131q102 0 204.5 90t164 211.5t61.5 234t-76 184t-202 71.5t-259 -76t-235.5 -195t-168 -273.5t-65.5 -303.5q0 -241 161 -354q94 -66 213.5 -66t235.5 58.5t199 164.5z" />
    <glyph glyph-name="D" unicode="D" horiz-adv-x="1618" 
d="M288 391l-69 -30q-109 211 -109 407q0 243 156 416q151 168 376 228q111 30 233 30t222 -25t186 -96q93 76 262 76l20 -62q-161 -32 -215 -74q105 -97 159 -253.5t54 -302t-17 -243.5t-55.5 -184.5t-96.5 -147.5q-123 -133 -318 -133t-420 97q-53 -40 -150.5 -72
t-182.5 -32q-171 0 -171 133q0 78 87 130.5t217.5 52.5t257.5 -62q112 145 176 403q26 102 58 207q74 243 269 416q-53 49 -139.5 75.5t-168.5 26.5q-191 0 -342.5 -74.5t-242.5 -224.5t-91 -353q0 -147 55 -329zM1401.5 982q-44.5 134 -114.5 206q-60 -92 -99 -277
q-67 -325 -225 -527q-74 -95 -175 -174q193 -100 329 -100q138 0 210 93q74 95 97 225q22 128 22 274t-44.5 280zM589 141q-137 57 -255.5 57t-118.5 -73q0 -62 110 -62q62 0 135.5 21.5t128.5 56.5z" />
    <glyph glyph-name="E" unicode="E" horiz-adv-x="1369" 
d="M1005 928q53 0 53 -36t-55 -36q-144 0 -271.5 -45t-211.5 -115t-132 -154t-48 -165q0 -130 109 -214.5t325 -84.5q247 0 370 118q64 62 64 160.5t-65 155.5t-166.5 57t-201 -40t-157.5 -107l-55 49q58 74 172 119t208 45t151.5 -17t104.5 -50q101 -72 107 -222
q-4 -90 -54 -162t-132 -117q-166 -92 -391 -92q-241 0 -425 112q-88 54 -141 140.5t-53 192.5q0 376 658 483q-111 38 -160 101t-49 131q0 122 134.5 214.5t338.5 92.5q187 0 312 -100q93 -74 97 -195q0 -56 -33 -84.5t-79 -28.5t-78.5 25.5t-32.5 59.5t12 53.5t26.5 29
t33.5 14.5q28 7 45 7q-32 66 -113.5 105.5t-189.5 39.5t-196.5 -61.5t-88.5 -167.5q0 -114 79 -179q43 -36 103 -36z" />
    <glyph glyph-name="F" unicode="F" horiz-adv-x="1420" 
d="M1695 1423l45 -41q-81 -151 -278 -151q-24 0 -70 4q-117 -135 -146 -407q-6 -57 -7 -109l260 10l-70 -86h-194q-29 -403 -381 -583q-202 -103 -461 -103q-159 0 -285 62q-64 31 -102.5 85t-38.5 129t31 134t78 91.5t118 51.5q112 31 285 31q-113 148 -113 307
q0 116 57 226t150.5 190.5t220 129t236 48.5t276 -43t244.5 -43t145 67zM108 337q-22 -47 -22 -105t32 -99.5t82 -64.5q99 -45 218 -45t226 33.5t192 105.5q176 148 220 483h-215l40 64l182 10q14 127 50 211t60.5 130t48.5 80q40 58 84 109q-153 64 -291.5 64t-234.5 -29
t-173 -84.5t-122 -146.5t-45 -207q0 -114 35 -178q14 -25 24 -43t33.5 -40.5t37 -35.5t44.5 -36q41 -29 74 -51t35 -23.5t4 -2.5l-29 -37q-163 80 -281 80q-241 0 -309 -142z" />
    <glyph glyph-name="G" unicode="G" horiz-adv-x="1272" 
d="M1253 1225q-134 131 -297 131q-312 0 -510 -300q-115 -174 -115 -370q0 -156 78 -256q84 -109 254 -109q134 0 260 84.5t185 223.5l145 2q-101 -461 -355.5 -719t-606.5 -258q-183 0 -282 75t-99 179.5t99 182t271 77.5q171 0 271 -78l-43 -88q-92 39 -217 39t-208 -41.5
t-83 -102.5t80.5 -104t226.5 -43q233 0 424.5 182.5t326.5 535.5q-83 -117 -202 -179t-229.5 -62t-195 28.5t-151 82t-106 140t-39.5 194.5t35.5 217.5t106.5 208.5t167.5 176t228.5 122.5t279 45.5q144 0 273 -68q64 -33 104.5 -92t40.5 -135t-45 -117.5t-101.5 -41.5
t-93.5 30t-37 82q0 125 160 125z" />
    <glyph glyph-name="H" unicode="H" horiz-adv-x="1703" 
d="M1208 98q-12 47 -12 116.5t22 181.5q29 147 105 380q-38 -6 -106.5 -18.5t-96.5 -16.5q-85 -392 -306 -608q-76 -75 -180.5 -121t-228.5 -46t-210 72t-86 193t98 248q-162 151 -162 357q0 123 45.5 225t121 171t175.5 117q190 91 422 91h543q18 0 26 -17q-1 -7 -6.5 -13
t-7.5 -11q-126 -151 -196 -427q-16 -61 -38 -161l220 37q162 347 354 458q63 37 120 37t95.5 -28.5t38.5 -91t-44.5 -132.5t-113.5 -123q-138 -105 -282 -153q-47 -108 -99.5 -322.5t-52.5 -306.5t39 -92q57 0 151 131l56 -53q-53 -79 -122.5 -138t-134 -59t-100 38
t-47.5 85zM162 791q0 -151 94 -265q125 115 308 180t372 80q94 430 219 580q-76 12 -181 12t-195 -13.5t-181 -41.5t-168.5 -76t-137.5 -111q-130 -133 -130 -345zM262 440q-74 -103 -74 -194.5t50.5 -152.5t134 -61t153.5 30.5t124 86t98 121t78 146.5q62 147 100 299
q-421 -35 -617 -228q84 -45 154.5 -45t95.5 2l23 -53q-52 -6 -107 -6q-117 0 -213 55zM1845 1280q-42 0 -90.5 -44t-90.5 -111q-71 -116 -116 -224q101 38 181 102q151 121 151 220q0 57 -35 57z" />
    <glyph glyph-name="I" unicode="I" horiz-adv-x="1323" 
d="M1518 1376q-291 -301 -297 -657h190v-76h-194q-29 -396 -366 -575q-195 -103 -427 -103t-345.5 83t-113.5 203.5t102 206t285 85.5q43 0 68 -2q-68 148 -68 308t88.5 298.5t245 216.5t350.5 78q82 0 241.5 -33t240.5 -33zM1045 719q30 280 243 530q-153 64 -323 64
q-246 0 -393.5 -132t-147.5 -343q0 -147 80 -306l237 -67l-20 -62q-105 35 -180 50q22 -43 86 -138l-68 -22l-104 172q-44 6 -82 6q-145 0 -220 -59.5t-75 -149.5t86 -159.5t223.5 -69.5t243 31.5t190.5 101.5q173 143 217 479h-215v74h222z" />
    <glyph glyph-name="J" unicode="J" horiz-adv-x="1329" 
d="M1520 1376q-291 -301 -297 -657h190v-76h-194q-10 -191 -63.5 -348t-135.5 -264t-190 -180q-209 -140 -474 -140q-308 0 -394 213q-25 60 -25 135t33.5 154.5t92 144.5t148 105.5t193.5 40.5q17 0 59 -4q-109 163 -109 336t88.5 311.5t245 216.5t350.5 78q82 0 241.5 -33
t240.5 -33zM1047 719q30 280 243 530q-153 64 -323 64q-246 0 -393.5 -132t-147.5 -343q0 -167 121 -346l237 -68l-20 -62q-97 33 -180 50q22 -43 86 -138l-68 -22l-104 172q-39 8 -103.5 8t-135.5 -33t-117 -87q-97 -114 -97 -243.5t81 -210.5t230 -81t259 47.5t199 149.5
q180 206 226 671h-215v74h222z" />
    <glyph glyph-name="K" unicode="K" horiz-adv-x="1793" 
d="M1684 213l49 -43q-35 -144 -158 -178q-29 -8 -57 -8q-77 0 -126.5 38.5t-71.5 101.5t-33.5 128.5t-25.5 135t-36 104.5q-46 -17 -83.5 -17t-78.5 23q-72 -139 -167 -243.5t-194 -162.5q-195 -115 -376 -115q-117 0 -195 42.5t-78 98t31.5 83.5t70.5 28t64 -21.5t25 -59.5
t-31 -68q61 -31 135 -31q120 0 240.5 92.5t207 230.5t141 300.5t54.5 272t-15.5 179t-47.5 126.5q-67 120 -209 120q-104 0 -204 -46.5t-175 -123t-120.5 -183t-45.5 -220.5q0 -103 33 -171.5t70 -105.5q86 -86 239 -86q16 0 58 4l20 -47q-27 -4 -102 -4t-154.5 30.5
t-129 78t-82.5 110.5q-60 113 -60 236t47 232.5t130.5 190.5t207 129t256.5 48t223.5 -38.5t143.5 -107.5q102 -133 102 -342q0 -147 -52 -309q53 0 81.5 -8t62.5 -33q77 58 127 230q21 71 44 151t54 152t75 131q95 129 279 129q48 0 92 -21t44 -62t-27 -74.5t-61 -33.5
q-33 21 -91.5 21t-97.5 -27t-59 -74t-33 -105.5t-30.5 -126t-43.5 -130.5t-80.5 -124t-132.5 -103q50 -50 102 -139t78.5 -186t71.5 -97q22 0 105 98zM1112 594l-18 -39q37 -20 58 -20t48 10q-24 49 -88 49z" />
    <glyph glyph-name="L" unicode="L" horiz-adv-x="1591" 
d="M1597 1153q0 215 -203 215q-88 0 -152 -54t-99 -139t-68.5 -205t-59.5 -238q-65 -291 -184 -485q36 -16 110 -51.5t119 -55.5q126 -57 221 -57q42 0 79 21t56.5 45.5t34 45.5t17.5 21l45 -26q-88 -166 -186 -206q-44 -18 -113 -18t-151.5 24.5t-185 70.5t-144.5 61
q-80 -69 -204.5 -112.5t-285.5 -43.5q-81 0 -147 30q-125 58 -125 147t55 150q105 116 291 116q133 0 281 -55q54 -21 141 -58q43 119 73 274t56 256.5t53.5 187t72 166.5t98.5 138q119 124 310 124q145 0 236.5 -84t91.5 -236q0 -113 -45.5 -219.5t-120.5 -187.5
t-173.5 -137t-203.5 -74l-14 55q122 30 220 122.5t151 217t53 254.5zM34 155q0 -79 98 -106q203 -56 404 35q75 35 115 87q-200 135 -363 135q-254 0 -254 -151z" />
    <glyph glyph-name="M" unicode="M" horiz-adv-x="2225" 
d="M2120 283l51 -43q-46 -115 -122 -189t-152 -74t-108.5 49t-32.5 124t46.5 241t101.5 319q149 408 149 524q0 67 -43 67q-171 0 -426 -551q-103 -222 -162 -373q-122 -316 -146 -377h-223l92 240q164 417 241 775q30 136 30 218q0 125 -66 125t-149 -100.5t-159 -251.5
t-152 -327t-132 -327q-129 -352 -133 -352h-196l112 313q150 387 183 609q16 103 16 210t-55 179.5t-151 72.5t-165.5 -40.5t-114.5 -102.5t-76 -139q-59 -143 -59 -279q0 -291 133 -512l-43 -32q-72 115 -109.5 258.5t-37.5 250.5t16 189.5t53 166.5t91.5 149.5t140 107
t179.5 41.5t158.5 -36t101.5 -97q73 -120 73 -291t-107 -498q37 98 54.5 137t42 96t38.5 89.5t43 95t50.5 103t55 99t61.5 96.5t64.5 80.5t70.5 67.5q77 58 149 58q170 0 170 -228q0 -144 -57 -357q-19 -71 -52.5 -183.5t-37.5 -128.5q44 81 115 253t125 271t108 169
t129.5 117t150 47t118 -48t43.5 -128t-28 -194.5t-69 -227.5t-82 -225q-101 -271 -108 -421q0 -64 33.5 -64t79.5 58t85 131z" />
    <glyph glyph-name="N" unicode="N" horiz-adv-x="1614" 
d="M1522 283l51 -43q-49 -122 -129 -192.5t-159 -70.5q-47 0 -81 43t-34 120t42 229.5t92 298.5q134 391 134 553q0 118 -60.5 118t-135.5 -74t-146.5 -192t-144.5 -261t-134.5 -285.5t-110 -260.5t-78 -192t-32.5 -74h-186l104 293q188 532 188.5 804.5t-206.5 272.5
q-77 0 -142.5 -43.5t-107.5 -110t-72 -148.5q-55 -154 -55 -298q0 -273 125 -479l-39 -33q-68 109 -103.5 243.5t-35.5 241t15 196t50 181t86 162t131 115.5t160.5 45t132.5 -22t86 -59.5t57 -88.5q42 -96 42 -210t-24 -263q-30 -181 -70 -332q32 89 55.5 137.5t55 116.5
t56.5 122.5t66 132.5t77 138t83.5 124.5t92.5 106.5q104 97 196 97t138 -60.5t46 -154.5t-27 -218.5t-66 -243.5t-78 -232q-93 -269 -93 -354t29 -85t85.5 74.5t73.5 114.5z" />
    <glyph glyph-name="O" unicode="O" 
d="M429.5 613.5q-67.5 83.5 -67.5 202.5t50.5 232.5t132.5 200t194 140t223 53.5t205 -33.5t166.5 -95.5t115.5 -157.5t43 -225.5t-46.5 -272.5t-133 -264t-201.5 -215.5t-262 -147.5t-303 -53.5q-252 0 -389 129.5t-137 368.5q0 263 156 487q79 113 186 186l30 -37
q-88 -106 -139 -265t-51 -288.5t22.5 -216t67.5 -155.5q98 -149 295 -149q281 0 490 300q118 170 167 391q23 105 23 200t-19.5 172.5t-59.5 138.5q-83 129 -259 129q-132 0 -241 -82t-167.5 -208.5t-58.5 -250.5t42 -177.5t109.5 -53.5t137 43.5t118.5 119.5t52 159l96 16
q0 -104 -54.5 -197.5t-147 -150t-205.5 -56.5t-180.5 83.5z" />
    <glyph glyph-name="P" unicode="P" horiz-adv-x="1501" 
d="M38 108q-56 69 -56 150t27.5 140t73.5 99t106 68q111 52 251 54q9 165 75.5 314.5t174.5 262t263.5 179.5t331.5 67q165 0 303 -81q69 -40 111.5 -108.5t42.5 -170.5t-50.5 -208.5t-133.5 -181.5q-176 -157 -400 -182q-88 -257 -294 -399t-491 -142q-222 0 -335 139z
M91 370.5q-40 -52.5 -40 -113.5t33.5 -105.5t85.5 -69.5q106 -51 219 -51q181 0 330.5 114.5t225.5 290.5q30 70 64 215.5t53 200.5q113 338 315 467q-13 13 -63 23t-111 10q-132 0 -260.5 -64t-224.5 -166t-155 -236.5t-59 -268.5q148 -23 289 -117l-43 -66
q-135 77 -237 77q0 -22 16 -90t37 -125l-59 -18q-24 38 -41.5 114.5t-22.5 118.5q-124 0 -250 -59q-62 -29 -102 -81.5zM1451 1282q-109 -112 -179.5 -299.5t-99.5 -413.5q78 0 155 45.5t132 115t89 153.5t34 136.5t-5 82.5t-17 66q-28 82 -109 114z" />
    <glyph glyph-name="Q" unicode="Q" 
d="M429.5 613.5q-67.5 83.5 -67.5 202.5t50.5 232.5t132.5 200t194 140t223 53.5t205 -33.5t166.5 -95.5t115.5 -157.5t43 -222.5t-42.5 -264t-122.5 -255t-187 -212q-227 -200 -526 -222q-40 -60 -115 -163q38 -14 106 -39.5t103 -37.5q98 -35 137 -35q97 0 195 135l43 -30
q-8 -10 -29.5 -39.5t-37 -49t-44 -47t-56.5 -44.5q-67 -42 -150 -42q-65 0 -302 96q-41 16 -62 24q-65 -59 -141 -84t-186 -25t-167.5 41.5t-57.5 104.5t66 114t183.5 51t320.5 -67q71 95 99 135q-240 7 -369.5 135.5t-129.5 361.5q0 263 156 487q79 113 186 186l30 -37
q-88 -106 -139 -265t-51 -287t21 -212.5t63 -152.5q92 -146 275 -156q69 100 123 175l75 -2l-106 -170q131 19 248.5 109t196 217t124 275.5t45.5 264.5t-19.5 193.5t-59.5 138.5q-83 129 -259 129q-132 0 -241 -82t-167.5 -208.5t-58.5 -250.5t42 -177.5t109.5 -53.5
t137 43.5t118.5 119.5t52 159l96 16q0 -104 -54.5 -197.5t-147 -150t-205.5 -56.5t-180.5 83.5zM-33.5 -311q44.5 -25 123 -25t132 16.5t102.5 58.5q-195 73 -267.5 73t-103.5 -19t-31 -49t44.5 -55z" />
    <glyph glyph-name="R" unicode="R" horiz-adv-x="1831" 
d="M1752 213l63 -31q-30 -78 -75 -126q-80 -85 -181 -85q-93 0 -163 115q-54 89 -90 192.5t-56 153.5q-45 115 -88 115q-96 -292 -284.5 -436.5t-454.5 -144.5q-160 0 -285 70q-63 34 -101 92.5t-38 138.5t41 150t108 113q138 91 311 91q6 265 179 479q175 218 417 300
q126 42 231 42t181 -20.5t141 -60.5t104.5 -109t39.5 -157.5t-33.5 -170t-93.5 -146.5q-112 -122 -285 -209q68 -56 148 -271q29 -76 68 -136t79 -60q39 0 65 34q33 43 52 77zM572 313l-61 -14q-24 47 -45 169l-7 40q-166 0 -295 -78q-43 -27 -71.5 -70t-28.5 -99t31 -102.5
t83 -72.5q102 -53 227 -53q214 0 344 114t202 326q15 44 39.5 120.5t39.5 122t41 114t48 114.5t56.5 104t71.5 102q89 104 196 171q-24 14 -88 25.5t-134 11.5q-119 0 -245.5 -64t-226.5 -166t-165.5 -239t-66.5 -273q220 -31 346 -192l-33 -35q-6 3 -33 21.5t-52.5 32.5
t-61.5 31q-76 36 -166 36q5 -65 29.5 -129.5t25.5 -67.5zM1166 567q179 56 296.5 187t117.5 309q0 61 -24 123.5t-66 97.5q-111 -79 -165 -180q-31 -58 -50 -97.5t-39 -118.5q-25 -97 -45 -196.5t-25 -124.5z" />
    <glyph glyph-name="S" unicode="S" horiz-adv-x="1326" 
d="M708.5 -14.5q-100.5 -18.5 -190 -18.5t-161 9.5t-142 33t-121.5 60.5q-114 81 -114 229q0 88 41 164.5t107 126.5q140 108 306 108q199 0 296 -117q48 -59 48 -143t-79.5 -145.5t-167.5 -61.5q-21 0 -21 21.5t20 31t48 18t56 20.5q69 31 69 100.5t-63.5 105t-220.5 35.5
t-243 -79.5t-86 -189.5q0 -145 129 -206q115 -55 275 -55q275 0 445 157q120 110 120 277q0 100 -71 194q-31 42 -69 83l-76 82t-69 82q-71 90 -71 168t25.5 134.5t68 98t97.5 71.5q111 62 235 62q108 0 201 -52q102 -56 102 -171q0 -45 -32 -79t-72 -34t-65.5 23
t-25.5 51.5t24.5 61t24.5 54t-18 39.5t-46 27q-56 17 -102 17q-106 0 -182 -63t-76 -175q0 -61 76 -143q34 -36 74.5 -76.5t81.5 -86.5t75 -95q76 -108 76 -224t-46 -210t-120.5 -155.5t-172 -104t-198 -61z" />
    <glyph glyph-name="T" unicode="T" horiz-adv-x="1386" 
d="M700 406q-147 77 -280 77t-216 -68.5t-83 -160.5t81.5 -157.5t214 -65.5t224 31t152 86.5t105 128.5t74 160t53.5 177.5t49.5 185t54.5 178.5q65 189 186 294q-192 49 -404 49q-120 0 -226 -65.5t-169.5 -176.5t-63.5 -245t75.5 -226t215.5 -162l-14 -51zM12 122.5
q-45 57.5 -45 132t37 133.5t96 93q123 70 268 70q75 0 138 -21q-136 171 -136 314q0 207 145 363q141 151 333 207q97 28 190 28t269 -40t233 -40t80 13q31 17 73 65h76q-13 -54 -53 -93t-92 -57q-97 -33 -184 -33q-125 0 -168 -300q-11 -79 -22 -225t-50.5 -259t-101 -193
t-139 -140.5t-168.5 -96.5q-177 -70 -375 -70q-150 0 -288 61q-71 31 -116 88.5z" />
    <glyph glyph-name="U" unicode="U" horiz-adv-x="1675" 
d="M1429 63q74 0 168 173l53 -31q-53 -112 -123.5 -171t-145 -59t-126 67t-51.5 173t18 223q25 156 63.5 311.5t40.5 162.5l9 36q-13 -31 -43.5 -107t-58 -142.5t-69.5 -158t-81.5 -166t-92 -151.5t-104.5 -129q-117 -119 -237 -119q-86 0 -132 60.5t-46 160t27 232
t59 241.5q86 293 86 486q0 102 -52.5 168t-140 66t-153 -44.5t-107.5 -113.5t-72 -154q-55 -160 -55 -307q0 -273 125 -479l-39 -33q-68 109 -103.5 243.5t-35.5 241t15 195.5t50 180t86 162t131 115.5t162.5 44.5t137.5 -22.5t90.5 -60t59.5 -88.5q44 -93 44 -206
t-24 -230.5t-54 -210.5q-77 -243 -77 -425q0 -119 60.5 -119t136 74t148.5 192t146.5 261t135.5 285q126 289 186 453l28 74h187q-297 -830 -297 -1188q0 -166 67 -166z" />
    <glyph glyph-name="V" unicode="V" horiz-adv-x="1391" 
d="M467 1442q357 0 357 -420q0 -319 -211 -854q291 156 458 362q155 192 250 455q-91 45 -152 116.5t-61 153.5t50 134.5t126 52.5t119 -54.5t43 -151.5t-37 -226q72 -37 152 -54l-18 -47q-115 29 -150 43q-99 -299 -337.5 -542.5t-610.5 -409.5h-82q64 125 136 363
q140 458 140 714q0 305 -184 305q-82 0 -148 -41.5t-107 -105.5t-68 -147q-50 -148 -50 -308q0 -136 30 -236q54 -180 161 -251l-47 -39q-106 89 -155.5 235t-49.5 268t15 209t49.5 173.5t84.5 153t127 108t170 41.5zM1245 1318.5q-26 -27.5 -26 -75t34.5 -101t88.5 -93.5
q33 119 33 181q0 116 -68 116q-36 0 -62 -27.5z" />
    <glyph glyph-name="W" unicode="W" horiz-adv-x="1993" 
d="M1254 0h-82q44 198 178 908l47 249q-126 -155 -305.5 -417t-494.5 -740h-185q63 119 136 360q141 461 141 717q0 305 -185 305q-81 0 -147 -41.5t-107 -105.5t-68 -147q-50 -148 -50 -301t45 -290t145 -204l-47 -39q-106 89 -155.5 235t-49.5 268t15 209t49.5 173.5
t84.5 153t127.5 108t173 41.5t166.5 -32.5t111 -91.5q76 -112 76 -296q0 -293 -211 -793q330 555 518 802q170 224 314 343l71 -33l-180 -1166q217 147 353.5 359t181.5 451q-98 46 -168 122t-70 157.5t43.5 129.5t104 48t97 -22t56.5 -60q39 -73 39 -166t-16 -184
q72 -37 155 -54l-14 -47q-127 32 -154 43q-63 -299 -249 -542.5t-490 -409.5zM1793 1255q11 -115 141 -206q16 78 16 129t-1.5 68t-7.5 44q-12 56 -66 56q-35 0 -58.5 -25t-23.5 -59v-7z" />
    <glyph glyph-name="X" unicode="X" horiz-adv-x="1571" 
d="M318 733h383q12 93 12 182q0 467 -209 467q-68 0 -130.5 -40.5t-101 -88t-70.5 -109.5q-68 -136 -68 -351q0 -102 15 -202l-54 -15q-26 129 -26 261.5t38 251.5t103 195q135 158 324 158q280 0 346 -358q19 -99 19 -218q87 247 248 408q168 168 381 168q81 0 127.5 -45
t46.5 -106t-33 -101.5t-100 -40.5t-112 52.5t-60 139.5q-166 -52 -295.5 -227t-164.5 -381h351l29 -59h-388q-3 -33 -3 -65q0 -242 60 -378.5t171 -136.5q82 0 173.5 94.5t179.5 284.5l43 -37q-56 -200 -189.5 -330.5t-271.5 -130.5q-142 0 -238 132q-102 140 -106 438
q-76 -286 -233 -427t-369 -141q-82 0 -124 45.5t-42 104.5t35 100t89 41t88 -16t52 -52q24 -51 30 -90.5t7 -43.5q81 13 151.5 68.5t120.5 140.5q100 170 139 399h-428z" />
    <glyph glyph-name="Y" unicode="Y" horiz-adv-x="1549" 
d="M625 211q200 -99 335 -99q222 0 278 283q8 42 21 110t21 112t21.5 107.5t25 107t29 99t36 95.5t43.5 85t53 79q62 74 141 118l42 -31q-97 -73 -153.5 -219t-71.5 -266t-26 -283t-15.5 -218t-16.5 -154.5t-26 -153.5t-39.5 -135t-58 -126t-81 -99t-108.5 -81
q-145 -67 -318 -67q-291 0 -291 158q0 52 38.5 83.5t85 31.5t77.5 -28t31 -78.5t-22 -101.5q43 -7 98 -7t110 18.5t96 49.5t74.5 81t56.5 102t43 124q29 110 56 289q-46 -111 -120.5 -156.5t-173.5 -45.5q-187 0 -426 100q-43 -40 -140 -72.5t-185 -32.5q-176 0 -176 132
q0 74 82.5 129t216.5 55t261 -62q98 80 193.5 210.5t162 287t66.5 282.5q0 195 -91 291.5t-231 96.5q-89 0 -181 -38.5t-167 -103.5t-123 -161.5t-48 -206t53 -212.5l-51 -22q-59 124 -59 254t52.5 241t137.5 183q181 152 400 152q182 0 310 -116q136 -125 136 -374
q0 -196 -144.5 -423.5t-339.5 -373.5zM425 141q-153 59 -235 59q-138 0 -138 -72q0 -65 105 -65q67 0 148.5 25t119.5 53z" />
    <glyph glyph-name="Z" unicode="Z" horiz-adv-x="1761" 
d="M375 811q150 0 246 96l55 -37q-58 -53 -148.5 -83.5t-204.5 -30.5t-203 71t-89 213q0 170 155 286t419 116q133 0 252 -37t189 -81.5t155.5 -102t136.5 -80.5q67 72 154.5 112.5t167.5 40.5t130.5 -39.5t50.5 -120t-88.5 -130t-199.5 -49.5t-195 30l-153 -252h403l29 -59
h-468l-235 -379q75 -66 226 -128.5t237 -62.5q186 0 219 189l94 -14q0 -121 -110.5 -211.5t-280.5 -90.5q-155 0 -351 107q-28 15 -81.5 46.5t-75.5 43.5q-186 -197 -405 -197q-164 0 -248 76t-84 189q0 108 95 195q101 92 266 92q145 0 327 -109q35 -20 98 -59l196 313
h-372l54 59h354l174 283q-189 76 -352 198q-59 43 -120 82q-127 82 -289 82q-87 0 -159.5 -30t-117.5 -78q-95 -100 -95 -219.5t70.5 -179.5t171.5 -60zM738 225q-78 62 -205.5 118t-216.5 56t-132.5 -46t-43.5 -116t65 -127t189 -57q186 0 344 172zM1413 1100
q81 -39 165.5 -39t135 24.5t50.5 61.5t-25 56.5t-74.5 19.5t-120.5 -33t-131 -90z" />
    <glyph glyph-name="bracketleft" unicode="[" horiz-adv-x="562" 
d="M363 -11l-280 -10q151 592 228 849q153 512 287 753q111 0 251 -5l-35 -97h-128q-20 0 -34 -15.5t-19 -32t-12 -45t-24.5 -83t-53.5 -168.5t-61.5 -198t-66 -221.5t-57.5 -199.5q-49 -173 -123 -428l155 -2z" />
    <glyph glyph-name="backslash" unicode="\" horiz-adv-x="1096" 
d="M-36 1772l1228 -2055l-47 -32l-1227 2052z" />
    <glyph glyph-name="bracketright" unicode="]" horiz-adv-x="524" 
d="M197 -21l-273 10l31 97l156 2q12 40 75.5 242t86.5 276t71 230q88 291 119 406.5t39 136.5q20 48 20 74t-27 26h-128l24 97q142 5 254 5q-12 -256 -161 -739q-113 -362 -196 -600.5t-91 -262.5z" />
    <glyph glyph-name="asciicircum" unicode="^" horiz-adv-x="758" 
d="M392 972h103l220 -548h-170l-104 508l-215 -508h-170z" />
    <glyph glyph-name="underscore" unicode="_" horiz-adv-x="818" 
d="M415 -53l-414 32v21l414 34l405 -34v-21z" />
    <glyph glyph-name="grave" unicode="`" horiz-adv-x="512" 
d="M444 672h-53q-75 77 -253 245l-60 56h170q8 -12 196 -301z" />
    <glyph glyph-name="a" unicode="a" horiz-adv-x="851" 
d="M553 582h156l-79 -299q-19 -63 -19 -114.5t18 -51.5t49.5 31.5t53.5 63.5l23 32l43 -40q-33 -64 -84 -117q-99 -103 -172 -103q-86 0 -86 133q0 22 2 33q-15 -51 -57 -90q-80 -76 -180.5 -76t-161 68.5t-60.5 171.5q0 160 104 270t244 110q70 0 116 -38.5t60 -100.5z
M386 518q-58 0 -108.5 -48.5t-77.5 -117t-27 -133.5t28.5 -105t88 -40t107.5 54q91 104 91 247t-102 143z" />
    <glyph glyph-name="b" unicode="b" horiz-adv-x="766" 
d="M452 21q-81 -37 -187 -37t-179.5 63t-73.5 160q0 11 4 41q41 275 149 602.5t232 488.5h170q-75 -84 -179.5 -357t-168.5 -538q121 160 272 160q94 0 144.5 -63.5t50.5 -145.5t-27 -150.5t-76.5 -127.5t-130.5 -96zM188 248q-8 -42 -8 -81.5t29 -80t89 -40.5t110 52
q96 101 96 267q0 68 -23 111.5t-71 43.5t-119.5 -77t-102.5 -195z" />
    <glyph glyph-name="c" unicode="c" horiz-adv-x="671" 
d="M520 207l41 -29q-44 -89 -135.5 -141.5t-191.5 -52.5t-168.5 61t-68.5 172.5t68.5 201.5t168.5 137.5t202 47.5q125 0 168 -60q18 -24 18 -60.5t-25 -61.5t-60 -25t-59 22.5t-24 57.5t43 64q-38 12 -70 12q-69 0 -127 -51t-88 -123.5t-30 -142.5t33.5 -112.5t96.5 -42.5
t121 35.5t87 90.5z" />
    <glyph glyph-name="d" unicode="d" horiz-adv-x="880" 
d="M485 123q-105 -139 -251 -139q-98 0 -166 71.5t-68 182.5q0 149 112 257.5t251 108.5q72 0 123.5 -28.5t66.5 -77.5q46 189 132.5 438.5t159.5 392.5h160q-93 -184 -229 -623.5t-136 -549.5q0 -39 16 -39q40 0 128 127l43 -40q-63 -112 -135 -166t-115.5 -54t-68 31.5
t-24.5 91.5q0 2 0.5 7.5t0.5 8.5zM181 244q0 -161 124 -161q116 0 191 155q35 73 35 118q0 162 -123 162q-82 0 -154.5 -75.5t-72.5 -198.5z" />
    <glyph glyph-name="e" unicode="e" horiz-adv-x="706" 
d="M184 197q6 -115 155 -115q55 0 114.5 31.5t96.5 74.5l43 -28q-83 -139 -265 -170q-40 -6 -77 -6q-108 0 -180 71.5t-72 174.5t63 190.5t157.5 135.5t186.5 48t159.5 -42t69 -113t-41.5 -122.5t-109 -78.5q-131 -53 -257 -53zM178 252q111 4 178.5 35.5t94 72t26.5 85
t-23 66t-49 21.5q-64 0 -117.5 -44.5t-81.5 -108t-28 -127.5z" />
    <glyph glyph-name="f" unicode="f" horiz-adv-x="567" 
d="M354 516l-24 -102q-67 -283 -111 -398q-85 -219 -218 -277q-55 -24 -111.5 -24t-79.5 21.5t-23 52t20 52.5t50.5 22t50.5 -14t20 -38.5t-14 -46.5q103 16 185 390q13 59 29.5 140.5t25.5 119.5l24 102h-188l16 66h186q119 483 279 674q132 157 319 157q84 0 141.5 -34
t57.5 -113q0 -46 -31.5 -72.5t-74 -26.5t-72 24.5t-29.5 63.5t27 76q-49 17 -77 17t-66.5 -27.5t-68.5 -73.5q-117 -180 -228 -665h239l-16 -66h-238z" />
    <glyph glyph-name="g" unicode="g" horiz-adv-x="714" 
d="M4 -147q-42 35 -42 65t24 45l121 119q-106 89 -106 213.5t109.5 219.5t246.5 95q31 0 47 -2q8 76 74.5 143.5t167 67.5t100.5 -90q0 -39 -22.5 -61.5t-53.5 -22.5t-55 19t-33 53q-60 -16 -96.5 -51.5t-36.5 -63.5q80 -29 132 -99.5t52 -146.5q0 -131 -105 -225t-237 -94
q-87 0 -143 22q-59 -49 -59 -67q0 -28 49 -31l198 -8q101 -4 158 -33.5t57 -83.5t-31 -95t-85 -64q-103 -44 -260 -44q-78 0 -144 17q-129 33 -129 102q0 55 81 92q12 6 21 9zM193.5 399.5q-18.5 -56.5 -18.5 -101t5 -75t17 -61.5q26 -66 92 -66t107 46q72 79 72 227
q0 57 -30 115.5t-85 58.5t-98 -43.5t-61.5 -100zM191 -309q223 0 223 78q0 67 -344 67q-25 0 -43 -28t-18 -52q0 -38 47 -51.5t135 -13.5z" />
    <glyph glyph-name="h" unicode="h" horiz-adv-x="824" 
d="M473 259q42 115 42 164.5t-34.5 49.5t-83.5 -48.5t-94 -118.5q-74 -113 -149 -258l-26 -48h-144q49 362 94 536t86 297t88 218q106 218 244 323l76 -35q-107 -107 -196.5 -376.5t-198.5 -743.5q6 10 24.5 42.5t28.5 49t30.5 49.5t34.5 52.5t36.5 48.5t40 46.5t41.5 38
t46 32.5q51 26 109 26t87.5 -32t29.5 -86t-50 -181.5t-50 -157.5t16 -30q42 0 127 127l43 -40q-64 -110 -133.5 -165t-114 -55t-68.5 28t-24 80t42 167z" />
    <glyph glyph-name="i" unicode="i" horiz-adv-x="484" 
d="M112 10q-24 26 -24 71.5t23.5 124t47 142.5t23.5 85.5t-14 21.5q-35 0 -113 -138l-67 39q147 248 270 248q84 0 84 -106q0 -31 -20 -99l-72 -206q-11 -29 -11 -52.5t18 -23.5q34 0 125 126l42 -39q-54 -100 -128.5 -160t-117 -60t-66.5 26zM436 826q-27 -33 -73 -33
t-69 27.5t-23 69.5t28.5 74.5t73.5 32.5t67.5 -28.5t22.5 -69t-27 -73.5z" />
    <glyph glyph-name="j" unicode="j" horiz-adv-x="423" 
d="M-73 -130q0 55 -64 55q-30 0 -48.5 -19t-18.5 -50t32.5 -56.5t85 -25.5t87.5 7.5t62 18.5t51.5 34t42 44t35.5 58.5t30 67.5t28 81t27 90t29 103t35 121.5t17 108.5q0 96 -94 96q-123 0 -270 -248l67 -39q78 138 113 138q14 0 14 -33q-15 -54 -46.5 -151t-45.5 -149.5
t-24.5 -86t-27.5 -77.5t-34 -68q-40 -58 -93 -63q10 14 10 43zM442 826q-27 -33 -73 -33t-69 27.5t-23 69.5t28.5 74.5t73.5 32.5t67.5 -28.5t22.5 -69t-27 -73.5z" />
    <glyph glyph-name="k" unicode="k" horiz-adv-x="859" 
d="M277 1081q71 153 190 246.5t253 93.5q79 0 136.5 -40t57.5 -121q0 -47 -31.5 -73t-74 -26t-72 24.5t-29.5 61.5t27 78q-34 16 -66.5 16t-73 -26t-74.5 -69q-60 -76 -110.5 -186t-159 -531t-108.5 -529h-158q0 171 96.5 517t196.5 564zM667.5 42q-67.5 -58 -134 -58
t-100.5 57t-61.5 103.5t-44 74t-30.5 50.5t-20.5 34.5t-12.5 20.5q-6 11 -9 22l29 32q284 302 446 302q62 0 95.5 -30t33.5 -67t-23.5 -65.5t-65.5 -28.5t-64.5 20t-26.5 40l-4 20q-153 -83 -271 -184q-25 -22 -30 -27q28 -20 200 -237q17 -23 36.5 -23t46.5 25t81 88
l41 -35q-44 -76 -111.5 -134z" />
    <glyph glyph-name="l" unicode="l" horiz-adv-x="406" 
d="M372 1330h162q-43 -74 -132 -328.5t-162.5 -512t-73.5 -315t14 -57.5q42 0 131 127l42 -40q-44 -76 -95 -128q-90 -92 -146 -92q-102 0 -102 123q0 183 121.5 577t240.5 646z" />
    <glyph glyph-name="m" unicode="m" horiz-adv-x="1384" 
d="M637 0h-148l19 66q10 39 36 114q58 163 58 254q0 39 -33 39q-41 0 -96.5 -48.5t-106.5 -118.5q-85 -117 -168 -258l-28 -48h-141l31 94q87 260 87 308.5t-16 48.5q-29 0 -69 -69q-9 -16 -15 -25.5t-13.5 -23t-9.5 -16.5l-67 39q78 127 143 187.5t133 60.5q31 0 53.5 -26
t22.5 -61.5t-4 -63t-9 -50.5t-14 -55t-14.5 -49t-14.5 -46t-11 -34q20 35 65 105t59.5 88.5t38.5 48t42.5 46.5t44.5 38t49 32q56 27 113.5 27t87.5 -32.5t30 -76t-13.5 -90.5t-37.5 -109.5t-31 -84.5q96 156 147 220q139 173 275 173q67 0 96 -32t29 -87t-47 -182.5
t-47 -156.5t18 -29q40 0 127 127l43 -40q-59 -105 -130 -162.5t-121.5 -57.5t-70.5 33t-20 78.5t40 161t40 177.5q0 39 -35 39q-100 0 -289 -293q-77 -119 -108 -180z" />
    <glyph glyph-name="n" unicode="n" horiz-adv-x="904" 
d="M272 281q209 323 375 323q56 0 84 -34t28 -86t-46.5 -180t-46.5 -158.5t15 -30.5q20 0 59 41.5t69 87.5l42 -40q-60 -109 -131.5 -164.5t-116 -55.5t-69.5 29.5t-25 80.5t40.5 166.5t40.5 164t-33 48.5q-38 0 -90 -48.5t-101 -118.5q-78 -112 -159 -258l-27 -48h-141
l31 94q87 260 87 308.5t-16 48.5q-29 0 -69 -69q-9 -16 -15 -25.5t-13.5 -23t-9.5 -16.5l-67 39q78 127 143 187.5t133 60.5q31 0 53.5 -26t22.5 -63t-6 -72.5t-12.5 -59t-17 -60.5t-11.5 -42z" />
    <glyph glyph-name="o" unicode="o" horiz-adv-x="775" 
d="M-1 238q0 75 36.5 144.5t94.5 117.5q128 104 261 104t218 -71t85 -177.5t-58.5 -191.5t-154.5 -132.5t-209.5 -47.5t-193 71.5t-79.5 182.5zM326 46q46 0 86.5 30t61.5 78q41 92 41 190t-36 148.5t-102 50.5t-130.5 -86t-64.5 -219q0 -192 144 -192z" />
    <glyph glyph-name="p" unicode="p" horiz-adv-x="815" 
d="M561.5 43q-82.5 -59 -189.5 -59t-171 82q-47 -185 -80 -264q-104 -245 -285 -246q-44 0 -74 30t-30 69.5t20 62t53 22.5t55 -15.5t22 -48t-35 -69.5l6 -8q62 0 113 181q20 73 29 114t11 49l105 413q-49 -32 -125 -124l-39 45q44 61 104 119t76 74q78 231 151 346
q76 116 168 183l27 -24q-63 -75 -107 -191t-57 -223q107 43 203.5 43t159.5 -61t63 -161t-45.5 -190t-128 -149zM299 471l-76 -336q18 -39 60 -59t97 -20t101 47q86 88 86 229q0 126 -68 170q-27 18 -71.5 18t-128.5 -49z" />
    <glyph glyph-name="q" unicode="q" horiz-adv-x="755" 
d="M265 -498l-30 37q51 69 83 169.5t61.5 196.5t45.5 146q-13 -19 -47 -36q-62 -31 -125 -31t-114.5 20t-81.5 54q-60 66 -60 159t52.5 183t141 147t183 57t172.5 -61q49 128 100.5 206.5t131.5 141.5l29 -28q-48 -63 -82 -184q-10 -36 -29.5 -123.5t-24.5 -106.5l-121 -506
q-31 -124 -107.5 -252t-177.5 -189zM452 164l73 307q-55 45 -118.5 45t-125 -54.5t-96 -131.5t-34.5 -141t31.5 -103.5t97.5 -39.5q73 0 117.5 37.5t54.5 80.5z" />
    <glyph glyph-name="r" unicode="r" horiz-adv-x="764" 
d="M549 473q-38 0 -90 -48.5t-101 -118.5q-78 -112 -159 -258l-27 -48h-141l31 94q87 260 87 308.5t-16 48.5q-29 0 -69 -69q-9 -16 -15 -25.5t-13.5 -23t-9.5 -16.5l-67 39q78 127 143 187.5t133 60.5q31 0 53.5 -26t22.5 -61.5t-4 -63t-9 -50.5t-14 -55t-14.5 -49
t-14.5 -46t-11 -34q18 36 61 106t56 88t36 48t40.5 46.5t42 38t46.5 32.5q56 26 108 26t83.5 -30.5t31.5 -71t-25.5 -71t-59 -30.5t-52.5 11.5t-26 24.5q-21 36 -37 36z" />
    <glyph glyph-name="s" unicode="s" horiz-adv-x="657" 
d="M0 61.5q-28 31.5 -28 69.5t21 63t55.5 25t61 -20.5t26.5 -58t-46 -62.5q38 -33 116 -33q169 0 169 96q0 60 -107 96q-44 15 -88.5 32t-77.5 50t-36 80q0 68 45 115q85 90 254 90q83 0 147 -31.5t64 -81.5t-25.5 -72t-59.5 -22t-57.5 18.5t-23.5 51.5t39 57q-24 17 -83 17
t-106 -17.5t-47 -47.5t34.5 -50t83.5 -37t98 -39t83.5 -63t34.5 -101t-49 -109q-93 -93 -254 -93q-85 0 -150.5 23t-93.5 54.5z" />
    <glyph glyph-name="t" unicode="t" horiz-adv-x="449" 
d="M136 582q103 320 210 536l124 -10q-11 -32 -54 -154q-93 -269 -120 -372h157l-16 -66h-162q-92 -284 -92 -345.5t12.5 -61.5t22.5 5q27 15 116 146l41 -37q-67 -122 -138 -180.5t-117 -58.5t-69.5 32t-23.5 82q0 127 89 418h-105l16 66h109z" />
    <glyph glyph-name="u" unicode="u" horiz-adv-x="896" 
d="M790 582q-134 -357 -134 -433q0 -32 16 -32q44 0 128 128l43 -41q-53 -95 -125.5 -157.5t-117.5 -62.5q-93 0 -93 94q0 73 34 178t34 106q-5 -9 -24 -41.5t-28 -48.5t-29.5 -48.5t-34 -51t-36 -47.5t-40 -46t-41.5 -37.5t-46 -31.5q-50 -26 -98 -26q-119 0 -119 131
q0 60 43 186.5t43 149t-14 22.5q-40 0 -111 -127l-65 39q137 219 264 219q42 0 67 -23.5t23.5 -72t-49 -173t-47.5 -190.5q0 -36 33 -36q38 0 90.5 48.5t101.5 118.5q78 110 162 258l27 48h143z" />
    <glyph glyph-name="v" unicode="v" horiz-adv-x="801" 
d="M272 96q85 0 172 60t139 140.5t52 143.5q-6 -8 -43.5 -8t-60.5 24.5t-23 59t26 61.5t72 27q127 0 127 -139q0 -63 -39 -144t-106.5 -157t-174 -128t-225 -52t-118.5 115q0 65 37.5 176.5t37.5 142.5t-18 31q-27 0 -107 -130l-65 37q147 248 270 248q33 0 57.5 -24.5
t24.5 -80t-40 -204.5t-40 -158q0 -41 45 -41z" />
    <glyph glyph-name="w" unicode="w" horiz-adv-x="1057" 
d="M627 436l-6 -184q0 -182 43 -182t96.5 61.5t91 149.5t37.5 159q-10 -8 -46.5 -8t-60.5 23t-24 58t26.5 63t79.5 28t86 -34t33 -93.5t-25.5 -142.5t-69.5 -162t-114.5 -133.5t-150.5 -54.5q-71 0 -101 82q-25 68 -28 119.5t-5 80.5q-137 -210 -234 -260q-43 -22 -87 -22
q-98 0 -98 115q0 65 37.5 176.5t37.5 142.5t-18 31q-27 0 -107 -130l-65 37q147 248 270 248q33 0 57.5 -24.5t24.5 -80t-40 -204.5t-40 -158q0 -41 26 -41t77.5 66t99.5 146q125 212 168 212q29 0 29 -84z" />
    <glyph glyph-name="x" unicode="x" horiz-adv-x="772" 
d="M438 272q0 -177 75 -177q56 0 163 148l43 -39q-35 -64 -84 -118q-93 -102 -173 -102q-56 0 -92 56t-36 122q-41 -85 -109.5 -131.5t-132.5 -46.5q-131 0 -131 114q0 35 22.5 59.5t55 24.5t52 -9t29.5 -31q15 -32 23 -91q40 0 87 64t59 157h-152l23 33h131v27.5t-1 48.5
t-6 63q-9 78 -47 78t-95 -68q-18 -23 -34 -44t-18 -23.5t-4 -5.5l-62 37q133 186 246 186q91 0 126 -122q8 -26 11 -50q95 172 238 172q40 0 68 -22t28 -64.5t-20.5 -70t-56.5 -27.5t-63 23.5t-37 46.5l-11 24q-52 -34 -83.5 -91t-31.5 -118h143l13 -33h-156z" />
    <glyph glyph-name="y" unicode="y" horiz-adv-x="799" 
d="M47 346l-65 39q50 87 124.5 153t133.5 66q96 0 96 -86q0 -36 -49.5 -175t-49.5 -176t5 -47.5t22 -10.5q91 0 187.5 68.5t125.5 151.5l70 204q11 31 34 49t44.5 18t35 -14t13.5 -37t-9 -48l-76 -222q-63 -196 -195 -386q115 -12 205 -41l-8 -56q-138 28 -244 33
q-97 -125 -198.5 -199.5t-177 -74.5t-113 30.5t-37.5 83.5t40 96.5t107 70.5q136 56 312 64q14 16 67 112.5t57 121.5q-177 -150 -312 -150q-55 0 -80 37.5t-25 92.5t41.5 188.5t41.5 152t-8.5 18.5t-18.5 -4.5t-19.5 -14t-17.5 -18t-17.5 -23.5t-14.5 -23q-21 -33 -27 -44z
M336 -171q-81 -5 -165 -29q-162 -46 -162 -108q0 -37 46 -37t150 66.5t131 107.5z" />
    <glyph glyph-name="z" unicode="z" horiz-adv-x="692" 
d="M111 55q-27 -13 -82 -57l-65 51q7 20 199 215.5t206 210.5q-136 68 -201 68l-10 -2q43 -43 43 -79.5t-31 -57.5t-68.5 -21t-64 22t-26.5 60q0 71 51.5 109t114 38t161.5 -31.5t145.5 -31.5t109.5 22l41 -59q-41 -80 -117 -80q-13 0 -33 10l-291 -311q53 0 140.5 -40
t136.5 -42q-33 28 -33 67.5t29 63t63.5 23.5t61 -25.5t26.5 -75t-42 -84t-111 -34.5q-138 0 -353 71z" />
    <glyph glyph-name="braceleft" unicode="{" horiz-adv-x="656" 
d="M367 508l-23 -343q0 -103 11 -134t23 -51q25 -43 78 -43q22 0 53 9l10 -59q-46 -11 -97 -11t-94.5 26.5t-68 66t-39.5 95.5q-24 88 -24 204l16 245q0 55 -23.5 95t-74.5 40l14 62q96 0 175 146q35 64 71 142t78.5 156t91 142.5t119 105t133.5 40.5t94 -9l-29 -61
q-21 6 -53 6t-75.5 -30.5t-75 -73t-65 -106.5t-53 -112t-43.5 -110t-32 -81q-55 -125 -210 -187q50 -27 81.5 -71.5t31.5 -98.5z" />
    <glyph glyph-name="bar" unicode="|" horiz-adv-x="502" 
d="M143 -11h-105q7 27 42.5 174.5t55 225t57 228t66 254t63.5 228.5q66 237 129 399h102q-90 -287 -232.5 -833t-177.5 -676z" />
    <glyph glyph-name="braceright" unicode="}" horiz-adv-x="676" 
d="M367 810l23 343q0 103 -11 134t-23 51q-25 43 -78 43q-22 0 -53 -9l-10 59q46 11 97 11t94.5 -26.5t68 -66t39.5 -95.5q24 -88 24 -204l-16 -245q0 -55 23.5 -95t74.5 -40l-14 -62q-96 0 -175 -146q-35 -64 -71 -142t-78.5 -156t-91 -142.5t-119 -105t-133.5 -40.5t-94 9
l29 61q21 -6 53 -6t75 30t75 73t65 106t53 113q63 160 76 191q55 125 210 187q-50 27 -81.5 71.5t-31.5 98.5z" />
    <glyph glyph-name="asciitilde" unicode="~" horiz-adv-x="1707" 
d="M826 686q-157 45 -231.5 45t-126.5 -45l-13 14q25 67 87.5 116.5t144 49.5t246 -46.5t221.5 -46.5t91.5 24t43.5 25l13 -13q-10 -61 -93.5 -114.5t-154.5 -53.5t-228 45z" />
    <glyph glyph-name="nbspace" unicode="&#xa0;" horiz-adv-x="321" 
 />
    <glyph glyph-name="exclamdown" unicode="&#xa1;" horiz-adv-x="780" 
d="M500 980l-216 -1003h-157q162 588 312 1003h61zM453 1170.5q-26 23.5 -26 72t32.5 78t73.5 29.5t68 -25t27 -72t-34 -76.5t-74.5 -29.5t-66.5 23.5z" />
    <glyph glyph-name="cent" unicode="&#xa2;" horiz-adv-x="672" 
d="M240 -264l-51 13l77 313q-101 2 -168 64t-67 171t58.5 193.5t146.5 134t185 61.5l79 320l52 -8l-77 -309q102 -2 141.5 -38.5t39.5 -77.5t-25 -66t-60 -25t-59 22.5t-24 57.5t43 64q-37 12 -68 12l-119 -479h7q58 0 116 37t87 96l41 -29q-37 -81 -112 -132.5t-162 -64.5z
M270 508.5q-54 -93.5 -54 -200t77 -139.5l114 460q-83 -27 -137 -120.5z" />
    <glyph glyph-name="sterling" unicode="&#xa3;" horiz-adv-x="1634" 
d="M772 907l100 -5q40 0 67 2q86 309 223 432q119 106 292 106q125 0 200 -52t75 -133.5t-40.5 -147t-103.5 -109t-151 -77.5q-147 -57 -342 -83q-46 -171 -48 -179q47 -10 92 -10q132 0 209 69l36 -32q-66 -145 -249 -145q-51 0 -118 12q-59 -179 -131 -297
q36 -16 110 -51.5t119 -56.5q126 -56 221 -56q42 0 79 21t56.5 45.5t34 45.5t17.5 21l45 -26q-88 -166 -186 -206q-44 -18 -113 -18t-150 26t-176.5 71.5t-142.5 62.5q-80 -69 -210.5 -114.5t-291.5 -45.5q-81 0 -147 31q-125 57 -125 146t55 150q105 116 291 116
q133 0 281 -56q54 -20 141 -57q34 95 74 282q-73 19 -141.5 19t-152.5 -30l-27 43q74 86 200 86q52 0 142 -22q20 94 32 141q-70 0 -161 24zM1567.5 1336q-47.5 32 -105.5 32t-94.5 -12t-64.5 -32t-53 -53.5t-43 -68t-36 -84.5q-31 -84 -59 -197q230 33 379 129
q53 34 88.5 84.5t35.5 110t-47.5 91.5zM86 166q0 -79 98 -106q76 -21 140 -21t126 11t137.5 45.5t115.5 86.5q-1 0 -59.5 22t-93 33t-94.5 29q-117 34 -206 34q-164 0 -164 -134z" />
    <glyph glyph-name="currency" unicode="&#xa4;" horiz-adv-x="946" 
d="M126 260l-44 37l100 116q-94 105 -94 265t137 287l-65 93l47 33l62 -89q125 90 274.5 90t253.5 -91l92 107l43 -38l-95 -110q82 -102 82 -243q0 -86 -40.5 -169.5t-116.5 -143.5l89 -125l-45 -35l-91 128q-117 -69 -258 -69t-233 72zM367.5 915q-69.5 -94 -69.5 -240
t47 -214t128.5 -68t159 93t77.5 232t-53.5 215t-136.5 76t-152.5 -94z" />
    <glyph glyph-name="yen" unicode="&#xa5;" horiz-adv-x="1549" 
d="M625 271q200 -99 335 -99q222 0 278 343q9 38 23.5 106t23.5 109t24.5 102.5t30 102.5t35 93t45 88.5t55.5 74.5q61 74 154 117l42 -31q-135 -110 -185 -351q-41 -204 -51 -406q-18 -394 -57 -584h177l-16 -66h-177q-6 -23 -20 -69h183l-15 -66h-193
q-66 -153 -188 -236.5t-322 -83.5q-291 0 -291 158q0 52 38.5 83.5t85 31.5t77.5 -28t31 -78.5t-22 -101.5q43 -7 87 -7q200 0 296 262h-259l5 66h275q9 30 18 69h-288l4 66h299q25 131 47 321q-46 -111 -120.5 -156.5t-173.5 -45.5q-187 0 -426 100q-43 -35 -109 -35
t-107.5 27.5t-41.5 80.5t40 85.5t118 32.5t159 -42q150 115 282 321q62 97 101 204t39 195q0 195 -91 291.5t-231 96.5q-89 0 -181 -38.5t-167 -103.5t-123 -161.5t-48 -206t53 -212.5l-51 -22q-59 124 -59 254t52.5 241t137.5 183q181 152 400 152q182 0 310 -116
q136 -125 136 -374q0 -186 -143 -392.5t-341 -344.5z" />
    <glyph glyph-name="brokenbar" unicode="&#xa6;" horiz-adv-x="502" 
d="M392 931l-118 -1q102 375 177 568h102q-56 -178 -161 -567zM183 581l116 1q-118 -454 -156 -593h-105q144 590 145 592z" />
    <glyph glyph-name="section" unicode="&#xa7;" horiz-adv-x="859" 
d="M645 1103q0 47 69 116q0 63 -109 63q-114 0 -179 -70q-35 -37 -35 -86t37.5 -90.5t90.5 -76t107 -71.5q128 -91 128 -211t-71 -191t-189 -93q11 -15 44 -51q62 -71 62 -133q0 -125 -99.5 -212.5t-226.5 -87.5q-76 0 -144.5 41t-68.5 102t36 106t73 45q75 0 75 -50
q0 -28 -20.5 -52.5t-41.5 -46.5t-21 -43q0 -32 43.5 -45.5t84.5 -13.5q82 0 154 51.5t72 130.5q0 67 -130 163q-54 40 -107.5 84.5t-91.5 105.5t-38 128q0 113 71.5 181t185.5 80q-3 4 -26 30t-29.5 35.5t-20.5 31.5q-23 38 -23 101.5t47 127.5q94 125 274 125q74 0 132 -38
t58 -97.5t-29 -102t-76 -42.5q-68 0 -68 56zM444 438q84 0 134 24q91 44 91 132q0 66 -58 120q-46 44 -98.5 78.5t-68.5 46.5q-119 0 -181 -62q-36 -36 -36 -89t80 -138t137 -112z" />
    <glyph glyph-name="dieresis" unicode="&#xa8;" horiz-adv-x="752" 
d="M286 850.5q26 -23.5 26 -71.5t-33 -77.5t-73.5 -29.5t-67.5 24.5t-27 72t33.5 76.5t74.5 29t67 -23.5zM648 850.5q26 -23.5 26 -71.5t-33 -77.5t-73.5 -29.5t-67.5 24.5t-27 71.5t34 76.5t74.5 29.5t66.5 -23.5z" />
    <glyph glyph-name="copyright" unicode="&#xa9;" horiz-adv-x="1509" 
d="M185.5 356.5q-78.5 136.5 -78.5 288t39.5 264t106 192t154.5 135.5q172 111 387 111q147 0 265 -51t191 -137q152 -177 152 -418q0 -210 -112 -380q-121 -185 -331 -255q-114 -38 -266.5 -38t-290.5 76t-216.5 212.5zM722 153q319 0 478 253q92 147 92 329
q0 269 -180 425q-126 110 -323 110q-179 0 -323 -98q-251 -170 -251 -507q0 -228 139.5 -370t367.5 -142zM1005 615l49 -35q-53 -113 -164 -178t-232.5 -65t-205 75t-83.5 213t83 247t205 167t245 58t186 -56q39 -34 39 -85t-30 -81t-72.5 -30t-71.5 27.5t-29 70.5t51 76
q-42 16 -84 16q-84 0 -154 -61.5t-106.5 -150t-36.5 -175.5t40 -140.5t117 -53.5t147.5 44.5t106.5 116.5z" />
    <glyph glyph-name="ordfeminine" unicode="&#xaa;" horiz-adv-x="720" 
d="M490 827q-70 0 -70 107q0 18 2 27q-15 -46 -68 -90t-135.5 -44t-135.5 59.5t-53 147.5q0 124 86.5 208.5t199.5 84.5q63 0 104.5 -31t53.5 -81l27 102h126l-66 -249q-16 -59 -16 -96.5t14.5 -37.5t40 26t43.5 52l18 25l35 -32q-27 -55 -89 -116.5t-117 -61.5zM176 1037
q0 -137 100 -137q52 0 93 44q77 83 77 198.5t-98 115.5q-74 0 -123 -66.5t-49 -154.5z" />
    <glyph glyph-name="guillemotleft" unicode="&#xab;" horiz-adv-x="667" 
d="M679 68l-89 -70q-278 330 -278 344q104 93 222.5 184.5t189.5 131.5l63 -84q-198 -124 -343 -236q34 -25 235 -270zM412 68l-89 -70q-268 330 -268 344q99 95 208 185.5t174 130.5l63 -84q-196 -135 -313 -236q30 -22 225 -270z" />
    <glyph glyph-name="logicalnot" unicode="&#xac;" horiz-adv-x="773" 
d="M5 366l21 81h714l-71 -291h-111l49 210h-602z" />
    <glyph glyph-name="uni00AD" unicode="&#xad;" horiz-adv-x="497" 
d="M375 360l-267 19q-50 0 -87 -17l5 91q48 17 94 17t131 -12t133.5 -12t91.5 7l-5 -81q-31 -12 -96 -12z" />
    <glyph glyph-name="registered" unicode="&#xae;" horiz-adv-x="1509" 
d="M1058 322l-44 1q-68 0 -119 24.5t-78 61.5t-47.5 85t-29.5 92q-25 111 -50 145q-25 -6 -70 -6l-58 -374h-161q99 574 155 791q127 19 244.5 19t193.5 -48.5t76 -125t-65.5 -142t-173.5 -91.5q59 -179 70 -206q35 -80 78.5 -101t106.5 -21zM682 1066l-47 -262
q195 17 251 125q14 28 14 60.5t-40 55t-99.5 22.5t-78.5 -1zM185.5 356.5q-78.5 136.5 -78.5 288t39.5 264t106 192t154.5 135.5q172 111 387 111q147 0 265 -51t191 -137q152 -177 152 -418q0 -210 -112 -380q-121 -185 -331 -255q-114 -38 -266.5 -38t-290.5 76
t-216.5 212.5zM722 153q319 0 478 259q92 150 92 333q0 212 -124 364q-61 74 -158.5 117.5t-201.5 43.5t-186.5 -24t-156 -74t-129.5 -120q-121 -153 -121 -384t139.5 -373t367.5 -142z" />
    <glyph glyph-name="macron" unicode="&#xaf;" horiz-adv-x="497" 
d="M323 732l-205 1q-51 0 -87 -7l5 91q52 7 180 7t270 -7l-5 -81q-68 -4 -158 -4z" />
    <glyph glyph-name="degree" unicode="&#xb0;" horiz-adv-x="420" 
d="M285 744q37 35 37 91t-29 84t-74 28t-82.5 -35t-37.5 -90.5t30 -84t74.5 -28.5t81.5 35zM344 964.5q48 -43.5 48 -130.5t-57 -137.5t-131 -50.5t-125.5 44.5t-51.5 128.5t60 136.5t134.5 52.5t122.5 -43.5z" />
    <glyph glyph-name="plusminus" unicode="&#xb1;" horiz-adv-x="713" 
d="M113 466l21 81h189l50 206h117l-52 -206h191l-21 -81h-193l-53 -210h-111l49 210h-187zM590 157l-11 -41q-30 -3 -95 -12q-133 -20 -193.5 -20t-106 5t-101.5 14.5t-83 12.5q0 13 12 41q32 4 92 13q142 21 195 21t101 -6t103.5 -15t86.5 -13z" />
    <glyph glyph-name="twosuperior" unicode="&#xb2;" horiz-adv-x="833" 
d="M204 508l-52 25q37 88 111.5 143t147 55t123.5 -18t90.5 -63t39.5 -93t-9 -79.5t-20 -56t-36 -54t-41 -47t-52 -47t-51.5 -41.5t-57.5 -42.5t-54 -39.5q156 0 240 -9q27 16 43.5 50.5t25.5 55t10 22.5l34 -5l-89 -265q-24 3 -81 11q-126 19 -214 19t-165 -21l-23 41
l33 20q164 103 248.5 213t84.5 188t-32 120t-85 42t-98.5 -33.5t-70.5 -90.5z" />
    <glyph glyph-name="threesuperior" unicode="&#xb3;" horiz-adv-x="692" 
d="M475 573q0 61 -90 61q-54 0 -103.5 -37t-73.5 -88l-50 26q48 90 125.5 144.5t155 54.5t122 -36t44.5 -105t-46.5 -119.5t-116.5 -68.5q58 -10 92 -50t34 -111t-48 -134q-94 -121 -259 -121q-115 0 -178 65q-36 37 -36 84.5t27.5 74t60 26.5t48.5 -17.5t16 -40.5
q0 -61 -78 -61q29 -70 108.5 -70t135 47.5t55.5 111.5t-40.5 96t-102.5 32l-50 -2l30 80q74 0 146 44t72 114z" />
    <glyph glyph-name="acute" unicode="&#xb4;" horiz-adv-x="492" 
d="M148 672h-54q41 57 158 245l35 56h170q-14 -14 -79 -81q-165 -170 -230 -220z" />
    <glyph glyph-name="mu" unicode="&#xb5;" horiz-adv-x="868" 
d="M776 582q-134 -357 -134 -433q0 -32 16 -32q44 0 128 128l43 -41q-53 -95 -125.5 -157.5t-117.5 -62.5q-93 0 -93 94q0 73 34 178t34 106q-5 -9 -24 -41.5t-28 -48.5t-29.5 -48.5t-34 -51t-36 -47.5t-40 -46t-41.5 -37.5t-46 -31.5q-85 -44 -155 -16q-7 -33 -11 -84.5
t-9 -69.5q-9 -31 -49 -31q-71 0 -71 79q0 56 22.5 122.5t44 128.5t31 92.5t27.5 82.5q39 110 39 134.5t-14 24.5q-40 0 -111 -127l-65 39q137 219 264 219q42 0 67 -23.5t23.5 -72t-49 -173t-47.5 -190.5q0 -36 33 -36q38 0 90.5 48.5t101.5 118.5q78 110 162 258l27 48h143
z" />
    <glyph glyph-name="paragraph" unicode="&#xb6;" horiz-adv-x="1231" 
d="M791 1313l-111 1h-12q-10 -69 -59 -384q-129 -828 -134 -914h-135q71 534 105 712q-167 85 -215 116q-164 107 -164.5 266.5t143 233t469 74.5t475.5 0q-1 -19 -3.5 -51t-3.5 -50q-58 -4 -221 -4l-196 -1297h-133z" />
    <glyph glyph-name="periodcentered" unicode="&#xb7;" horiz-adv-x="397" 
d="M255 665.5q26 -23.5 26 -72t-32.5 -78t-73.5 -29.5t-68 25t-27 72t34 76.5t74.5 29.5t66.5 -23.5z" />
    <glyph glyph-name="cedilla" unicode="&#xb8;" horiz-adv-x="1305" 
d="M499 -326l130 -12q97 0 97 58t-134 58h-23l73 221h66l-35 -109q75 0 121.5 -39.5t46.5 -104t-51.5 -96t-139.5 -31.5t-154 41q-9 5 -9 9.5t12 4.5z" />
    <glyph glyph-name="onesuperior" unicode="&#xb9;" horiz-adv-x="543" 
d="M280 82l-1 -5q0 -18 27.5 -31.5t53.5 -14.5l-2 -31h-319l3 31q1 0 11 2t18 3.5t20 5.5t21 8q21 11 27 29q122 488 131 518q-32 -20 -123 -59l-29 40q98 41 165 81.5t91 53.5h53z" />
    <glyph glyph-name="ordmasculine" unicode="&#xba;" horiz-adv-x="610" 
d="M90 888.5q-64 57.5 -64 142t49.5 153.5t125 107t161 38t154 -57t68.5 -145q0 -125 -100 -210.5t-237 -85.5q-93 0 -157 57.5zM218 905q25 -24 66.5 -24t73.5 24t49 63q33 74 33 152.5t-29 119t-81.5 40.5t-104.5 -69t-52 -166.5t45 -139.5z" />
    <glyph glyph-name="guillemotright" unicode="&#xbb;" horiz-adv-x="599" 
d="M98 -7l-77 75q257 250 294 268h-2q-104 112 -256 238l67 79q60 -43 144 -125t138 -142l53 -61q0 -2 -25 -24q-108 -93 -336 -308zM361 -7l-77 75q250 241 284 258h-2q-80 106 -226 248l67 79q107 -86 256 -275l49 -63q0 -2 -25 -23q-98 -82 -326 -299z" />
    <glyph glyph-name="onequarter" unicode="&#xbc;" horiz-adv-x="1666" 
d="M421 786l-1 -5q0 -18 27.5 -31.5t53.5 -14.5l-2 -31h-319l3 31q1 0 11 2t18 3.5t20 5.5t21 8q21 11 27 29q122 488 131 518q-32 -20 -123 -59l-29 40q98 41 165 81.5t91 53.5h53zM1275 233l-35 -152q4 -20 37 -32.5t68 -14.5l-3 -34h-363l3 34q13 0 47 9q53 14 67 32
l37 158h-271l-12 44l488 440h48l-98 -434h64q22 0 48.5 37t36.5 73h27l-56 -279h-27q0 31 -8 73.5t-27 45.5h-71zM192 -143l1078 1642l156 -55l-1187 -1619zM1208 537l-268 -254h206z" />
    <glyph glyph-name="onehalf" unicode="&#xbd;" horiz-adv-x="1719" 
d="M421 786l-1 -5q0 -18 27.5 -31.5t53.5 -14.5l-2 -31h-319l3 31q1 0 11 2t18 3.5t20 5.5t21 8q21 11 27 29q122 488 131 518q-32 -20 -123 -59l-29 40q98 41 165 81.5t91 53.5h53zM192 -143l1078 1642l156 -55l-1187 -1619zM1023 508l-52 25q37 88 111.5 143t147 55
t123.5 -18t90.5 -63t39.5 -93t-9 -79.5t-20 -56t-36 -54t-41 -47t-52 -47t-51.5 -41.5t-57.5 -42.5t-54 -39.5q156 0 240 -9q27 16 43.5 50.5t25.5 55t10 22.5l34 -5l-89 -265q-24 3 -82 11q-239 36 -378 -2l-23 41l33 20q164 103 248.5 213t84.5 188t-32 120t-85 42
t-98.5 -33.5t-70.5 -90.5z" />
    <glyph glyph-name="threequarters" unicode="&#xbe;" horiz-adv-x="1733" 
d="M1312 233l-35 -152q4 -20 37 -32.5t68 -14.5l-3 -34h-363l3 34q13 0 47 9q53 14 67 32l37 158h-271l-12 44l488 440h48l-98 -434h64q22 0 48.5 37t36.5 73h27l-56 -279h-27q0 31 -8 73.5t-27 45.5h-71zM229 -143l1078 1642l156 -55l-1187 -1619zM1245 537l-268 -254h206z
M521 1271q0 61 -90 61q-54 0 -103.5 -37t-73.5 -88l-50 26q48 90 125.5 144.5t173.5 54.5q55 0 96.5 -39t41.5 -108.5t-40.5 -117t-102.5 -64.5q58 -10 92 -50t34 -111t-50 -134q-96 -121 -267 -121q-115 0 -178 65q-36 37 -36 84.5t27.5 74t60 26.5t48.5 -17.5t16 -40.5
q0 -61 -78 -61q29 -70 108.5 -70t135 47.5t55.5 114t-40.5 101t-102.5 34.5l-50 -2l30 70q74 0 146 44t72 114z" />
    <glyph glyph-name="questiondown" unicode="&#xbf;" horiz-adv-x="750" 
d="M652 1056l59 -8q-33 -138 -122 -240q-39 -44 -82 -86.5t-82.5 -83t-72.5 -84.5q-70 -95 -70 -215t58.5 -177t133.5 -57t134.5 32.5t100 102t40.5 153t-29 164.5l54 18q56 -108 56 -218q0 -159 -113 -265.5t-293 -106.5q-112 0 -215 78q-50 38 -82 103t-32 142t20 139
t56 109t80.5 88t98 84.5t104.5 87.5q120 104 198 240zM646 1246.5q-26 23.5 -26 72t32.5 78t73.5 29.5t68 -25t27 -72t-34 -76.5t-74.5 -29.5t-66.5 23.5z" />
    <glyph glyph-name="Agrave" unicode="&#xc0;" horiz-adv-x="1786" 
d="M1110 20l29 50q40 -23 81 -23q79 0 144 85t109 226h-656l-82 -122q-91 -135 -208 -197t-261 -62t-210.5 55t-66.5 116.5t36.5 99t91 37.5t80.5 -34.5t26 -92t-54 -86.5q3 -10 22.5 -19.5t54 -9.5t66.5 8.5t74 37.5t88 87q99 125 247 381.5t288.5 427t335.5 305.5
q-58 38 -142 61t-188.5 23t-218 -37.5t-192 -101.5t-132.5 -151q-105 -167 -105 -390q0 -153 52 -301l-65 -31q-112 181 -112 384q0 137 54 262t151.5 222t247.5 154.5t329 57.5q130 0 186 -18l72 -22q36 -11 85 -40.5t50 -30.5q96 45 165 58.5t160 13.5l25 -47
q-159 0 -287 -76q119 -104 177 -266t58 -355.5t-55 -368t-146.5 -276.5t-198.5 -102t-205 108zM1417 1234q-168 -125 -275 -291q-93 -143 -172.5 -299t-116.5 -222h638q47 188 47 374q0 308 -121 438zM1452 1532h-53q-75 77 -253 245l-60 56h170q8 -12 196 -301z" />
    <glyph glyph-name="Aacute" unicode="&#xc1;" horiz-adv-x="1786" 
d="M1110 20l29 50q40 -23 81 -23q79 0 144 85t109 226h-656l-82 -122q-91 -135 -208 -197t-261 -62t-210.5 55t-66.5 116.5t36.5 99t91 37.5t80.5 -34.5t26 -92t-54 -86.5q3 -10 22.5 -19.5t54 -9.5t66.5 8.5t74 37.5t88 87q99 125 247 381.5t288.5 427t335.5 305.5
q-58 38 -142 61t-188.5 23t-218 -37.5t-192 -101.5t-132.5 -151q-105 -167 -105 -390q0 -153 52 -301l-65 -31q-112 181 -112 384q0 137 54 262t151.5 222t247.5 154.5t329 57.5q130 0 186 -18l72 -22q36 -11 85 -40.5t50 -30.5q96 45 165 58.5t160 13.5l25 -47
q-159 0 -287 -76q119 -104 177 -266t58 -355.5t-55 -368t-146.5 -276.5t-198.5 -102t-205 108zM1417 1234q-168 -125 -275 -291q-93 -143 -172.5 -299t-116.5 -222h638q47 188 47 374q0 308 -121 438zM1397 1532h-54q40 57 158 245l35 56h170q-14 -14 -79 -81
q-165 -170 -230 -220z" />
    <glyph glyph-name="Acircumflex" unicode="&#xc2;" horiz-adv-x="1786" 
d="M1110 20l29 50q40 -23 81 -23q79 0 144 85t109 226h-656l-82 -122q-91 -135 -208 -197t-261 -62t-210.5 55t-66.5 116.5t36.5 99t91 37.5t80.5 -34.5t26 -92t-54 -86.5q3 -10 22.5 -19.5t54 -9.5t66.5 8.5t74 37.5t88 87q99 125 247 381.5t288.5 427t335.5 305.5
q-58 38 -142 61t-188.5 23t-218 -37.5t-192 -101.5t-132.5 -151q-105 -167 -105 -390q0 -153 52 -301l-65 -31q-112 181 -112 384q0 137 54 262t151.5 222t247.5 154.5t329 57.5q130 0 186 -18l72 -22q36 -11 85 -40.5t50 -30.5q96 45 165 58.5t160 13.5l25 -47
q-159 0 -287 -76q119 -104 177 -266t58 -355.5t-55 -368t-146.5 -276.5t-198.5 -102t-205 108zM1417 1234q-168 -125 -275 -291q-93 -143 -172.5 -299t-116.5 -222h638q47 188 47 374q0 308 -121 438zM1430 1832h53l200 -301h-170l-64 261l-175 -261h-170z" />
    <glyph glyph-name="Atilde" unicode="&#xc3;" horiz-adv-x="1786" 
d="M1110 20l29 50q40 -23 81 -23q79 0 144 85t109 226h-656l-82 -122q-91 -135 -208 -197t-261 -62t-210.5 55t-66.5 116.5t36.5 99t91 37.5t80.5 -34.5t26 -92t-54 -86.5q3 -10 22.5 -19.5t54 -9.5t66.5 8.5t74 37.5t88 87q99 125 247 381.5t288.5 427t335.5 305.5
q-58 38 -142 61t-188.5 23t-218 -37.5t-192 -101.5t-132.5 -151q-105 -167 -105 -390q0 -153 52 -301l-65 -31q-112 181 -112 384q0 137 54 262t151.5 222t247.5 154.5t329 57.5q130 0 186 -18l72 -22q36 -11 85 -40.5t50 -30.5q96 45 165 58.5t160 13.5l25 -47
q-159 0 -287 -76q119 -104 177 -266t58 -355.5t-55 -368t-146.5 -276.5t-198.5 -102t-205 108zM1417 1234q-168 -125 -275 -291q-93 -143 -172.5 -299t-116.5 -222h638q47 188 47 374q0 308 -121 438zM1401 1587.5q-91 34.5 -138.5 34.5t-87.5 -35l-10 11q19 52 67.5 90
t101.5 38t149.5 -36t134 -36t64 18.5t33.5 19.5l10 -10q-8 -47 -72 -88t-112.5 -41t-139.5 34.5z" />
    <glyph glyph-name="Adieresis" unicode="&#xc4;" horiz-adv-x="1786" 
d="M1110 20l29 50q40 -23 81 -23q79 0 144 85t109 226h-656l-82 -122q-91 -135 -208 -197t-261 -62t-210.5 55t-66.5 116.5t36.5 99t91 37.5t80.5 -34.5t26 -92t-54 -86.5q3 -10 22.5 -19.5t54 -9.5t66.5 8.5t74 37.5t88 87q99 125 247 381.5t288.5 427t335.5 305.5
q-58 38 -142 61t-188.5 23t-218 -37.5t-192 -101.5t-132.5 -151q-105 -167 -105 -390q0 -153 52 -301l-65 -31q-112 181 -112 384q0 137 54 262t151.5 222t247.5 154.5t329 57.5q130 0 186 -18l72 -22q36 -11 85 -40.5t50 -30.5q96 45 165 58.5t160 13.5l25 -47
q-159 0 -287 -76q119 -104 177 -266t58 -355.5t-55 -368t-146.5 -276.5t-198.5 -102t-205 108zM1417 1234q-168 -125 -275 -291q-93 -143 -172.5 -299t-116.5 -222h638q47 188 47 374q0 308 -121 438zM1333 1710.5q26 -23.5 26 -71.5t-33 -77.5t-73.5 -29.5t-67.5 24.5
t-27 72t33.5 76.5t74.5 29t67 -23.5zM1695 1710.5q26 -23.5 26 -71.5t-33 -77.5t-73.5 -29.5t-67.5 24.5t-27 71.5t34 76.5t74.5 29.5t66.5 -23.5z" />
    <glyph glyph-name="Aring" unicode="&#xc5;" horiz-adv-x="1786" 
d="M1110 20l29 50q40 -23 81 -23q79 0 144 85t109 226h-656l-82 -122q-91 -135 -208 -197t-261 -62t-210.5 55t-66.5 116.5t36.5 99t91 37.5t80.5 -34.5t26 -92t-54 -86.5q3 -10 22.5 -19.5t54 -9.5t66.5 8.5t74 37.5t88 87q99 125 247 381.5t288.5 427t335.5 305.5
q-58 38 -142 61t-188.5 23t-218 -37.5t-192 -101.5t-132.5 -151q-105 -167 -105 -390q0 -153 52 -301l-65 -31q-112 181 -112 384q0 137 54 262t151.5 222t247.5 154.5t329 57.5q130 0 186 -18l72 -22q36 -11 85 -40.5t50 -30.5q96 45 165 58.5t160 13.5l25 -47
q-159 0 -287 -76q119 -104 177 -266t58 -355.5t-55 -368t-146.5 -276.5t-198.5 -102t-205 108zM1417 1234q-168 -125 -275 -291q-93 -143 -172.5 -299t-116.5 -222h638q47 188 47 374q0 308 -121 438zM1508 1634q37 35 37 91t-29 84t-74 28t-82.5 -35t-37.5 -90.5t30 -84
t74.5 -28.5t81.5 35zM1567 1854.5q48 -43.5 48 -130.5t-57 -137.5t-131 -50.5t-125.5 44.5t-51.5 128.5t60 136.5t134.5 52.5t122.5 -43.5z" />
    <glyph glyph-name="AE" unicode="&#xc6;" horiz-adv-x="2698" 
d="M2334 928q53 0 53 -36t-55 -36q-146 0 -272 -40t-210.5 -106.5t-132.5 -153t-48 -179.5q0 -130 109 -214.5t325 -84.5q247 0 370 118q64 62 64 160.5t-65 155.5t-166.5 57t-201 -40t-157.5 -107l-55 49q58 74 172 119t208 45t151.5 -17t104.5 -50q101 -72 107 -222
q-4 -90 -54 -162t-131 -117q-167 -92 -392 -92q-140 0 -265.5 49t-202.5 140q-57 -118 -132.5 -185t-157.5 -67q-112 0 -210 108l29 50q40 -23 81 -23q79 0 144 85t109 226h-656l-82 -122q-91 -135 -208 -197t-261 -62t-210.5 55t-66.5 116.5t36.5 99t91 37.5t80.5 -34.5
t26 -92t-54 -86.5q3 -10 22.5 -19.5t54 -9.5t66.5 8.5t74 37.5t88 87q99 125 247 381.5t288.5 427t335.5 305.5q-59 38 -143 63t-156 25q-165 0 -302 -54.5t-226 -145.5q-185 -191 -185 -451q0 -177 84 -338l-47 -29q-117 183 -117 388q0 222 136 399q144 187 367 257
q120 38 212 38t136 -3.5t82 -12t63 -14.5t55.5 -20.5t41.5 -19.5q35 -17 71 -41q96 45 165 58.5t160 13.5l25 -47q-159 0 -287 -76q211 -215 221 -592q55 88 170.5 141.5t245.5 73.5q-111 38 -160 101t-49 131q0 122 134.5 214.5t338.5 92.5q187 0 312 -100q93 -74 97 -195
q0 -56 -33 -84.5t-79 -28.5t-78.5 25.5t-32.5 59.5t12 53.5t26.5 29t34.5 14.5q27 7 44 7q-32 66 -113.5 105.5t-189.5 39.5t-196.5 -61.5t-88.5 -167.5q0 -114 78 -179q44 -36 104 -36zM1397 1234q-168 -125 -275 -291q-93 -143 -172.5 -299t-116.5 -222h638q47 188 47 374
q0 308 -121 438z" />
    <glyph glyph-name="Ccedilla" unicode="&#xc7;" horiz-adv-x="1214" 
d="M1034 301l48 -45q-227 -295 -547 -295q-209 0 -353 135q-70 65 -110.5 166t-40.5 231t49 270.5t136 260.5t199 214.5t247 149t284 54.5t258 -95t109 -266q0 -101 -46.5 -212.5t-120 -202t-173.5 -149.5t-199 -59t-157 64t-58 149q0 146 121.5 282.5t312.5 201.5l23 -53
q-96 -32 -181 -107t-132.5 -160.5t-47.5 -148.5q0 -131 146 -131q102 0 204.5 90t164 211.5t61.5 234t-76 184t-202 71.5t-259 -76t-235.5 -195t-168 -273.5t-65.5 -303.5q0 -241 161 -354q94 -66 213.5 -66t235.5 58.5t199 164.5zM361 -325l130 -12q97 0 97 58t-134 58h-23
l73 221h66l-35 -109q75 0 121.5 -39.5t46.5 -104t-51.5 -96t-139.5 -31.5t-154 41q-9 5 -9 9.5t12 4.5z" />
    <glyph glyph-name="Egrave" unicode="&#xc8;" horiz-adv-x="1369" 
d="M1005 928q53 0 53 -36t-55 -36q-144 0 -271.5 -45t-211.5 -115t-132 -154t-48 -165q0 -130 109 -214.5t325 -84.5q247 0 370 118q64 62 64 160.5t-65 155.5t-166.5 57t-201 -40t-157.5 -107l-55 49q58 74 172 119t208 45t151.5 -17t104.5 -50q101 -72 107 -222
q-4 -90 -54 -162t-132 -117q-166 -92 -391 -92q-241 0 -425 112q-88 54 -141 140.5t-53 192.5q0 376 658 483q-111 38 -160 101t-49 131q0 122 134.5 214.5t338.5 92.5q187 0 312 -100q93 -74 97 -195q0 -56 -33 -84.5t-79 -28.5t-78.5 25.5t-32.5 59.5t12 53.5t26.5 29
t33.5 14.5q28 7 45 7q-32 66 -113.5 105.5t-189.5 39.5t-196.5 -61.5t-88.5 -167.5q0 -114 79 -179q43 -36 103 -36zM1156 1532h-53q-75 77 -253 245l-60 56h170q8 -12 196 -301z" />
    <glyph glyph-name="Eacute" unicode="&#xc9;" horiz-adv-x="1369" 
d="M1005 928q53 0 53 -36t-55 -36q-144 0 -271.5 -45t-211.5 -115t-132 -154t-48 -165q0 -130 109 -214.5t325 -84.5q247 0 370 118q64 62 64 160.5t-65 155.5t-166.5 57t-201 -40t-157.5 -107l-55 49q58 74 172 119t208 45t151.5 -17t104.5 -50q101 -72 107 -222
q-4 -90 -54 -162t-132 -117q-166 -92 -391 -92q-241 0 -425 112q-88 54 -141 140.5t-53 192.5q0 376 658 483q-111 38 -160 101t-49 131q0 122 134.5 214.5t338.5 92.5q187 0 312 -100q93 -74 97 -195q0 -56 -33 -84.5t-79 -28.5t-78.5 25.5t-32.5 59.5t12 53.5t26.5 29
t33.5 14.5q28 7 45 7q-32 66 -113.5 105.5t-189.5 39.5t-196.5 -61.5t-88.5 -167.5q0 -114 79 -179q43 -36 103 -36zM1101 1532h-54q40 57 158 245l35 56h170q-14 -14 -79 -81q-165 -170 -230 -220z" />
    <glyph glyph-name="Ecircumflex" unicode="&#xca;" horiz-adv-x="1369" 
d="M1005 928q53 0 53 -36t-55 -36q-144 0 -271.5 -45t-211.5 -115t-132 -154t-48 -165q0 -130 109 -214.5t325 -84.5q247 0 370 118q64 62 64 160.5t-65 155.5t-166.5 57t-201 -40t-157.5 -107l-55 49q58 74 172 119t208 45t151.5 -17t104.5 -50q101 -72 107 -222
q-4 -90 -54 -162t-132 -117q-166 -92 -391 -92q-241 0 -425 112q-88 54 -141 140.5t-53 192.5q0 376 658 483q-111 38 -160 101t-49 131q0 122 134.5 214.5t338.5 92.5q187 0 312 -100q93 -74 97 -195q0 -56 -33 -84.5t-79 -28.5t-78.5 25.5t-32.5 59.5t12 53.5t26.5 29
t33.5 14.5q28 7 45 7q-32 66 -113.5 105.5t-189.5 39.5t-196.5 -61.5t-88.5 -167.5q0 -114 79 -179q43 -36 103 -36zM1134 1832h53l200 -301h-170l-64 261l-175 -261h-170z" />
    <glyph glyph-name="Edieresis" unicode="&#xcb;" horiz-adv-x="1369" 
d="M1005 928q53 0 53 -36t-55 -36q-144 0 -271.5 -45t-211.5 -115t-132 -154t-48 -165q0 -130 109 -214.5t325 -84.5q247 0 370 118q64 62 64 160.5t-65 155.5t-166.5 57t-201 -40t-157.5 -107l-55 49q58 74 172 119t208 45t151.5 -17t104.5 -50q101 -72 107 -222
q-4 -90 -54 -162t-132 -117q-166 -92 -391 -92q-241 0 -425 112q-88 54 -141 140.5t-53 192.5q0 376 658 483q-111 38 -160 101t-49 131q0 122 134.5 214.5t338.5 92.5q187 0 312 -100q93 -74 97 -195q0 -56 -33 -84.5t-79 -28.5t-78.5 25.5t-32.5 59.5t12 53.5t26.5 29
t33.5 14.5q28 7 45 7q-32 66 -113.5 105.5t-189.5 39.5t-196.5 -61.5t-88.5 -167.5q0 -114 79 -179q43 -36 103 -36zM1037 1710.5q26 -23.5 26 -71.5t-33 -77.5t-73.5 -29.5t-67.5 24.5t-27 72t33.5 76.5t74.5 29t67 -23.5zM1399 1710.5q26 -23.5 26 -71.5t-33 -77.5
t-73.5 -29.5t-67.5 24.5t-27 71.5t34 76.5t74.5 29.5t66.5 -23.5z" />
    <glyph glyph-name="Igrave" unicode="&#xcc;" horiz-adv-x="1323" 
d="M1518 1376q-291 -301 -297 -657h190v-76h-194q-29 -396 -366 -575q-195 -103 -427 -103t-345.5 83t-113.5 203.5t102 206t285 85.5q43 0 68 -2q-68 148 -68 308t88.5 298.5t245 216.5t350.5 78q82 0 241.5 -33t240.5 -33zM1045 719q30 280 243 530q-153 64 -323 64
q-246 0 -393.5 -132t-147.5 -343q0 -147 80 -306l237 -67l-20 -62q-105 35 -180 50q22 -43 86 -138l-68 -22l-104 172q-44 6 -82 6q-145 0 -220 -59.5t-75 -149.5t86 -159.5t223.5 -69.5t243 31.5t190.5 101.5q173 143 217 479h-215v74h222zM1252 1506h-53q-75 77 -253 245
l-60 56h170q8 -12 196 -301z" />
    <glyph glyph-name="Iacute" unicode="&#xcd;" horiz-adv-x="1323" 
d="M1518 1376q-291 -301 -297 -657h190v-76h-194q-29 -396 -366 -575q-195 -103 -427 -103t-345.5 83t-113.5 203.5t102 206t285 85.5q43 0 68 -2q-68 148 -68 308t88.5 298.5t245 216.5t350.5 78q82 0 241.5 -33t240.5 -33zM1045 719q30 280 243 530q-153 64 -323 64
q-246 0 -393.5 -132t-147.5 -343q0 -147 80 -306l237 -67l-20 -62q-105 35 -180 50q22 -43 86 -138l-68 -22l-104 172q-44 6 -82 6q-145 0 -220 -59.5t-75 -149.5t86 -159.5t223.5 -69.5t243 31.5t190.5 101.5q173 143 217 479h-215v74h222zM1197 1506h-54q41 57 158 245
l35 56h170q-14 -14 -79 -81q-165 -170 -230 -220z" />
    <glyph glyph-name="Icircumflex" unicode="&#xce;" horiz-adv-x="1323" 
d="M1518 1376q-291 -301 -297 -657h190v-76h-194q-29 -396 -366 -575q-195 -103 -427 -103t-345.5 83t-113.5 203.5t102 206t285 85.5q43 0 68 -2q-68 148 -68 308t88.5 298.5t245 216.5t350.5 78q82 0 241.5 -33t240.5 -33zM1045 719q30 280 243 530q-153 64 -323 64
q-246 0 -393.5 -132t-147.5 -343q0 -147 80 -306l237 -67l-20 -62q-105 35 -180 50q22 -43 86 -138l-68 -22l-104 172q-44 6 -82 6q-145 0 -220 -59.5t-75 -149.5t86 -159.5t223.5 -69.5t243 31.5t190.5 101.5q173 143 217 479h-215v74h222zM1230 1806h53l200 -301h-170
l-64 261l-175 -261h-170z" />
    <glyph glyph-name="Idieresis" unicode="&#xcf;" horiz-adv-x="1323" 
d="M1518 1376q-291 -301 -297 -657h190v-76h-194q-29 -396 -366 -575q-195 -103 -427 -103t-345.5 83t-113.5 203.5t102 206t285 85.5q43 0 68 -2q-68 148 -68 308t88.5 298.5t245 216.5t350.5 78q82 0 241.5 -33t240.5 -33zM1045 719q30 280 243 530q-153 64 -323 64
q-246 0 -393.5 -132t-147.5 -343q0 -147 80 -306l237 -67l-20 -62q-105 35 -180 50q22 -43 86 -138l-68 -22l-104 172q-44 6 -82 6q-145 0 -220 -59.5t-75 -149.5t86 -159.5t223.5 -69.5t243 31.5t190.5 101.5q173 143 217 479h-215v74h222zM1133 1684.5q26 -23.5 26 -71.5
t-33 -77.5t-73.5 -29.5t-67.5 24.5t-27 72t33.5 76.5t74.5 29t67 -23.5zM1495 1684.5q26 -23.5 26 -71.5t-33 -77.5t-73.5 -29.5t-67.5 24.5t-27 71.5t34 76.5t74.5 29.5t66.5 -23.5z" />
    <glyph glyph-name="Eth" unicode="&#xd0;" horiz-adv-x="1564" 
d="M653 698l5 111q48 17 94.5 17t130.5 -6q41 132 105 241.5t175 208.5q-95 100 -303 100q-143 0 -274 -68.5t-224 -179.5t-148.5 -256t-55.5 -282t38 -248l-102 -23q-51 136 -51 290.5t59 308.5t160 271t246 188t290 71t245 -25t186 -96q93 76 262 76l20 -62
q-161 -32 -215 -74q105 -97 159 -253.5t54 -302t-17 -243.5t-55.5 -184.5t-96.5 -147.5q-123 -133 -318 -133t-420 97q-53 -40 -150.5 -72t-182.5 -32q-171 0 -171 133q0 78 87 130.5t217.5 52.5t257.5 -62q49 63 87 145t54 135t32 115t19 72q-78 4 -120 4t-79 -17z
M1347.5 982q-44.5 134 -114.5 206q-40 -60 -60.5 -132t-39 -146.5t-26.5 -106.5q21 -1 64.5 -1t86.5 7l-5 -81q-36 -28 -67 -30t-62.5 -2t-48.5 1q-47 -139 -126 -260t-215 -227q193 -100 329 -100q138 0 210 93q74 95 97 225q22 128 22 274t-44.5 280zM535 141
q-137 57 -255.5 57t-118.5 -73q0 -62 110 -62q62 0 135.5 21.5t128.5 56.5z" />
    <glyph glyph-name="Ntilde" unicode="&#xd1;" horiz-adv-x="1614" 
d="M1522 283l51 -43q-49 -122 -129 -192.5t-159 -70.5q-47 0 -81 43t-34 120t42 229.5t92 298.5q134 391 134 553q0 118 -60.5 118t-135.5 -74t-146.5 -192t-144.5 -261t-134.5 -285.5t-110 -260.5t-78 -192t-32.5 -74h-186l104 293q188 532 188.5 804.5t-206.5 272.5
q-77 0 -142.5 -43.5t-107.5 -110t-72 -148.5q-55 -154 -55 -298q0 -273 125 -479l-39 -33q-68 109 -103.5 243.5t-35.5 241t15 196t50 181t86 162t131 115.5t160.5 45t132.5 -22t86 -59.5t57 -88.5q42 -96 42 -210t-24 -263q-30 -181 -70 -332q32 89 55.5 137.5t55 116.5
t56.5 122.5t66 132.5t77 138t83.5 124.5t92.5 106.5q104 97 196 97t138 -60.5t46 -154.5t-27 -218.5t-66 -243.5t-78 -232q-93 -269 -93 -354t29 -85t85.5 74.5t73.5 114.5zM1100 1563.5q-91 34.5 -138.5 34.5t-87.5 -35l-10 11q19 52 67.5 90t101.5 38t149.5 -36t134 -36
t64 18.5t33.5 19.5l10 -10q-8 -47 -72 -88t-112.5 -41t-139.5 34.5z" />
    <glyph glyph-name="Ograve" unicode="&#xd2;" 
d="M429.5 613.5q-67.5 83.5 -67.5 202.5t50.5 232.5t132.5 200t194 140t223 53.5t205 -33.5t166.5 -95.5t115.5 -157.5t43 -225.5t-46.5 -272.5t-133 -264t-201.5 -215.5t-262 -147.5t-303 -53.5q-252 0 -389 129.5t-137 368.5q0 263 156 487q79 113 186 186l30 -37
q-88 -106 -139 -265t-51 -288.5t22.5 -216t67.5 -155.5q98 -149 295 -149q281 0 490 300q118 170 167 391q23 105 23 200t-19.5 172.5t-59.5 138.5q-83 129 -259 129q-132 0 -241 -82t-167.5 -208.5t-58.5 -250.5t42 -177.5t109.5 -53.5t137 43.5t118.5 119.5t52 159l96 16
q0 -104 -54.5 -197.5t-147 -150t-205.5 -56.5t-180.5 83.5zM1056 1532h-53q-75 77 -253 245l-60 56h170q8 -12 196 -301z" />
    <glyph glyph-name="Oacute" unicode="&#xd3;" 
d="M429.5 613.5q-67.5 83.5 -67.5 202.5t50.5 232.5t132.5 200t194 140t223 53.5t205 -33.5t166.5 -95.5t115.5 -157.5t43 -225.5t-46.5 -272.5t-133 -264t-201.5 -215.5t-262 -147.5t-303 -53.5q-252 0 -389 129.5t-137 368.5q0 263 156 487q79 113 186 186l30 -37
q-88 -106 -139 -265t-51 -288.5t22.5 -216t67.5 -155.5q98 -149 295 -149q281 0 490 300q118 170 167 391q23 105 23 200t-19.5 172.5t-59.5 138.5q-83 129 -259 129q-132 0 -241 -82t-167.5 -208.5t-58.5 -250.5t42 -177.5t109.5 -53.5t137 43.5t118.5 119.5t52 159l96 16
q0 -104 -54.5 -197.5t-147 -150t-205.5 -56.5t-180.5 83.5zM1001 1532h-54q40 57 158 245l35 56h170q-14 -14 -79 -81q-165 -170 -230 -220z" />
    <glyph glyph-name="Ocircumflex" unicode="&#xd4;" 
d="M429.5 613.5q-67.5 83.5 -67.5 202.5t50.5 232.5t132.5 200t194 140t223 53.5t205 -33.5t166.5 -95.5t115.5 -157.5t43 -225.5t-46.5 -272.5t-133 -264t-201.5 -215.5t-262 -147.5t-303 -53.5q-252 0 -389 129.5t-137 368.5q0 263 156 487q79 113 186 186l30 -37
q-88 -106 -139 -265t-51 -288.5t22.5 -216t67.5 -155.5q98 -149 295 -149q281 0 490 300q118 170 167 391q23 105 23 200t-19.5 172.5t-59.5 138.5q-83 129 -259 129q-132 0 -241 -82t-167.5 -208.5t-58.5 -250.5t42 -177.5t109.5 -53.5t137 43.5t118.5 119.5t52 159l96 16
q0 -104 -54.5 -197.5t-147 -150t-205.5 -56.5t-180.5 83.5zM1034 1832h53l200 -301h-170l-64 261l-175 -261h-170z" />
    <glyph glyph-name="Otilde" unicode="&#xd5;" 
d="M429.5 613.5q-67.5 83.5 -67.5 202.5t50.5 232.5t132.5 200t194 140t223 53.5t205 -33.5t166.5 -95.5t115.5 -157.5t43 -225.5t-46.5 -272.5t-133 -264t-201.5 -215.5t-262 -147.5t-303 -53.5q-252 0 -389 129.5t-137 368.5q0 263 156 487q79 113 186 186l30 -37
q-88 -106 -139 -265t-51 -288.5t22.5 -216t67.5 -155.5q98 -149 295 -149q281 0 490 300q118 170 167 391q23 105 23 200t-19.5 172.5t-59.5 138.5q-83 129 -259 129q-132 0 -241 -82t-167.5 -208.5t-58.5 -250.5t42 -177.5t109.5 -53.5t137 43.5t118.5 119.5t52 159l96 16
q0 -104 -54.5 -197.5t-147 -150t-205.5 -56.5t-180.5 83.5zM1005 1587.5q-91 34.5 -138.5 34.5t-87.5 -35l-10 11q19 52 67.5 90t101.5 38t149.5 -36t134 -36t64 18.5t33.5 19.5l10 -10q-8 -47 -72 -88t-112.5 -41t-139.5 34.5z" />
    <glyph glyph-name="Odieresis" unicode="&#xd6;" 
d="M429.5 613.5q-67.5 83.5 -67.5 202.5t50.5 232.5t132.5 200t194 140t223 53.5t205 -33.5t166.5 -95.5t115.5 -157.5t43 -225.5t-46.5 -272.5t-133 -264t-201.5 -215.5t-262 -147.5t-303 -53.5q-252 0 -389 129.5t-137 368.5q0 263 156 487q79 113 186 186l30 -37
q-88 -106 -139 -265t-51 -288.5t22.5 -216t67.5 -155.5q98 -149 295 -149q281 0 490 300q118 170 167 391q23 105 23 200t-19.5 172.5t-59.5 138.5q-83 129 -259 129q-132 0 -241 -82t-167.5 -208.5t-58.5 -250.5t42 -177.5t109.5 -53.5t137 43.5t118.5 119.5t52 159l96 16
q0 -104 -54.5 -197.5t-147 -150t-205.5 -56.5t-180.5 83.5zM937 1710.5q26 -23.5 26 -71.5t-33 -77.5t-73.5 -29.5t-67.5 24.5t-27 72t33.5 76.5t74.5 29t67 -23.5zM1299 1710.5q26 -23.5 26 -71.5t-33 -77.5t-73.5 -29.5t-67.5 24.5t-27 71.5t34 76.5t74.5 29.5t66.5 -23.5
z" />
    <glyph glyph-name="multiply" unicode="&#xd7;" horiz-adv-x="713" 
d="M544 161l-151 152l-149 -152l-82 75l154 156l-154 156l82 74l149 -152l151 152l81 -74l-154 -156l154 -156z" />
    <glyph glyph-name="Oslash" unicode="&#xd8;" 
d="M152 -283l1228 2055l46 -35l-1227 -2052zM429.5 613.5q-67.5 83.5 -67.5 202.5t50.5 232.5t132.5 200t194 140t223 53.5t205 -33.5t166.5 -95.5t115.5 -157.5t43 -225.5t-46.5 -272.5t-133 -264t-201.5 -215.5t-262 -147.5t-303 -53.5q-252 0 -389 129.5t-137 368.5
q0 263 156 487q79 113 186 186l30 -37q-88 -106 -139 -265t-51 -288.5t22.5 -216t67.5 -155.5q98 -149 295 -149q281 0 490 300q118 170 167 391q23 105 23 200t-19.5 172.5t-59.5 138.5q-83 129 -259 129q-132 0 -241 -82t-167.5 -208.5t-58.5 -250.5t42 -177.5
t109.5 -53.5t137 43.5t118.5 119.5t52 159l96 16q0 -104 -54.5 -197.5t-147 -150t-205.5 -56.5t-180.5 83.5z" />
    <glyph glyph-name="Ugrave" unicode="&#xd9;" horiz-adv-x="1675" 
d="M1429 63q74 0 168 173l53 -31q-53 -112 -123.5 -171t-145 -59t-126 67t-51.5 173t18 223q25 156 63.5 311.5t40.5 162.5l9 36q-13 -31 -43.5 -107t-58 -142.5t-69.5 -158t-81.5 -166t-92 -151.5t-104.5 -129q-117 -119 -237 -119q-86 0 -132 60.5t-46 160t27 232
t59 241.5q86 293 86 486q0 102 -52.5 168t-140 66t-153 -44.5t-107.5 -113.5t-72 -154q-55 -160 -55 -307q0 -273 125 -479l-39 -33q-68 109 -103.5 243.5t-35.5 241t15 195.5t50 180t86 162t131 115.5t162.5 44.5t137.5 -22.5t90.5 -60t59.5 -88.5q44 -93 44 -206
t-24 -230.5t-54 -210.5q-77 -243 -77 -425q0 -119 60.5 -119t136 74t148.5 192t146.5 261t135.5 285q126 289 186 453l28 74h187q-297 -830 -297 -1188q0 -166 67 -166zM1221 1507h-53q-75 77 -253 245l-60 56h170q8 -12 196 -301z" />
    <glyph glyph-name="Uacute" unicode="&#xda;" horiz-adv-x="1675" 
d="M1429 63q74 0 168 173l53 -31q-53 -112 -123.5 -171t-145 -59t-126 67t-51.5 173t18 223q25 156 63.5 311.5t40.5 162.5l9 36q-13 -31 -43.5 -107t-58 -142.5t-69.5 -158t-81.5 -166t-92 -151.5t-104.5 -129q-117 -119 -237 -119q-86 0 -132 60.5t-46 160t27 232
t59 241.5q86 293 86 486q0 102 -52.5 168t-140 66t-153 -44.5t-107.5 -113.5t-72 -154q-55 -160 -55 -307q0 -273 125 -479l-39 -33q-68 109 -103.5 243.5t-35.5 241t15 195.5t50 180t86 162t131 115.5t162.5 44.5t137.5 -22.5t90.5 -60t59.5 -88.5q44 -93 44 -206
t-24 -230.5t-54 -210.5q-77 -243 -77 -425q0 -119 60.5 -119t136 74t148.5 192t146.5 261t135.5 285q126 289 186 453l28 74h187q-297 -830 -297 -1188q0 -166 67 -166zM1166 1507h-54q40 57 158 245l35 56h170q-14 -14 -79 -81q-165 -170 -230 -220z" />
    <glyph glyph-name="Ucircumflex" unicode="&#xdb;" horiz-adv-x="1675" 
d="M1429 63q74 0 168 173l53 -31q-53 -112 -123.5 -171t-145 -59t-126 67t-51.5 173t18 223q25 156 63.5 311.5t40.5 162.5l9 36q-13 -31 -43.5 -107t-58 -142.5t-69.5 -158t-81.5 -166t-92 -151.5t-104.5 -129q-117 -119 -237 -119q-86 0 -132 60.5t-46 160t27 232
t59 241.5q86 293 86 486q0 102 -52.5 168t-140 66t-153 -44.5t-107.5 -113.5t-72 -154q-55 -160 -55 -307q0 -273 125 -479l-39 -33q-68 109 -103.5 243.5t-35.5 241t15 195.5t50 180t86 162t131 115.5t162.5 44.5t137.5 -22.5t90.5 -60t59.5 -88.5q44 -93 44 -206
t-24 -230.5t-54 -210.5q-77 -243 -77 -425q0 -119 60.5 -119t136 74t148.5 192t146.5 261t135.5 285q126 289 186 453l28 74h187q-297 -830 -297 -1188q0 -166 67 -166zM1199 1807h53l200 -301h-170l-64 261l-175 -261h-170z" />
    <glyph glyph-name="Udieresis" unicode="&#xdc;" horiz-adv-x="1675" 
d="M1429 63q74 0 168 173l53 -31q-53 -112 -123.5 -171t-145 -59t-126 67t-51.5 173t18 223q25 156 63.5 311.5t40.5 162.5l9 36q-13 -31 -43.5 -107t-58 -142.5t-69.5 -158t-81.5 -166t-92 -151.5t-104.5 -129q-117 -119 -237 -119q-86 0 -132 60.5t-46 160t27 232
t59 241.5q86 293 86 486q0 102 -52.5 168t-140 66t-153 -44.5t-107.5 -113.5t-72 -154q-55 -160 -55 -307q0 -273 125 -479l-39 -33q-68 109 -103.5 243.5t-35.5 241t15 195.5t50 180t86 162t131 115.5t162.5 44.5t137.5 -22.5t90.5 -60t59.5 -88.5q44 -93 44 -206
t-24 -230.5t-54 -210.5q-77 -243 -77 -425q0 -119 60.5 -119t136 74t148.5 192t146.5 261t135.5 285q126 289 186 453l28 74h187q-297 -830 -297 -1188q0 -166 67 -166zM1102 1685.5q26 -23.5 26 -71.5t-33 -77.5t-73.5 -29.5t-67.5 24.5t-27 72t33.5 76.5t74.5 29t67 -23.5
zM1464 1685.5q26 -23.5 26 -71.5t-33 -77.5t-73.5 -29.5t-67.5 24.5t-27 71.5t34 76.5t74.5 29.5t66.5 -23.5z" />
    <glyph glyph-name="Yacute" unicode="&#xdd;" horiz-adv-x="1549" 
d="M625 211q200 -99 335 -99q222 0 278 283q8 42 21 110t21 112t21.5 107.5t25 107t29 99t36 95.5t43.5 85t53 79q62 74 141 118l42 -31q-97 -73 -153.5 -219t-71.5 -266t-26 -283t-15.5 -218t-16.5 -154.5t-26 -153.5t-39.5 -135t-58 -126t-81 -99t-108.5 -81
q-145 -67 -318 -67q-291 0 -291 158q0 52 38.5 83.5t85 31.5t77.5 -28t31 -78.5t-22 -101.5q43 -7 98 -7t110 18.5t96 49.5t74.5 81t56.5 102t43 124q29 110 56 289q-46 -111 -120.5 -156.5t-173.5 -45.5q-187 0 -426 100q-43 -40 -140 -72.5t-185 -32.5q-176 0 -176 132
q0 74 82.5 129t216.5 55t261 -62q98 80 193.5 210.5t162 287t66.5 282.5q0 195 -91 291.5t-231 96.5q-89 0 -181 -38.5t-167 -103.5t-123 -161.5t-48 -206t53 -212.5l-51 -22q-59 124 -59 254t52.5 241t137.5 183q181 152 400 152q182 0 310 -116q136 -125 136 -374
q0 -196 -144.5 -423.5t-339.5 -373.5zM425 141q-153 59 -235 59q-138 0 -138 -72q0 -65 105 -65q67 0 148.5 25t119.5 53zM1184 1507h-54q41 57 158 245l35 56h170q-14 -14 -79 -81q-165 -170 -230 -220z" />
    <glyph glyph-name="Thorn" unicode="&#xde;" horiz-adv-x="1521" 
d="M28 120q-55 71 -55 152t27 139.5t71.5 97.5t104.5 66q109 50 249 52q16 151 113 261q188 212 544 212q38 0 79 -3q91 171 201 277l76 -35q-73 -78 -152 -262q156 -42 231.5 -119.5t75.5 -159.5t-39.5 -152t-104.5 -124.5t-157 -88.5t-190 -34q-19 0 -28 1
q-81 -206 -265.5 -314.5t-450.5 -108.5q-221 0 -330 143zM81.5 384q-39.5 -52 -39.5 -113t32.5 -106t83.5 -71q105 -55 216 -55t196.5 24t139.5 64t96 101t66 127t49 149.5t45 161.5q52 196 133 339q-32 9 -97 9q-129 0 -245.5 -54.5t-187 -145.5t-70.5 -191
q139 -21 279 -115l-43 -66q-140 80 -234 80q0 -22 16 -90t37 -125l-59 -18q-24 38 -41.5 114.5t-22.5 118.5q-124 0 -249 -58q-61 -28 -100.5 -80zM1238 965q-77 -173 -147 -496q141 12 247 100.5t106 189.5q0 64 -50.5 118t-155.5 88z" />
    <glyph glyph-name="germandbls" unicode="&#xdf;" horiz-adv-x="943" 
d="M227 15l13 71q80 -57 194.5 -57t173 61.5t58.5 160t-42.5 210.5t-102 195.5t-112.5 113.5l2 9q6 4 39.5 25.5t65.5 43t73.5 60t72.5 79.5q73 99 73 217q0 63 -25 97t-64 34q-125 0 -228 -278q-88 -236 -238 -999q-38 -191 -58 -289h-177q133 915 369 1339
q161 288 359 288q91 0 158.5 -51t67.5 -143q0 -110 -89 -207q-86 -92 -224 -179q-37 -23 -38 -24q148 -80 228 -207.5t80 -259.5q0 -148 -103 -253q-107 -108 -313 -108q-124 0 -213 51z" />
    <glyph glyph-name="agrave" unicode="&#xe0;" horiz-adv-x="851" 
d="M553 582h156l-79 -299q-19 -63 -19 -114.5t18 -51.5t49.5 31.5t53.5 63.5l23 32l43 -40q-33 -64 -84 -117q-99 -103 -172 -103q-86 0 -86 133q0 22 2 33q-15 -51 -57 -90q-80 -76 -180.5 -76t-161 68.5t-60.5 171.5q0 160 104 270t244 110q70 0 116 -38.5t60 -100.5z
M386 518q-58 0 -108.5 -48.5t-77.5 -117t-27 -133.5t28.5 -105t88 -40t107.5 54q91 104 91 247t-102 143zM419 672h-53q-75 77 -253 245l-60 56h170q8 -12 196 -301z" />
    <glyph glyph-name="aacute" unicode="&#xe1;" horiz-adv-x="851" 
d="M553 582h156l-79 -299q-19 -63 -19 -114.5t18 -51.5t49.5 31.5t53.5 63.5l23 32l43 -40q-33 -64 -84 -117q-99 -103 -172 -103q-86 0 -86 133q0 22 2 33q-15 -51 -57 -90q-80 -76 -180.5 -76t-161 68.5t-60.5 171.5q0 160 104 270t244 110q70 0 116 -38.5t60 -100.5z
M386 518q-58 0 -108.5 -48.5t-77.5 -117t-27 -133.5t28.5 -105t88 -40t107.5 54q91 104 91 247t-102 143zM364 672h-54q41 57 158 245l35 56h170q-14 -14 -79 -81q-165 -170 -230 -220z" />
    <glyph glyph-name="acircumflex" unicode="&#xe2;" horiz-adv-x="851" 
d="M553 582h156l-79 -299q-19 -63 -19 -114.5t18 -51.5t49.5 31.5t53.5 63.5l23 32l43 -40q-33 -64 -84 -117q-99 -103 -172 -103q-86 0 -86 133q0 22 2 33q-15 -51 -57 -90q-80 -76 -180.5 -76t-161 68.5t-60.5 171.5q0 160 104 270t244 110q70 0 116 -38.5t60 -100.5z
M386 518q-58 0 -108.5 -48.5t-77.5 -117t-27 -133.5t28.5 -105t88 -40t107.5 54q91 104 91 247t-102 143zM397 972h53l200 -301h-170l-64 261l-175 -261h-170z" />
    <glyph glyph-name="atilde" unicode="&#xe3;" horiz-adv-x="851" 
d="M553 582h156l-79 -299q-19 -63 -19 -114.5t18 -51.5t49.5 31.5t53.5 63.5l23 32l43 -40q-33 -64 -84 -117q-99 -103 -172 -103q-86 0 -86 133q0 22 2 33q-15 -51 -57 -90q-80 -76 -180.5 -76t-161 68.5t-60.5 171.5q0 160 104 270t244 110q70 0 116 -38.5t60 -100.5z
M386 518q-58 0 -108.5 -48.5t-77.5 -117t-27 -133.5t28.5 -105t88 -40t107.5 54q91 104 91 247t-102 143zM368 727.5q-91 34.5 -138.5 34.5t-87.5 -35l-10 11q19 52 67.5 90t101.5 38t149.5 -36t134 -36t64 18.5t33.5 19.5l10 -10q-8 -47 -72 -88t-112.5 -41t-139.5 34.5z
" />
    <glyph glyph-name="adieresis" unicode="&#xe4;" horiz-adv-x="851" 
d="M553 582h156l-79 -299q-19 -63 -19 -114.5t18 -51.5t49.5 31.5t53.5 63.5l23 32l43 -40q-33 -64 -84 -117q-99 -103 -172 -103q-86 0 -86 133q0 22 2 33q-15 -51 -57 -90q-80 -76 -180.5 -76t-161 68.5t-60.5 171.5q0 160 104 270t244 110q70 0 116 -38.5t60 -100.5z
M386 518q-58 0 -108.5 -48.5t-77.5 -117t-27 -133.5t28.5 -105t88 -40t107.5 54q91 104 91 247t-102 143zM300 850.5q26 -23.5 26 -71.5t-33 -77.5t-73.5 -29.5t-67.5 24.5t-27 72t33.5 76.5t74.5 29t67 -23.5zM662 850.5q26 -23.5 26 -71.5t-33 -77.5t-73.5 -29.5
t-67.5 24.5t-27 71.5t34 76.5t74.5 29.5t66.5 -23.5z" />
    <glyph glyph-name="aring" unicode="&#xe5;" horiz-adv-x="851" 
d="M553 582h156l-79 -299q-19 -63 -19 -114.5t18 -51.5t49.5 31.5t53.5 63.5l23 32l43 -40q-33 -64 -84 -117q-99 -103 -172 -103q-86 0 -86 133q0 22 2 33q-15 -51 -57 -90q-80 -76 -180.5 -76t-161 68.5t-60.5 171.5q0 160 104 270t244 110q70 0 116 -38.5t60 -100.5z
M386 518q-58 0 -108.5 -48.5t-77.5 -117t-27 -133.5t28.5 -105t88 -40t107.5 54q91 104 91 247t-102 143zM538 774q37 35 37 91t-29 84t-74 28t-82.5 -35t-37.5 -90.5t30 -84t74.5 -28.5t81.5 35zM597 994.5q48 -43.5 48 -130.5t-57 -137.5t-131 -50.5t-125.5 44.5
t-51.5 128.5t60 136.5t134.5 52.5t122.5 -43.5z" />
    <glyph glyph-name="ae" unicode="&#xe6;" horiz-adv-x="1237" 
d="M715 197q6 -115 155 -115q55 0 114.5 31.5t96.5 74.5l43 -28q-65 -115 -176 -153q-90 -30 -166 -30q-119 0 -188 111l-26 -91h-110l30 100q-103 -120 -260 -120q-97 0 -162.5 75.5t-65.5 182.5t54 192t139.5 131t163.5 46t133 -34.5t81 -84.5l33 107h116l-42 -118
q27 44 114.5 87.5t170.5 43.5t142 -43.5t60.5 -113.5t-41.5 -121.5t-110 -78.5q-130 -53 -256 -53zM242 435.5q-61 -82.5 -61 -177.5q0 -184 124 -184q49 0 91.5 32t67.5 79q52 101 52 184q0 149 -122 149q-91 0 -152 -82.5zM709 252q111 4 178.5 35.5t94 72t26.5 85t-23 66
t-49 21.5q-64 0 -117.5 -44.5t-81.5 -108t-28 -127.5z" />
    <glyph glyph-name="ccedilla" unicode="&#xe7;" horiz-adv-x="671" 
d="M520 207l41 -29q-44 -89 -135.5 -141.5t-191.5 -52.5t-168.5 61t-68.5 172.5t68.5 201.5t168.5 137.5t202 47.5q125 0 168 -60q18 -24 18 -60.5t-25 -61.5t-60 -25t-59 22.5t-24 57.5t43 64q-38 12 -70 12q-69 0 -127 -51t-88 -123.5t-30 -142.5t33.5 -112.5t96.5 -42.5
t121 35.5t87 90.5zM63 -325l130 -12q97 0 97 58t-134 58h-23l73 221h66l-35 -109q75 0 121.5 -39.5t46.5 -104t-51.5 -96t-139.5 -31.5t-154 41q-9 5 -9 9.5t12 4.5z" />
    <glyph glyph-name="egrave" unicode="&#xe8;" horiz-adv-x="706" 
d="M184 197q6 -115 155 -115q55 0 114.5 31.5t96.5 74.5l43 -28q-83 -139 -265 -170q-40 -6 -77 -6q-108 0 -180 71.5t-72 174.5t63 190.5t157.5 135.5t186.5 48t159.5 -42t69 -113t-41.5 -122.5t-109 -78.5q-131 -53 -257 -53zM178 252q111 4 178.5 35.5t94 72t26.5 85
t-23 66t-49 21.5q-64 0 -117.5 -44.5t-81.5 -108t-28 -127.5zM466 672h-53q-75 77 -253 245l-60 56h170q8 -12 196 -301z" />
    <glyph glyph-name="eacute" unicode="&#xe9;" horiz-adv-x="706" 
d="M184 197q6 -115 155 -115q55 0 114.5 31.5t96.5 74.5l43 -28q-83 -139 -265 -170q-40 -6 -77 -6q-108 0 -180 71.5t-72 174.5t63 190.5t157.5 135.5t186.5 48t159.5 -42t69 -113t-41.5 -122.5t-109 -78.5q-131 -53 -257 -53zM178 252q111 4 178.5 35.5t94 72t26.5 85
t-23 66t-49 21.5q-64 0 -117.5 -44.5t-81.5 -108t-28 -127.5zM411 672h-54q40 57 158 245l35 56h170q-14 -14 -79 -81q-165 -170 -230 -220z" />
    <glyph glyph-name="ecircumflex" unicode="&#xea;" horiz-adv-x="706" 
d="M184 197q6 -115 155 -115q55 0 114.5 31.5t96.5 74.5l43 -28q-83 -139 -265 -170q-40 -6 -77 -6q-108 0 -180 71.5t-72 174.5t63 190.5t157.5 135.5t186.5 48t159.5 -42t69 -113t-41.5 -122.5t-109 -78.5q-131 -53 -257 -53zM178 252q111 4 178.5 35.5t94 72t26.5 85
t-23 66t-49 21.5q-64 0 -117.5 -44.5t-81.5 -108t-28 -127.5zM444 972h53l200 -301h-170l-64 261l-175 -261h-170z" />
    <glyph glyph-name="edieresis" unicode="&#xeb;" horiz-adv-x="706" 
d="M184 197q6 -115 155 -115q55 0 114.5 31.5t96.5 74.5l43 -28q-83 -139 -265 -170q-40 -6 -77 -6q-108 0 -180 71.5t-72 174.5t63 190.5t157.5 135.5t186.5 48t159.5 -42t69 -113t-41.5 -122.5t-109 -78.5q-131 -53 -257 -53zM178 252q111 4 178.5 35.5t94 72t26.5 85
t-23 66t-49 21.5q-64 0 -117.5 -44.5t-81.5 -108t-28 -127.5zM347 850.5q26 -23.5 26 -71.5t-33 -77.5t-73.5 -29.5t-67.5 24.5t-27 72t33.5 76.5t74.5 29t67 -23.5zM709 850.5q26 -23.5 26 -71.5t-33 -77.5t-73.5 -29.5t-67.5 24.5t-27 71.5t34 76.5t74.5 29.5t66.5 -23.5z
" />
    <glyph glyph-name="igrave" unicode="&#xec;" horiz-adv-x="428" 
d="M112 10q-24 26 -24 71.5t23.5 124t47 142.5t23.5 85.5t-14 21.5q-35 0 -113 -138l-67 39q147 248 270 248q84 0 84 -106q0 -31 -20 -99l-72 -206q-11 -29 -11 -52.5t18 -23.5q34 0 125 126l42 -39q-54 -100 -128.5 -160t-117 -60t-66.5 26zM280 672h-53q-75 77 -253 245
l-60 56h170q8 -12 196 -301z" />
    <glyph glyph-name="iacute" unicode="&#xed;" horiz-adv-x="428" 
d="M112 10q-24 26 -24 71.5t23.5 124t47 142.5t23.5 85.5t-14 21.5q-35 0 -113 -138l-67 39q147 248 270 248q84 0 84 -106q0 -31 -20 -99l-72 -206q-11 -29 -11 -52.5t18 -23.5q34 0 125 126l42 -39q-54 -100 -128.5 -160t-117 -60t-66.5 26zM225 672h-54q41 57 158 245
l35 56h170q-14 -14 -79 -81q-165 -170 -230 -220z" />
    <glyph glyph-name="icircumflex" unicode="&#xee;" horiz-adv-x="428" 
d="M112 10q-24 26 -24 71.5t23.5 124t47 142.5t23.5 85.5t-14 21.5q-35 0 -113 -138l-67 39q147 248 270 248q84 0 84 -106q0 -31 -20 -99l-72 -206q-11 -29 -11 -52.5t18 -23.5q34 0 125 126l42 -39q-54 -100 -128.5 -160t-117 -60t-66.5 26zM258 972h53l200 -301h-170
l-64 261l-175 -261h-170z" />
    <glyph glyph-name="idieresis" unicode="&#xef;" horiz-adv-x="428" 
d="M112 10q-24 26 -24 71.5t23.5 124t47 142.5t23.5 85.5t-14 21.5q-35 0 -113 -138l-67 39q147 248 270 248q84 0 84 -106q0 -31 -20 -99l-72 -206q-11 -29 -11 -52.5t18 -23.5q34 0 125 126l42 -39q-54 -100 -128.5 -160t-117 -60t-66.5 26zM161 850.5q26 -23.5 26 -71.5
t-33 -77.5t-73.5 -29.5t-67.5 24.5t-27 72t33.5 76.5t74.5 29t67 -23.5zM523 850.5q26 -23.5 26 -71.5t-33 -77.5t-73.5 -29.5t-67.5 24.5t-27 71.5t34 76.5t74.5 29.5t66.5 -23.5z" />
    <glyph glyph-name="eth" unicode="&#xf0;" horiz-adv-x="732" 
d="M188 601l-50 76q43 40 109 88q-58 30 -143 55.5t-103 31.5l12 95q177 -21 330 -112q102 72 157 109l45 -68q-55 -46 -123 -96q209 -172 209 -454q0 -81 -34.5 -149t-90.5 -111q-116 -89 -260 -89q-94 0 -159.5 67.5t-65.5 157.5t45.5 163.5t123.5 121.5t163 48
q46 0 98 -41q-22 138 -124 220q-100 -70 -139 -113zM247 408q-43 -75 -43 -170q0 -199 87 -199q48 0 84 30.5t55 78.5q37 95 37 179.5t-36.5 120t-88.5 35.5t-95 -75z" />
    <glyph glyph-name="ntilde" unicode="&#xf1;" horiz-adv-x="904" 
d="M272 281q209 323 375 323q56 0 84 -34t28 -86t-46.5 -180t-46.5 -158.5t15 -30.5q20 0 59 41.5t69 87.5l42 -40q-60 -109 -131.5 -164.5t-116 -55.5t-69.5 29.5t-25 80.5t40.5 166.5t40.5 164t-33 48.5q-38 0 -90 -48.5t-101 -118.5q-78 -112 -159 -258l-27 -48h-141
l31 94q87 260 87 308.5t-16 48.5q-29 0 -69 -69q-9 -16 -15 -25.5t-13.5 -23t-9.5 -16.5l-67 39q78 127 143 187.5t133 60.5q31 0 53.5 -26t22.5 -63t-6 -72.5t-12.5 -59t-17 -60.5t-11.5 -42zM462 727.5q-91 34.5 -138.5 34.5t-87.5 -35l-10 11q19 52 67.5 90t101.5 38
t149.5 -36t134 -36t64 18.5t33.5 19.5l10 -10q-8 -47 -72 -88t-112.5 -41t-139.5 34.5z" />
    <glyph glyph-name="ograve" unicode="&#xf2;" horiz-adv-x="775" 
d="M-1 238q0 75 36.5 144.5t94.5 117.5q128 104 261 104t218 -71t85 -177.5t-58.5 -191.5t-154.5 -132.5t-209.5 -47.5t-193 71.5t-79.5 182.5zM326 46q46 0 86.5 30t61.5 78q41 92 41 190t-36 148.5t-102 50.5t-130.5 -86t-64.5 -219q0 -192 144 -192zM456 672h-53
q-75 77 -253 245l-60 56h170q8 -12 196 -301z" />
    <glyph glyph-name="oacute" unicode="&#xf3;" horiz-adv-x="775" 
d="M-1 238q0 75 36.5 144.5t94.5 117.5q128 104 261 104t218 -71t85 -177.5t-58.5 -191.5t-154.5 -132.5t-209.5 -47.5t-193 71.5t-79.5 182.5zM326 46q46 0 86.5 30t61.5 78q41 92 41 190t-36 148.5t-102 50.5t-130.5 -86t-64.5 -219q0 -192 144 -192zM401 672h-54
q40 57 158 245l35 56h170q-14 -14 -79 -81q-165 -170 -230 -220z" />
    <glyph glyph-name="ocircumflex" unicode="&#xf4;" horiz-adv-x="775" 
d="M-1 238q0 75 36.5 144.5t94.5 117.5q128 104 261 104t218 -71t85 -177.5t-58.5 -191.5t-154.5 -132.5t-209.5 -47.5t-193 71.5t-79.5 182.5zM326 46q46 0 86.5 30t61.5 78q41 92 41 190t-36 148.5t-102 50.5t-130.5 -86t-64.5 -219q0 -192 144 -192zM434 972h53l200 -301
h-170l-64 261l-175 -261h-170z" />
    <glyph glyph-name="otilde" unicode="&#xf5;" horiz-adv-x="775" 
d="M-1 238q0 75 36.5 144.5t94.5 117.5q128 104 261 104t218 -71t85 -177.5t-58.5 -191.5t-154.5 -132.5t-209.5 -47.5t-193 71.5t-79.5 182.5zM326 46q46 0 86.5 30t61.5 78q41 92 41 190t-36 148.5t-102 50.5t-130.5 -86t-64.5 -219q0 -192 144 -192zM405 727.5
q-91 34.5 -138.5 34.5t-87.5 -35l-10 11q19 52 67.5 90t101.5 38t149.5 -36t134 -36t64 18.5t33.5 19.5l10 -10q-8 -47 -72 -88t-112.5 -41t-139.5 34.5z" />
    <glyph glyph-name="odieresis" unicode="&#xf6;" horiz-adv-x="775" 
d="M-1 238q0 75 36.5 144.5t94.5 117.5q128 104 261 104t218 -71t85 -177.5t-58.5 -191.5t-154.5 -132.5t-209.5 -47.5t-193 71.5t-79.5 182.5zM326 46q46 0 86.5 30t61.5 78q41 92 41 190t-36 148.5t-102 50.5t-130.5 -86t-64.5 -219q0 -192 144 -192zM337 850.5
q26 -23.5 26 -71.5t-33 -77.5t-73.5 -29.5t-67.5 24.5t-27 72t33.5 76.5t74.5 29t67 -23.5zM699 850.5q26 -23.5 26 -71.5t-33 -77.5t-73.5 -29.5t-67.5 24.5t-27 71.5t34 76.5t74.5 29.5t66.5 -23.5z" />
    <glyph glyph-name="divide" unicode="&#xf7;" horiz-adv-x="604" 
d="M340 251.5q26 -23.5 26 -72t-32.5 -78t-73.5 -29.5t-68 25t-27 72t34 76.5t74.5 29.5t66.5 -23.5zM455 740q26 -24 26 -72t-32.5 -77.5t-73 -29.5t-67.5 24.5t-27 72t33.5 77t74 29.5t66.5 -24zM617 445l-11 -41q-30 -3 -95 -12q-133 -20 -193.5 -20t-106 5t-101.5 14.5
t-83 12.5q0 13 12 41q32 4 93 13q141 21 194 21t101 -6t103.5 -15t86.5 -13z" />
    <glyph glyph-name="oslash" unicode="&#xf8;" horiz-adv-x="775" 
d="M79 -263l-39 25l570 1098l38 -24zM-1 238q0 75 36.5 144.5t94.5 117.5q128 104 261 104t218 -71t85 -177.5t-58.5 -191.5t-154.5 -132.5t-209.5 -47.5t-193 71.5t-79.5 182.5zM326 46q46 0 86.5 30t61.5 78q41 92 41 190t-36 148.5t-102 50.5t-130.5 -86t-64.5 -219
q0 -192 144 -192z" />
    <glyph glyph-name="ugrave" unicode="&#xf9;" horiz-adv-x="896" 
d="M790 582q-134 -357 -134 -433q0 -32 16 -32q44 0 128 128l43 -41q-53 -95 -125.5 -157.5t-117.5 -62.5q-93 0 -93 94q0 73 34 178t34 106q-5 -9 -24 -41.5t-28 -48.5t-29.5 -48.5t-34 -51t-36 -47.5t-40 -46t-41.5 -37.5t-46 -31.5q-50 -26 -98 -26q-119 0 -119 131
q0 60 43 186.5t43 149t-14 22.5q-40 0 -111 -127l-65 39q137 219 264 219q42 0 67 -23.5t23.5 -72t-49 -173t-47.5 -190.5q0 -36 33 -36q38 0 90.5 48.5t101.5 118.5q78 110 162 258l27 48h143zM526 672h-53q-75 77 -253 245l-60 56h170q8 -12 196 -301z" />
    <glyph glyph-name="uacute" unicode="&#xfa;" horiz-adv-x="896" 
d="M790 582q-134 -357 -134 -433q0 -32 16 -32q44 0 128 128l43 -41q-53 -95 -125.5 -157.5t-117.5 -62.5q-93 0 -93 94q0 73 34 178t34 106q-5 -9 -24 -41.5t-28 -48.5t-29.5 -48.5t-34 -51t-36 -47.5t-40 -46t-41.5 -37.5t-46 -31.5q-50 -26 -98 -26q-119 0 -119 131
q0 60 43 186.5t43 149t-14 22.5q-40 0 -111 -127l-65 39q137 219 264 219q42 0 67 -23.5t23.5 -72t-49 -173t-47.5 -190.5q0 -36 33 -36q38 0 90.5 48.5t101.5 118.5q78 110 162 258l27 48h143zM471 672h-54q40 57 158 245l35 56h170q-14 -14 -79 -81q-165 -170 -230 -220z
" />
    <glyph glyph-name="ucircumflex" unicode="&#xfb;" horiz-adv-x="896" 
d="M790 582q-134 -357 -134 -433q0 -32 16 -32q44 0 128 128l43 -41q-53 -95 -125.5 -157.5t-117.5 -62.5q-93 0 -93 94q0 73 34 178t34 106q-5 -9 -24 -41.5t-28 -48.5t-29.5 -48.5t-34 -51t-36 -47.5t-40 -46t-41.5 -37.5t-46 -31.5q-50 -26 -98 -26q-119 0 -119 131
q0 60 43 186.5t43 149t-14 22.5q-40 0 -111 -127l-65 39q137 219 264 219q42 0 67 -23.5t23.5 -72t-49 -173t-47.5 -190.5q0 -36 33 -36q38 0 90.5 48.5t101.5 118.5q78 110 162 258l27 48h143zM504 972h53l200 -301h-170l-64 261l-175 -261h-170z" />
    <glyph glyph-name="udieresis" unicode="&#xfc;" horiz-adv-x="896" 
d="M790 582q-134 -357 -134 -433q0 -32 16 -32q44 0 128 128l43 -41q-53 -95 -125.5 -157.5t-117.5 -62.5q-93 0 -93 94q0 73 34 178t34 106q-5 -9 -24 -41.5t-28 -48.5t-29.5 -48.5t-34 -51t-36 -47.5t-40 -46t-41.5 -37.5t-46 -31.5q-50 -26 -98 -26q-119 0 -119 131
q0 60 43 186.5t43 149t-14 22.5q-40 0 -111 -127l-65 39q137 219 264 219q42 0 67 -23.5t23.5 -72t-49 -173t-47.5 -190.5q0 -36 33 -36q38 0 90.5 48.5t101.5 118.5q78 110 162 258l27 48h143zM407 850.5q26 -23.5 26 -71.5t-33 -77.5t-73.5 -29.5t-67.5 24.5t-27 72
t33.5 76.5t74.5 29t67 -23.5zM769 850.5q26 -23.5 26 -71.5t-33 -77.5t-73.5 -29.5t-67.5 24.5t-27 71.5t34 76.5t74.5 29.5t66.5 -23.5z" />
    <glyph glyph-name="yacute" unicode="&#xfd;" horiz-adv-x="799" 
d="M47 346l-65 39q50 87 124.5 153t133.5 66q96 0 96 -86q0 -36 -49.5 -175t-49.5 -176t5 -47.5t22 -10.5q91 0 187.5 68.5t125.5 151.5l70 204q11 31 34 49t44.5 18t35 -14t13.5 -37t-9 -48l-76 -222q-63 -196 -195 -386q115 -12 205 -41l-8 -56q-138 28 -244 33
q-97 -125 -198.5 -199.5t-177 -74.5t-113 30.5t-37.5 83.5t40 96.5t107 70.5q136 56 312 64q14 16 67 112.5t57 121.5q-177 -150 -312 -150q-55 0 -80 37.5t-25 92.5t41.5 188.5t41.5 152t-8.5 18.5t-18.5 -4.5t-19.5 -14t-17.5 -18t-17.5 -23.5t-14.5 -23q-21 -33 -27 -44z
M336 -171q-81 -5 -165 -29q-162 -46 -162 -108q0 -37 46 -37t150 66.5t131 107.5zM430 672h-54q41 57 158 245l35 56h170q-14 -14 -79 -81q-165 -170 -230 -220z" />
    <glyph glyph-name="thorn" unicode="&#xfe;" horiz-adv-x="815" 
d="M561.5 43q-82.5 -59 -189.5 -59t-171 82q-47 -185 -80 -264q-104 -245 -285 -246q-44 0 -74 30t-30 69.5t20 62t53 22.5t55 -15.5t22 -48t-35 -69.5l6 -8q62 0 113 181q20 73 29 114t11 49l105 413q-49 -32 -125 -124l-39 45q64 90 186 190l50 178q134 450 253 684h160
q-113 -222 -271 -767q78 42 181 42t166 -61t63 -161t-45.5 -190t-128 -149zM299 471l-76 -336q18 -39 60 -59t97 -20t101 47q86 88 86 229q0 126 -68 170q-27 18 -71.5 18t-128.5 -49z" />
    <glyph glyph-name="ydieresis" unicode="&#xff;" horiz-adv-x="799" 
d="M47 346l-65 39q50 87 124.5 153t133.5 66q96 0 96 -86q0 -36 -49.5 -175t-49.5 -176t5 -47.5t22 -10.5q91 0 187.5 68.5t125.5 151.5l70 204q11 31 34 49t44.5 18t35 -14t13.5 -37t-9 -48l-76 -222q-63 -196 -195 -386q115 -12 205 -41l-8 -56q-138 28 -244 33
q-97 -125 -198.5 -199.5t-177 -74.5t-113 30.5t-37.5 83.5t40 96.5t107 70.5q136 56 312 64q14 16 67 112.5t57 121.5q-177 -150 -312 -150q-55 0 -80 37.5t-25 92.5t41.5 188.5t41.5 152t-8.5 18.5t-18.5 -4.5t-19.5 -14t-17.5 -18t-17.5 -23.5t-14.5 -23q-21 -33 -27 -44z
M336 -171q-81 -5 -165 -29q-162 -46 -162 -108q0 -37 46 -37t150 66.5t131 107.5zM366 850.5q26 -23.5 26 -71.5t-33 -77.5t-73.5 -29.5t-67.5 24.5t-27 72t33.5 76.5t74.5 29t67 -23.5zM728 850.5q26 -23.5 26 -71.5t-33 -77.5t-73.5 -29.5t-67.5 24.5t-27 71.5t34 76.5
t74.5 29.5t66.5 -23.5z" />
    <glyph glyph-name="Ccircumflex" unicode="&#x108;" horiz-adv-x="1214" 
d="M1034 301l48 -45q-227 -295 -547 -295q-209 0 -353 135q-70 65 -110.5 166t-40.5 231t49 270.5t136 260.5t199 214.5t247 149t284 54.5t258 -95t109 -266q0 -101 -46.5 -212.5t-120 -202t-173.5 -149.5t-199 -59t-157 64t-58 149q0 146 121.5 282.5t312.5 201.5l23 -53
q-96 -32 -181 -107t-132.5 -160.5t-47.5 -148.5q0 -131 146 -131q102 0 204.5 90t164 211.5t61.5 234t-76 184t-202 71.5t-259 -76t-235.5 -195t-168 -273.5t-65.5 -303.5q0 -241 161 -354q94 -66 213.5 -66t235.5 58.5t199 164.5zM1029 1832h53l200 -301h-170l-64 261
l-175 -261h-170z" />
    <glyph glyph-name="ccircumflex" unicode="&#x109;" horiz-adv-x="671" 
d="M520 207l41 -29q-44 -89 -135.5 -141.5t-191.5 -52.5t-168.5 61t-68.5 172.5t68.5 201.5t168.5 137.5t202 47.5q125 0 168 -60q18 -24 18 -60.5t-25 -61.5t-60 -25t-59 22.5t-24 57.5t43 64q-38 12 -70 12q-69 0 -127 -51t-88 -123.5t-30 -142.5t33.5 -112.5t96.5 -42.5
t121 35.5t87 90.5zM467 972h53l200 -301h-170l-64 261l-175 -261h-170z" />
    <glyph glyph-name="hbar" unicode="&#x127;" horiz-adv-x="780" 
d="M515 434q0 39 -34.5 39t-83.5 -48.5t-94 -118.5q-74 -113 -149 -258l-26 -48h-144q83 612 228 961h-67q-51 0 -87 -7l5 91q52 7 101 7h89q107 220 243 322l76 -35q-84 -84 -164 -289q151 -2 225 -5l-5 -81q-107 -4 -254 -4q-85 -246 -197 -741q6 10 24.5 42.5t28.5 49
t30.5 49.5t34.5 52.5t36.5 48.5t40 46.5t41.5 38t46 32.5q51 26 109 26t87.5 -32t29.5 -87t-51.5 -187t-51.5 -162t19 -30t41 22.5t41.5 50.5t23.5 32l41 -35q-117 -201 -268 -201q-30 0 -47.5 25t-15.5 70.5t50 172t48 191.5z" />
    <glyph glyph-name="Itilde" unicode="&#x128;" horiz-adv-x="1323" 
d="M1518 1376q-291 -301 -297 -657h190v-76h-194q-29 -396 -366 -575q-195 -103 -427 -103t-345.5 83t-113.5 203.5t102 206t285 85.5q43 0 68 -2q-68 148 -68 308t88.5 298.5t245 216.5t350.5 78q82 0 241.5 -33t240.5 -33zM1045 719q30 280 243 530q-153 64 -323 64
q-246 0 -393.5 -132t-147.5 -343q0 -147 80 -306l237 -67l-20 -62q-105 35 -180 50q22 -43 86 -138l-68 -22l-104 172q-44 6 -82 6q-145 0 -220 -59.5t-75 -149.5t86 -159.5t223.5 -69.5t243 31.5t190.5 101.5q173 143 217 479h-215v74h222zM1201 1561.5
q-91 34.5 -138.5 34.5t-87.5 -35l-10 11q19 52 67.5 90t101.5 38t149.5 -36t134 -36t64 18.5t33.5 19.5l10 -10q-8 -47 -72 -88t-112.5 -41t-139.5 34.5z" />
    <glyph glyph-name="itilde" unicode="&#x129;" horiz-adv-x="428" 
d="M112 10q-24 26 -24 71.5t23.5 124t47 142.5t23.5 85.5t-14 21.5q-35 0 -113 -138l-67 39q147 248 270 248q84 0 84 -106q0 -31 -20 -99l-72 -206q-11 -29 -11 -52.5t18 -23.5q34 0 125 126l42 -39q-54 -100 -128.5 -160t-117 -60t-66.5 26zM229 727.5
q-91 34.5 -138.5 34.5t-87.5 -35l-10 11q19 52 67.5 90t101.5 38t149.5 -36t134 -36t64 18.5t33.5 19.5l10 -10q-8 -47 -72 -88t-112.5 -41t-139.5 34.5z" />
    <glyph glyph-name="Iogonek" unicode="&#x12e;" horiz-adv-x="1323" 
d="M1518 1376q-291 -301 -297 -657h190v-76h-194q-29 -396 -366 -575q-195 -103 -427 -103t-345.5 83t-113.5 203.5t102 206t285 85.5q43 0 68 -2q-68 148 -68 308t88.5 298.5t245 216.5t350.5 78q82 0 241.5 -33t240.5 -33zM1045 719q30 280 243 530q-153 64 -323 64
q-246 0 -393.5 -132t-147.5 -343q0 -147 80 -306l237 -67l-20 -62q-105 35 -180 50q22 -43 86 -138l-68 -22l-104 172q-44 6 -82 6q-145 0 -220 -59.5t-75 -149.5t86 -159.5t223.5 -69.5t243 31.5t190.5 101.5q173 143 217 479h-215v74h222zM412 -325l9 -24
q-46 -29 -113 -29q-141 0 -141 91q0 104 213 287h66q-68 -68 -119 -158.5t-51 -136.5q0 -41 61 -41q29 0 75 11z" />
    <glyph glyph-name="iogonek" unicode="&#x12f;" horiz-adv-x="448" 
d="M87 10q-24 26 -24 71.5t23.5 124t47 142.5t23.5 85.5t-14 21.5q-35 0 -113 -138l-67 39q147 248 270 248q84 0 84 -106q0 -31 -20 -99l-72 -206q-11 -29 -11 -52.5t18 -23.5q34 0 125 126l42 -39q-54 -100 -128.5 -160t-117 -60t-66.5 26zM411 826q-27 -33 -73 -33
t-69 27.5t-23 69.5t28.5 74.5t73.5 32.5t67.5 -28.5t22.5 -69t-27 -73.5zM176 -325l9 -24q-46 -29 -113 -29q-141 0 -141 91q0 104 213 287h66q-68 -68 -119 -158.5t-51 -136.5q0 -41 61 -41q29 0 75 11z" />
    <glyph glyph-name="dotlessi" unicode="&#x131;" horiz-adv-x="484" 
d="M112 10q-24 26 -24 71.5t23.5 124t47 142.5t23.5 85.5t-14 21.5q-35 0 -113 -138l-67 39q147 248 270 248q84 0 84 -106q0 -31 -20 -99l-72 -206q-11 -29 -11 -52.5t18 -23.5q34 0 125 126l42 -39q-54 -100 -128.5 -160t-117 -60t-66.5 26z" />
    <glyph glyph-name="IJ" unicode="&#x132;" horiz-adv-x="1323" 
d="M1518 1376q-291 -301 -297 -657h190v-76h-194q-29 -396 -366 -575q-195 -103 -427 -103t-345.5 83t-113.5 203.5t102 206t285 85.5q43 0 68 -2q-68 148 -68 308t88.5 298.5t245 216.5t350.5 78q82 0 241.5 -33t240.5 -33zM1045 719q30 280 243 530q-153 64 -323 64
q-246 0 -393.5 -132t-147.5 -343q0 -147 80 -306l237 -67l-20 -62q-105 35 -180 50q22 -43 86 -138l-68 -22l-104 172q-44 6 -82 6q-145 0 -220 -59.5t-75 -149.5t86 -159.5t223.5 -69.5t243 31.5t190.5 101.5q173 143 217 479h-215v74h222zM2843 1376q-291 -301 -297 -657
h190v-76h-194q-10 -191 -63.5 -348t-135.5 -264t-190 -180q-209 -140 -474 -140q-308 0 -394 213q-25 60 -25 135t33.5 154.5t92 144.5t148 105.5t193.5 40.5q17 0 59 -4q-109 163 -109 336t88.5 311.5t245 216.5t350.5 78q82 0 241.5 -33t240.5 -33zM2370 719
q30 280 243 530q-153 64 -323 64q-246 0 -393.5 -132t-147.5 -343q0 -167 121 -346l237 -68l-20 -62q-97 33 -180 50q22 -43 86 -138l-68 -22l-104 172q-39 8 -103.5 8t-135.5 -33t-117 -87q-97 -114 -97 -243.5t81 -210.5t230 -81t259 47.5t199 149.5q180 206 226 671h-215
v74h222z" />
    <glyph glyph-name="ij" unicode="&#x133;" horiz-adv-x="871" 
d="M87 10q-24 26 -24 71.5t23.5 124t47 142.5t23.5 85.5t-14 21.5q-35 0 -113 -138l-67 39q147 248 270 248q84 0 84 -106q0 -31 -20 -99l-72 -206q-11 -29 -11 -52.5t18 -23.5q34 0 125 126l42 -39q-54 -100 -128.5 -160t-117 -60t-66.5 26zM411 826q-27 -33 -73 -33
t-69 27.5t-23 69.5t28.5 74.5t73.5 32.5t67.5 -28.5t22.5 -69t-27 -73.5zM375 -130q0 55 -64 55q-30 0 -48.5 -19t-18.5 -50t32.5 -56.5t85 -25.5t87.5 7.5t62 18.5t51.5 34t42 44t35.5 58.5t30 67.5t28 81t27 90t29 103t35 121.5t17 108.5q0 96 -94 96q-123 0 -270 -248
l67 -39q78 138 113 138q14 0 14 -33q-15 -54 -46.5 -151t-45.5 -149.5t-24.5 -86t-27.5 -77.5t-34 -68q-40 -58 -93 -63q10 14 10 43zM890 826q-27 -33 -73 -33t-69 27.5t-23 69.5t28.5 74.5t73.5 32.5t67.5 -28.5t22.5 -69t-27 -73.5z" />
    <glyph glyph-name="Jcircumflex" unicode="&#x134;" horiz-adv-x="1329" 
d="M1520 1376q-291 -301 -297 -657h190v-76h-194q-10 -191 -63.5 -348t-135.5 -264t-190 -180q-209 -140 -474 -140q-308 0 -394 213q-25 60 -25 135t33.5 154.5t92 144.5t148 105.5t193.5 40.5q17 0 59 -4q-109 163 -109 336t88.5 311.5t245 216.5t350.5 78q82 0 241.5 -33
t240.5 -33zM1047 719q30 280 243 530q-153 64 -323 64q-246 0 -393.5 -132t-147.5 -343q0 -167 121 -346l237 -68l-20 -62q-97 33 -180 50q22 -43 86 -138l-68 -22l-104 172q-39 8 -103.5 8t-135.5 -33t-117 -87q-97 -114 -97 -243.5t81 -210.5t230 -81t259 47.5t199 149.5
q180 206 226 671h-215v74h222zM1099 1808h53l200 -301h-170l-64 261l-175 -261h-170z" />
    <glyph glyph-name="jcircumflex" unicode="&#x135;" horiz-adv-x="423" 
d="M-73 -130q0 55 -64 55q-30 0 -48.5 -19t-18.5 -50t32.5 -56.5t85 -25.5t87.5 7.5t62 18.5t51.5 34t42 44t35.5 58.5t30 67.5t28 81t27 90t29 103t35 121.5t17 108.5q0 96 -94 96q-123 0 -270 -248l67 -39q78 138 113 138q14 0 14 -33q-15 -54 -46.5 -151t-45.5 -149.5
t-24.5 -86t-27.5 -77.5t-34 -68q-40 -58 -93 -63q10 14 10 43zM312 972h53l200 -301h-170l-64 261l-175 -261h-170z" />
    <glyph glyph-name="kcommaaccent" unicode="&#x137;" horiz-adv-x="859" 
d="M277 1081q71 153 190 246.5t253 93.5q79 0 136.5 -40t57.5 -121q0 -47 -31.5 -73t-74 -26t-72 24.5t-29.5 61.5t27 78q-34 16 -66.5 16t-73 -26t-74.5 -69q-60 -76 -110.5 -186t-159 -531t-108.5 -529h-158q0 171 96.5 517t196.5 564zM667.5 42q-67.5 -58 -134 -58
t-100.5 57t-61.5 103.5t-44 74t-30.5 50.5t-20.5 34.5t-12.5 20.5q-6 11 -9 22l29 32q284 302 446 302q62 0 95.5 -30t33.5 -67t-23.5 -65.5t-65.5 -28.5t-64.5 20t-26.5 40l-4 20q-153 -83 -271 -184q-25 -22 -30 -27q28 -20 200 -237q17 -23 36.5 -23t46.5 25t81 88
l41 -35q-44 -76 -111.5 -134zM172 -449h-32q55 229 69 321l170 55q0 -47 -79 -185t-128 -191z" />
    <glyph glyph-name="kgreenlandic" unicode="&#x138;" horiz-adv-x="859" 
d="M97 577l168 6q-123 -467 -123 -583h-158q0 189 113 577zM429 37q-165 224 -174 259l29 32q284 302 446 302q62 0 95.5 -30t33.5 -67t-23.5 -65.5t-65.5 -28.5t-64.5 20t-26.5 40l-4 20q-153 -83 -271 -184q-25 -22 -30 -27q46 -33 200 -187q21 -23 38.5 -23t44.5 25
t81 88l41 -35q-44 -79 -111.5 -140t-136.5 -61t-102 62z" />
    <glyph glyph-name="Ldotaccent" unicode="&#x13f;" horiz-adv-x="1591" 
d="M1597 1153q0 215 -203 215q-88 0 -152 -54t-99 -139t-68.5 -205t-59.5 -238q-65 -291 -184 -485q36 -16 110 -51.5t119 -55.5q126 -57 221 -57q42 0 79 21t56.5 45.5t34 45.5t17.5 21l45 -26q-88 -166 -186 -206q-44 -18 -113 -18t-151.5 24.5t-185 70.5t-144.5 61
q-80 -69 -204.5 -112.5t-285.5 -43.5q-81 0 -147 30q-125 58 -125 147t55 150q105 116 291 116q133 0 281 -55q54 -21 141 -58q43 119 73 274t56 256.5t53.5 187t72 166.5t98.5 138q119 124 310 124q145 0 236.5 -84t91.5 -236q0 -113 -45.5 -219.5t-120.5 -187.5
t-173.5 -137t-203.5 -74l-14 55q122 30 220 122.5t151 217t53 254.5zM34 155q0 -79 98 -106q203 -56 404 35q75 35 115 87q-200 135 -363 135q-254 0 -254 -151zM1725 529.5q26 -23.5 26 -72t-32.5 -78t-73.5 -29.5t-68 25t-27 72t34 76.5t74.5 29.5t66.5 -23.5z" />
    <glyph glyph-name="ldot" unicode="&#x140;" horiz-adv-x="406" 
d="M372 1330h162q-43 -74 -132 -328.5t-162.5 -512t-73.5 -315t14 -57.5q42 0 131 127l42 -40q-44 -76 -95 -128q-90 -92 -146 -92q-102 0 -102 123q0 183 121.5 577t240.5 646zM720 687.5q26 -23.5 26 -72t-32.5 -78t-73.5 -29.5t-68 25t-27 72t34 76.5t74.5 29.5
t66.5 -23.5z" />
    <glyph glyph-name="Lslash" unicode="&#x141;" horiz-adv-x="1591" 
d="M472 602l-11 56l797 204l11 -57zM1597 1153q0 215 -203 215q-88 0 -152 -54t-99 -139t-68.5 -205t-59.5 -238q-65 -291 -184 -485q36 -16 110 -51.5t119 -55.5q126 -57 221 -57q42 0 79 21t56.5 45.5t34 45.5t17.5 21l45 -26q-88 -166 -186 -206q-44 -18 -113 -18
t-151.5 24.5t-185 70.5t-144.5 61q-80 -69 -204.5 -112.5t-285.5 -43.5q-81 0 -147 30q-125 58 -125 147t55 150q105 116 291 116q133 0 281 -55q54 -21 141 -58q43 119 73 274t56 256.5t53.5 187t72 166.5t98.5 138q119 124 310 124q145 0 236.5 -84t91.5 -236
q0 -113 -45.5 -219.5t-120.5 -187.5t-173.5 -137t-203.5 -74l-14 55q122 30 220 122.5t151 217t53 254.5zM34 155q0 -79 98 -106q203 -56 404 35q75 35 115 87q-200 135 -363 135q-254 0 -254 -151z" />
    <glyph glyph-name="lslash" unicode="&#x142;" horiz-adv-x="406" 
d="M-160 602l-11 56l797 204l11 -57zM372 1330h162q-43 -74 -132 -328.5t-162.5 -512t-73.5 -315t14 -57.5q42 0 131 127l42 -40q-44 -76 -95 -128q-90 -92 -146 -92q-102 0 -102 123q0 183 121.5 577t240.5 646z" />
    <glyph glyph-name="Nacute" unicode="&#x143;" horiz-adv-x="1614" 
d="M1522 283l51 -43q-49 -122 -129 -192.5t-159 -70.5q-47 0 -81 43t-34 120t42 229.5t92 298.5q134 391 134 553q0 118 -60.5 118t-135.5 -74t-146.5 -192t-144.5 -261t-134.5 -285.5t-110 -260.5t-78 -192t-32.5 -74h-186l104 293q188 532 188.5 804.5t-206.5 272.5
q-77 0 -142.5 -43.5t-107.5 -110t-72 -148.5q-55 -154 -55 -298q0 -273 125 -479l-39 -33q-68 109 -103.5 243.5t-35.5 241t15 196t50 181t86 162t131 115.5t160.5 45t132.5 -22t86 -59.5t57 -88.5q42 -96 42 -210t-24 -263q-30 -181 -70 -332q32 89 55.5 137.5t55 116.5
t56.5 122.5t66 132.5t77 138t83.5 124.5t92.5 106.5q104 97 196 97t138 -60.5t46 -154.5t-27 -218.5t-66 -243.5t-78 -232q-93 -269 -93 -354t29 -85t85.5 74.5t73.5 114.5zM1096 1508h-54q41 57 158 245l35 56h170q-14 -14 -79 -81q-165 -170 -230 -220z" />
    <glyph glyph-name="nacute" unicode="&#x144;" horiz-adv-x="904" 
d="M272 281q209 323 375 323q56 0 84 -34t28 -86t-46.5 -180t-46.5 -158.5t15 -30.5q20 0 59 41.5t69 87.5l42 -40q-60 -109 -131.5 -164.5t-116 -55.5t-69.5 29.5t-25 80.5t40.5 166.5t40.5 164t-33 48.5q-38 0 -90 -48.5t-101 -118.5q-78 -112 -159 -258l-27 -48h-141
l31 94q87 260 87 308.5t-16 48.5q-29 0 -69 -69q-9 -16 -15 -25.5t-13.5 -23t-9.5 -16.5l-67 39q78 127 143 187.5t133 60.5q31 0 53.5 -26t22.5 -63t-6 -72.5t-12.5 -59t-17 -60.5t-11.5 -42zM458 672h-54q41 57 158 245l35 56h170q-14 -14 -79 -81q-165 -170 -230 -220z
" />
    <glyph glyph-name="OE" unicode="&#x152;" horiz-adv-x="2391" 
d="M2017 928q53 0 53 -36t-55 -36q-174 0 -328 -62t-249.5 -173.5t-95.5 -242.5t111.5 -215.5t332.5 -84.5q247 0 370 118q64 62 64 160.5t-65 155.5t-166.5 57t-201 -40t-157.5 -107l-55 49q58 74 172 119t208 45t151.5 -17t104.5 -50q101 -72 107 -222q-4 -90 -54 -162
t-132 -117q-166 -92 -370 -92t-360.5 67t-228.5 189q-128 -119 -289 -186.5t-338 -67.5q-252 0 -389 129.5t-137 368.5q0 263 156 487q79 113 186 186l30 -37q-88 -106 -139 -265t-51 -288.5t22.5 -216t67.5 -155.5q98 -149 295 -149q281 0 490 300q118 170 167 391
q23 105 23 200t-19.5 172.5t-59.5 138.5q-83 129 -259 129q-132 0 -241 -82t-167.5 -208.5t-58.5 -250.5t42 -177.5t109.5 -53.5t137 43.5t118.5 119.5t52 159l96 16q0 -104 -54.5 -197.5t-147 -150t-205.5 -56.5t-180.5 83.5t-67.5 202.5t50.5 232.5t132.5 200t194 140
t229 53.5q226 0 353 -141t127 -375q0 -72 -14 -156q48 42 129.5 73t138.5 41l58 10q-121 37 -181.5 100t-60.5 137q0 120 139.5 215.5t346.5 95.5q187 0 312 -100q93 -74 97 -195q0 -56 -33 -84.5t-79 -28.5t-78.5 25.5t-32.5 59.5t12 53.5t26.5 29t33.5 14.5q28 7 45 7
q-32 66 -113.5 105.5t-165 39.5t-143 -23t-97.5 -61q-81 -78 -81 -165.5t60 -141t174 -53.5z" />
    <glyph glyph-name="oe" unicode="&#x153;" horiz-adv-x="1479" 
d="M691 197q6 -115 155 -115q55 0 114.5 31.5t96.5 74.5l43 -28q-65 -115 -176 -153q-90 -30 -166 -30q-122 0 -192 107q-126 -107 -293 -107q-116 0 -195.5 73t-79.5 188q0 75 36.5 144.5t94.5 117.5q128 104 279 104q66 0 125.5 -33.5t97.5 -92.5q132 126 287 126
q87 0 154.5 -42t69 -113t-41.5 -122.5t-110 -78.5q-130 -53 -256 -53zM181 233q0 -80 32.5 -137t95.5 -57t103 30.5t61 78.5q41 95 41 194.5t-36 150t-102 50.5t-130.5 -86t-64.5 -224zM685 252q111 4 178.5 35.5t94 72t26.5 85t-23 66t-49 21.5q-96 0 -161.5 -89.5
t-65.5 -190.5z" />
    <glyph glyph-name="Racute" unicode="&#x154;" horiz-adv-x="1831" 
d="M1752 213l63 -31q-30 -78 -75 -126q-80 -85 -181 -85q-93 0 -163 115q-54 89 -90 192.5t-56 153.5q-45 115 -88 115q-96 -292 -284.5 -436.5t-454.5 -144.5q-160 0 -285 70q-63 34 -101 92.5t-38 138.5t41 150t108 113q138 91 311 91q6 265 179 479q175 218 417 300
q126 42 231 42t181 -20.5t141 -60.5t104.5 -109t39.5 -157.5t-33.5 -170t-93.5 -146.5q-112 -122 -285 -209q68 -56 148 -271q29 -76 68 -136t79 -60q39 0 65 34q33 43 52 77zM572 313l-61 -14q-24 47 -45 169l-7 40q-166 0 -295 -78q-43 -27 -71.5 -70t-28.5 -99t31 -102.5
t83 -72.5q102 -53 227 -53q214 0 344 114t202 326q15 44 39.5 120.5t39.5 122t41 114t48 114.5t56.5 104t71.5 102q89 104 196 171q-24 14 -88 25.5t-134 11.5q-119 0 -245.5 -64t-226.5 -166t-165.5 -239t-66.5 -273q220 -31 346 -192l-33 -35q-6 3 -33 21.5t-52.5 32.5
t-61.5 31q-76 36 -166 36q5 -65 29.5 -129.5t25.5 -67.5zM1166 567q179 56 296.5 187t117.5 309q0 61 -24 123.5t-66 97.5q-111 -79 -165 -180q-31 -58 -50 -97.5t-39 -118.5q-25 -97 -45 -196.5t-25 -124.5zM1353 1508h-54q41 57 158 245l35 56h170q-14 -14 -79 -81
q-165 -170 -230 -220z" />
    <glyph glyph-name="Rcommaaccent" unicode="&#x156;" horiz-adv-x="1831" 
d="M1752 213l63 -31q-30 -78 -75 -126q-80 -85 -181 -85q-93 0 -163 115q-54 89 -90 192.5t-56 153.5q-45 115 -88 115q-96 -292 -284.5 -436.5t-454.5 -144.5q-160 0 -285 70q-63 34 -101 92.5t-38 138.5t41 150t108 113q138 91 311 91q6 265 179 479q175 218 417 300
q126 42 231 42t181 -20.5t141 -60.5t104.5 -109t39.5 -157.5t-33.5 -170t-93.5 -146.5q-112 -122 -285 -209q68 -56 148 -271q29 -76 68 -136t79 -60q39 0 65 34q33 43 52 77zM572 313l-61 -14q-24 47 -45 169l-7 40q-166 0 -295 -78q-43 -27 -71.5 -70t-28.5 -99t31 -102.5
t83 -72.5q102 -53 227 -53q214 0 344 114t202 326q15 44 39.5 120.5t39.5 122t41 114t48 114.5t56.5 104t71.5 102q89 104 196 171q-24 14 -88 25.5t-134 11.5q-119 0 -245.5 -64t-226.5 -166t-165.5 -239t-66.5 -273q220 -31 346 -192l-33 -35q-6 3 -33 21.5t-52.5 32.5
t-61.5 31q-76 36 -166 36q5 -65 29.5 -129.5t25.5 -67.5zM1166 567q179 56 296.5 187t117.5 309q0 61 -24 123.5t-66 97.5q-111 -79 -165 -180q-31 -58 -50 -97.5t-39 -118.5q-25 -97 -45 -196.5t-25 -124.5zM842 -449h-32q55 229 69 321l170 55q0 -47 -79 -185t-128 -191z
" />
    <glyph glyph-name="rcommaaccent" unicode="&#x157;" horiz-adv-x="764" 
d="M549 473q-38 0 -90 -48.5t-101 -118.5q-78 -112 -159 -258l-27 -48h-141l31 94q87 260 87 308.5t-16 48.5q-29 0 -69 -69q-9 -16 -15 -25.5t-13.5 -23t-9.5 -16.5l-67 39q78 127 143 187.5t133 60.5q31 0 53.5 -26t22.5 -61.5t-4 -63t-9 -50.5t-14 -55t-14.5 -49
t-14.5 -46t-11 -34q18 36 61 106t56 88t36 48t40.5 46.5t42 38t46.5 32.5q56 26 108 26t83.5 -30.5t31.5 -71t-25.5 -71t-59 -30.5t-52.5 11.5t-26 24.5q-21 36 -37 36zM-13 -449h-32q55 229 69 321l170 55q0 -47 -79 -185t-128 -191z" />
    <glyph glyph-name="Rcaron" unicode="&#x158;" horiz-adv-x="1831" 
d="M1752 213l63 -31q-30 -78 -75 -126q-80 -85 -181 -85q-93 0 -163 115q-54 89 -90 192.5t-56 153.5q-45 115 -88 115q-96 -292 -284.5 -436.5t-454.5 -144.5q-160 0 -285 70q-63 34 -101 92.5t-38 138.5t41 150t108 113q138 91 311 91q6 265 179 479q175 218 417 300
q126 42 231 42t181 -20.5t141 -60.5t104.5 -109t39.5 -157.5t-33.5 -170t-93.5 -146.5q-112 -122 -285 -209q68 -56 148 -271q29 -76 68 -136t79 -60q39 0 65 34q33 43 52 77zM572 313l-61 -14q-24 47 -45 169l-7 40q-166 0 -295 -78q-43 -27 -71.5 -70t-28.5 -99t31 -102.5
t83 -72.5q102 -53 227 -53q214 0 344 114t202 326q15 44 39.5 120.5t39.5 122t41 114t48 114.5t56.5 104t71.5 102q89 104 196 171q-24 14 -88 25.5t-134 11.5q-119 0 -245.5 -64t-226.5 -166t-165.5 -239t-66.5 -273q220 -31 346 -192l-33 -35q-6 3 -33 21.5t-52.5 32.5
t-61.5 31q-76 36 -166 36q5 -65 29.5 -129.5t25.5 -67.5zM1166 567q179 56 296.5 187t117.5 309q0 61 -24 123.5t-66 97.5q-111 -79 -165 -180q-31 -58 -50 -97.5t-39 -118.5q-25 -97 -45 -196.5t-25 -124.5zM1384 1508h-53l-200 301h170l64 -261l175 261h170z" />
    <glyph glyph-name="rcaron" unicode="&#x159;" horiz-adv-x="764" 
d="M549 473q-38 0 -90 -48.5t-101 -118.5q-78 -112 -159 -258l-27 -48h-141l31 94q87 260 87 308.5t-16 48.5q-29 0 -69 -69q-9 -16 -15 -25.5t-13.5 -23t-9.5 -16.5l-67 39q78 127 143 187.5t133 60.5q31 0 53.5 -26t22.5 -61.5t-4 -63t-9 -50.5t-14 -55t-14.5 -49
t-14.5 -46t-11 -34q18 36 61 106t56 88t36 48t40.5 46.5t42 38t46.5 32.5q56 26 108 26t83.5 -30.5t31.5 -71t-25.5 -71t-59 -30.5t-52.5 11.5t-26 24.5q-21 36 -37 36zM481 672h-53l-200 301h170l64 -261l175 261h170z" />
    <glyph glyph-name="Scaron" unicode="&#x160;" horiz-adv-x="1326" 
d="M708.5 -14.5q-100.5 -18.5 -190 -18.5t-161 9.5t-142 33t-121.5 60.5q-114 81 -114 229q0 88 41 164.5t107 126.5q140 108 306 108q199 0 296 -117q48 -59 48 -143t-79.5 -145.5t-167.5 -61.5q-21 0 -21 21.5t20 31t48 18t56 20.5q69 31 69 100.5t-63.5 105t-220.5 35.5
t-243 -79.5t-86 -189.5q0 -145 129 -206q115 -55 275 -55q275 0 445 157q120 110 120 277q0 100 -71 194q-31 42 -69 83l-76 82t-69 82q-71 90 -71 168t25.5 134.5t68 98t97.5 71.5q111 62 235 62q108 0 201 -52q102 -56 102 -171q0 -45 -32 -79t-72 -34t-65.5 23
t-25.5 51.5t24.5 61t24.5 54t-18 39.5t-46 27q-56 17 -102 17q-106 0 -182 -63t-76 -175q0 -61 76 -143q34 -36 74.5 -76.5t81.5 -86.5t75 -95q76 -108 76 -224t-46 -210t-120.5 -155.5t-172 -104t-198 -61zM1195 1532h-53l-200 301h170l64 -261l175 261h170z" />
    <glyph glyph-name="scaron" unicode="&#x161;" horiz-adv-x="657" 
d="M0 61.5q-28 31.5 -28 69.5t21 63t55.5 25t61 -20.5t26.5 -58t-46 -62.5q38 -33 116 -33q169 0 169 96q0 60 -107 96q-44 15 -88.5 32t-77.5 50t-36 80q0 68 45 115q85 90 254 90q83 0 147 -31.5t64 -81.5t-25.5 -72t-59.5 -22t-57.5 18.5t-23.5 51.5t39 57q-24 17 -83 17
t-106 -17.5t-47 -47.5t34.5 -50t83.5 -37t98 -39t83.5 -63t34.5 -101t-49 -109q-93 -93 -254 -93q-85 0 -150.5 23t-93.5 54.5zM400 672h-53l-200 301h170l64 -261l175 261h170z" />
    <glyph glyph-name="Umacron" unicode="&#x16a;" horiz-adv-x="1675" 
d="M1429 63q74 0 168 173l53 -31q-53 -112 -123.5 -171t-145 -59t-126 67t-51.5 173t18 223q25 156 63.5 311.5t40.5 162.5l9 36q-13 -31 -43.5 -107t-58 -142.5t-69.5 -158t-81.5 -166t-92 -151.5t-104.5 -129q-117 -119 -237 -119q-86 0 -132 60.5t-46 160t27 232
t59 241.5q86 293 86 486q0 102 -52.5 168t-140 66t-153 -44.5t-107.5 -113.5t-72 -154q-55 -160 -55 -307q0 -273 125 -479l-39 -33q-68 109 -103.5 243.5t-35.5 241t15 195.5t50 180t86 162t131 115.5t162.5 44.5t137.5 -22.5t90.5 -60t59.5 -88.5q44 -93 44 -206
t-24 -230.5t-54 -210.5q-77 -243 -77 -425q0 -119 60.5 -119t136 74t148.5 192t146.5 261t135.5 285q126 289 186 453l28 74h187q-297 -830 -297 -1188q0 -166 67 -166zM1240 1567l-205 1q-51 0 -87 -7l5 91q52 7 180 7t270 -7l-5 -81q-68 -4 -158 -4z" />
    <glyph glyph-name="umacron" unicode="&#x16b;" horiz-adv-x="896" 
d="M790 582q-134 -357 -134 -433q0 -32 16 -32q44 0 128 128l43 -41q-53 -95 -125.5 -157.5t-117.5 -62.5q-93 0 -93 94q0 73 34 178t34 106q-5 -9 -24 -41.5t-28 -48.5t-29.5 -48.5t-34 -51t-36 -47.5t-40 -46t-41.5 -37.5t-46 -31.5q-50 -26 -98 -26q-119 0 -119 131
q0 60 43 186.5t43 149t-14 22.5q-40 0 -111 -127l-65 39q137 219 264 219q42 0 67 -23.5t23.5 -72t-49 -173t-47.5 -190.5q0 -36 33 -36q38 0 90.5 48.5t101.5 118.5q78 110 162 258l27 48h143zM545 732l-205 1q-51 0 -87 -7l5 91q52 7 180 7t270 -7l-5 -81q-68 -4 -158 -4z
" />
    <glyph glyph-name="Uogonek" unicode="&#x172;" horiz-adv-x="1675" 
d="M1429 63q74 0 168 173l53 -31q-53 -112 -123.5 -171t-145 -59t-126 67t-51.5 173t18 223q25 156 63.5 311.5t40.5 162.5l9 36q-13 -31 -43.5 -107t-58 -142.5t-69.5 -158t-81.5 -166t-92 -151.5t-104.5 -129q-117 -119 -237 -119q-86 0 -132 60.5t-46 160t27 232
t59 241.5q86 293 86 486q0 102 -52.5 168t-140 66t-153 -44.5t-107.5 -113.5t-72 -154q-55 -160 -55 -307q0 -273 125 -479l-39 -33q-68 109 -103.5 243.5t-35.5 241t15 195.5t50 180t86 162t131 115.5t162.5 44.5t137.5 -22.5t90.5 -60t59.5 -88.5q44 -93 44 -206
t-24 -230.5t-54 -210.5q-77 -243 -77 -425q0 -119 60.5 -119t136 74t148.5 192t146.5 261t135.5 285q126 289 186 453l28 74h187q-297 -830 -297 -1188q0 -166 67 -166zM1339 -326l9 -24q-46 -29 -113 -29q-141 0 -141 91q0 104 213 287h66q-68 -68 -119 -158.5t-51 -136.5
q0 -41 61 -41q29 0 75 11z" />
    <glyph glyph-name="uogonek" unicode="&#x173;" horiz-adv-x="896" 
d="M790 582q-134 -357 -134 -433q0 -32 16 -32q44 0 128 128l43 -41q-53 -95 -125.5 -157.5t-117.5 -62.5q-93 0 -93 94q0 73 34 178t34 106q-5 -9 -24 -41.5t-28 -48.5t-29.5 -48.5t-34 -51t-36 -47.5t-40 -46t-41.5 -37.5t-46 -31.5q-50 -26 -98 -26q-119 0 -119 131
q0 60 43 186.5t43 149t-14 22.5q-40 0 -111 -127l-65 39q137 219 264 219q42 0 67 -23.5t23.5 -72t-49 -173t-47.5 -190.5q0 -36 33 -36q38 0 90.5 48.5t101.5 118.5q78 110 162 258l27 48h143zM589 -326l9 -24q-46 -29 -113 -29q-141 0 -141 91q0 104 213 287h66
q-68 -68 -119 -158.5t-51 -136.5q0 -41 61 -41q29 0 75 11z" />
    <glyph glyph-name="Ydieresis" unicode="&#x178;" horiz-adv-x="1549" 
d="M625 211q200 -99 335 -99q222 0 278 283q8 42 21 110t21 112t21.5 107.5t25 107t29 99t36 95.5t43.5 85t53 79q62 74 141 118l42 -31q-97 -73 -153.5 -219t-71.5 -266t-26 -283t-15.5 -218t-16.5 -154.5t-26 -153.5t-39.5 -135t-58 -126t-81 -99t-108.5 -81
q-145 -67 -318 -67q-291 0 -291 158q0 52 38.5 83.5t85 31.5t77.5 -28t31 -78.5t-22 -101.5q43 -7 98 -7t110 18.5t96 49.5t74.5 81t56.5 102t43 124q29 110 56 289q-46 -111 -120.5 -156.5t-173.5 -45.5q-187 0 -426 100q-43 -40 -140 -72.5t-185 -32.5q-176 0 -176 132
q0 74 82.5 129t216.5 55t261 -62q98 80 193.5 210.5t162 287t66.5 282.5q0 195 -91 291.5t-231 96.5q-89 0 -181 -38.5t-167 -103.5t-123 -161.5t-48 -206t53 -212.5l-51 -22q-59 124 -59 254t52.5 241t137.5 183q181 152 400 152q182 0 310 -116q136 -125 136 -374
q0 -196 -144.5 -423.5t-339.5 -373.5zM425 141q-153 59 -235 59q-138 0 -138 -72q0 -65 105 -65q67 0 148.5 25t119.5 53zM1120 1685.5q26 -23.5 26 -71.5t-33 -77.5t-73.5 -29.5t-67.5 24.5t-27 72t33.5 76.5t74.5 29t67 -23.5zM1482 1685.5q26 -23.5 26 -71.5t-33 -77.5
t-73.5 -29.5t-67.5 24.5t-27 71.5t34 76.5t74.5 29.5t66.5 -23.5z" />
    <glyph glyph-name="Zcaron" unicode="&#x17d;" horiz-adv-x="1761" 
d="M375 811q150 0 246 96l55 -37q-58 -53 -148.5 -83.5t-204.5 -30.5t-203 71t-89 213q0 170 155 286t419 116q133 0 252 -37t189 -81.5t155.5 -102t136.5 -80.5q67 72 154.5 112.5t167.5 40.5t130.5 -39.5t50.5 -120t-88.5 -130t-199.5 -49.5t-195 30l-153 -252h403l29 -59
h-468l-235 -379q75 -66 226 -128.5t237 -62.5q186 0 219 189l94 -14q0 -121 -110.5 -211.5t-280.5 -90.5q-155 0 -351 107q-28 15 -81.5 46.5t-75.5 43.5q-186 -197 -405 -197q-164 0 -248 76t-84 189q0 108 95 195q101 92 266 92q145 0 327 -109q35 -20 98 -59l196 313
h-372l54 59h354l174 283q-189 76 -352 198q-59 43 -120 82q-127 82 -289 82q-87 0 -159.5 -30t-117.5 -78q-95 -100 -95 -219.5t70.5 -179.5t171.5 -60zM738 225q-78 62 -205.5 118t-216.5 56t-132.5 -46t-43.5 -116t65 -127t189 -57q186 0 344 172zM1413 1100
q81 -39 165.5 -39t135 24.5t50.5 61.5t-25 56.5t-74.5 19.5t-120.5 -33t-131 -90zM1000 1589h-53l-200 301h170l64 -261l175 261h170z" />
    <glyph glyph-name="zcaron" unicode="&#x17e;" horiz-adv-x="692" 
d="M111 55q-27 -13 -82 -57l-65 51q7 20 199 215.5t206 210.5q-136 68 -201 68l-10 -2q43 -43 43 -79.5t-31 -57.5t-68.5 -21t-64 22t-26.5 60q0 71 51.5 109t114 38t161.5 -31.5t145.5 -31.5t109.5 22l41 -59q-41 -80 -117 -80q-13 0 -33 10l-291 -311q53 0 140.5 -40
t136.5 -42q-33 28 -33 67.5t29 63t63.5 23.5t61 -25.5t26.5 -75t-42 -84t-111 -34.5q-138 0 -353 71zM383 672h-53l-200 301h170l64 -261l175 261h170z" />
    <glyph glyph-name="florin" unicode="&#x192;" horiz-adv-x="797" 
d="M7 -251q-56 -34 -110 -34t-77 21.5t-23 52t20 52.5t50.5 22t50.5 -14t20 -36.5t-14 -48.5q87 2 158 280q32 126 59 258q78 379 121 498h-205l16 66h210q138 406 343 508q80 39 169 39q204 0 204 -147q0 -46 -31.5 -72.5t-74 -26.5t-72 24.5t-29.5 63.5t27 76
q-49 17 -64 17q-185 0 -298 -463q-2 -6 -3 -11t-2 -8h223l-16 -66h-226q-29 -91 -63.5 -239t-62 -245.5t-55 -179.5t-66.5 -162t-81 -135.5t-98 -89.5z" />
    <glyph glyph-name="DZ" unicode="&#x1f1;" horiz-adv-x="1618" 
d="M288 391l-69 -30q-109 211 -109 407q0 243 156 416q151 168 376 228q111 30 233 30t222 -25t186 -96q93 76 262 76l20 -62q-161 -32 -215 -74q105 -97 159 -253.5t54 -302t-17 -243.5t-55.5 -184.5t-96.5 -147.5q-123 -133 -318 -133t-420 97q-53 -40 -150.5 -72
t-182.5 -32q-171 0 -171 133q0 78 87 130.5t217.5 52.5t257.5 -62q112 145 176 403q26 102 58 207q74 243 269 416q-53 49 -139.5 75.5t-168.5 26.5q-191 0 -342.5 -74.5t-242.5 -224.5t-91 -353q0 -147 55 -329zM1401.5 982q-44.5 134 -114.5 206q-60 -92 -99 -277
q-67 -325 -225 -527q-74 -95 -175 -174q193 -100 329 -100q138 0 210 93q74 95 97 225q22 128 22 274t-44.5 280zM589 141q-137 57 -255.5 57t-118.5 -73q0 -62 110 -62q62 0 135.5 21.5t128.5 56.5zM1951 811q150 0 246 96l55 -37q-58 -53 -148.5 -83.5t-204.5 -30.5
t-203 71t-89 213q0 170 155 286t419 116q133 0 252 -37t189 -81.5t155.5 -102t136.5 -80.5q67 72 154.5 112.5t167.5 40.5t130.5 -39.5t50.5 -120t-88.5 -130t-199.5 -49.5t-195 30l-153 -252h403l29 -59h-468l-235 -379q75 -66 226 -128.5t237 -62.5q186 0 219 189l94 -14
q0 -121 -110.5 -211.5t-280.5 -90.5q-155 0 -351 107q-28 15 -81.5 46.5t-75.5 43.5q-186 -197 -405 -197q-164 0 -248 76t-84 189q0 108 95 195q101 92 266 92q145 0 327 -109q35 -20 98 -59l196 313h-372l54 59h354l174 283q-189 76 -352 198q-59 43 -120 82
q-127 82 -289 82q-87 0 -159.5 -30t-117.5 -78q-95 -100 -95 -219.5t70.5 -179.5t171.5 -60zM2314 225q-78 62 -205.5 118t-216.5 56t-132.5 -46t-43.5 -116t65 -127t189 -57q186 0 344 172zM2989 1100q81 -39 165.5 -39t135 24.5t50.5 61.5t-25 56.5t-74.5 19.5t-120.5 -33
t-131 -90z" />
    <glyph glyph-name="Dz" unicode="&#x1f2;" horiz-adv-x="1618" 
d="M288 391l-69 -30q-109 211 -109 407q0 243 156 416q151 168 376 228q111 30 233 30t222 -25t186 -96q93 76 262 76l20 -62q-161 -32 -215 -74q105 -97 159 -253.5t54 -302t-17 -243.5t-55.5 -184.5t-96.5 -147.5q-123 -133 -318 -133t-420 97q-53 -40 -150.5 -72
t-182.5 -32q-171 0 -171 133q0 78 87 130.5t217.5 52.5t257.5 -62q112 145 176 403q26 102 58 207q74 243 269 416q-53 49 -139.5 75.5t-168.5 26.5q-191 0 -342.5 -74.5t-242.5 -224.5t-91 -353q0 -147 55 -329zM1401.5 982q-44.5 134 -114.5 206q-60 -92 -99 -277
q-67 -325 -225 -527q-74 -95 -175 -174q193 -100 329 -100q138 0 210 93q74 95 97 225q22 128 22 274t-44.5 280zM589 141q-137 57 -255.5 57t-118.5 -73q0 -62 110 -62q62 0 135.5 21.5t128.5 56.5zM1733 55q-27 -13 -82 -57l-65 51q7 20 199 215.5t206 210.5
q-136 68 -201 68l-10 -2q43 -43 43 -79.5t-31 -57.5t-68.5 -21t-64 22t-26.5 60q0 71 51.5 109t114 38t161.5 -31.5t145.5 -31.5t109.5 22l41 -59q-41 -80 -117 -80q-13 0 -33 10l-291 -311q53 0 140.5 -40t136.5 -42q-33 28 -33 67.5t29 63t63.5 23.5t61 -25.5t26.5 -75
t-42 -84t-111 -34.5q-138 0 -353 71z" />
    <glyph glyph-name="uni020B" unicode="&#x20b;" horiz-adv-x="484" 
d="M112 10q-24 26 -24 71.5t23.5 124t47 142.5t23.5 85.5t-14 21.5q-35 0 -113 -138l-67 39q147 248 270 248q84 0 84 -106q0 -31 -20 -99l-72 -206q-11 -29 -11 -52.5t18 -23.5q34 0 125 126l42 -39q-54 -100 -128.5 -160t-117 -60t-66.5 26zM152 676h-70q10 83 75.5 135
t126.5 52q125 0 125 -113q0 -37 -12 -74h-72q4 16 4 37.5t-14 35t-42 13.5t-66.5 -25t-54.5 -61z" />
    <glyph glyph-name="uni020C" unicode="&#x20c;" 
d="M429.5 613.5q-67.5 83.5 -67.5 202.5t50.5 232.5t132.5 200t194 140t223 53.5t205 -33.5t166.5 -95.5t115.5 -157.5t43 -225.5t-46.5 -272.5t-133 -264t-201.5 -215.5t-262 -147.5t-303 -53.5q-252 0 -389 129.5t-137 368.5q0 263 156 487q79 113 186 186l30 -37
q-88 -106 -139 -265t-51 -288.5t22.5 -216t67.5 -155.5q98 -149 295 -149q281 0 490 300q118 170 167 391q23 105 23 200t-19.5 172.5t-59.5 138.5q-83 129 -259 129q-132 0 -241 -82t-167.5 -208.5t-58.5 -250.5t42 -177.5t109.5 -53.5t137 43.5t118.5 119.5t52 159l96 16
q0 -104 -54.5 -197.5t-147 -150t-205.5 -56.5t-180.5 83.5zM1221 1532h-54q-65 50 -180 168.5t-129 132.5h170q133 -215 193 -301zM960 1532h-54q-65 50 -180 168.5t-129 132.5h170q133 -215 193 -301z" />
    <glyph glyph-name="uni020D" unicode="&#x20d;" horiz-adv-x="775" 
d="M-1 238q0 75 36.5 144.5t94.5 117.5q128 104 261 104t218 -71t85 -177.5t-58.5 -191.5t-154.5 -132.5t-209.5 -47.5t-193 71.5t-79.5 182.5zM326 46q46 0 86.5 30t61.5 78q41 92 41 190t-36 148.5t-102 50.5t-130.5 -86t-64.5 -219q0 -192 144 -192zM621 672h-54
q-65 50 -180 168.5t-129 132.5h170q133 -215 193 -301zM360 672h-54q-65 50 -180 168.5t-129 132.5h170q133 -215 193 -301z" />
    <glyph glyph-name="uni020E" unicode="&#x20e;" 
d="M429.5 613.5q-67.5 83.5 -67.5 202.5t50.5 232.5t132.5 200t194 140t223 53.5t205 -33.5t166.5 -95.5t115.5 -157.5t43 -225.5t-46.5 -272.5t-133 -264t-201.5 -215.5t-262 -147.5t-303 -53.5q-252 0 -389 129.5t-137 368.5q0 263 156 487q79 113 186 186l30 -37
q-88 -106 -139 -265t-51 -288.5t22.5 -216t67.5 -155.5q98 -149 295 -149q281 0 490 300q118 170 167 391q23 105 23 200t-19.5 172.5t-59.5 138.5q-83 129 -259 129q-132 0 -241 -82t-167.5 -208.5t-58.5 -250.5t42 -177.5t109.5 -53.5t137 43.5t118.5 119.5t52 159l96 16
q0 -104 -54.5 -197.5t-147 -150t-205.5 -56.5t-180.5 83.5zM946 1536h-70q10 83 75.5 135t126.5 52q125 0 125 -113q0 -37 -12 -74h-72q4 16 4 37.5t-14 35t-42 13.5t-66.5 -25t-54.5 -61z" />
    <glyph glyph-name="uni020F" unicode="&#x20f;" horiz-adv-x="775" 
d="M-1 238q0 75 36.5 144.5t94.5 117.5q128 104 261 104t218 -71t85 -177.5t-58.5 -191.5t-154.5 -132.5t-209.5 -47.5t-193 71.5t-79.5 182.5zM326 46q46 0 86.5 30t61.5 78q41 92 41 190t-36 148.5t-102 50.5t-130.5 -86t-64.5 -219q0 -192 144 -192zM346 676h-70
q10 83 75.5 135t126.5 52q125 0 125 -113q0 -37 -12 -74h-72q4 16 4 37.5t-14 35t-42 13.5t-66.5 -25t-54.5 -61z" />
    <glyph glyph-name="uni0210" unicode="&#x210;" horiz-adv-x="1831" 
d="M1752 213l63 -31q-30 -78 -75 -126q-80 -85 -181 -85q-93 0 -163 115q-54 89 -90 192.5t-56 153.5q-45 115 -88 115q-96 -292 -284.5 -436.5t-454.5 -144.5q-160 0 -285 70q-63 34 -101 92.5t-38 138.5t41 150t108 113q138 91 311 91q6 265 179 479q175 218 417 300
q126 42 231 42t181 -20.5t141 -60.5t104.5 -109t39.5 -157.5t-33.5 -170t-93.5 -146.5q-112 -122 -285 -209q68 -56 148 -271q29 -76 68 -136t79 -60q39 0 65 34q33 43 52 77zM572 313l-61 -14q-24 47 -45 169l-7 40q-166 0 -295 -78q-43 -27 -71.5 -70t-28.5 -99t31 -102.5
t83 -72.5q102 -53 227 -53q214 0 344 114t202 326q15 44 39.5 120.5t39.5 122t41 114t48 114.5t56.5 104t71.5 102q89 104 196 171q-24 14 -88 25.5t-134 11.5q-119 0 -245.5 -64t-226.5 -166t-165.5 -239t-66.5 -273q220 -31 346 -192l-33 -35q-6 3 -33 21.5t-52.5 32.5
t-61.5 31q-76 36 -166 36q5 -65 29.5 -129.5t25.5 -67.5zM1166 567q179 56 296.5 187t117.5 309q0 61 -24 123.5t-66 97.5q-111 -79 -165 -180q-31 -58 -50 -97.5t-39 -118.5q-25 -97 -45 -196.5t-25 -124.5zM1573 1508h-54q-65 50 -180 168.5t-129 132.5h170
q133 -215 193 -301zM1312 1508h-54q-65 50 -180 168.5t-129 132.5h170q133 -215 193 -301z" />
    <glyph glyph-name="uni0211" unicode="&#x211;" horiz-adv-x="764" 
d="M549 473q-38 0 -90 -48.5t-101 -118.5q-78 -112 -159 -258l-27 -48h-141l31 94q87 260 87 308.5t-16 48.5q-29 0 -69 -69q-9 -16 -15 -25.5t-13.5 -23t-9.5 -16.5l-67 39q78 127 143 187.5t133 60.5q31 0 53.5 -26t22.5 -61.5t-4 -63t-9 -50.5t-14 -55t-14.5 -49
t-14.5 -46t-11 -34q18 36 61 106t56 88t36 48t40.5 46.5t42 38t46.5 32.5q56 26 108 26t83.5 -30.5t31.5 -71t-25.5 -71t-59 -30.5t-52.5 11.5t-26 24.5q-21 36 -37 36zM670 672h-54q-65 50 -180 168.5t-129 132.5h170q133 -215 193 -301zM409 672h-54q-65 50 -180 168.5
t-129 132.5h170q133 -215 193 -301z" />
    <glyph glyph-name="uni0212" unicode="&#x212;" horiz-adv-x="1831" 
d="M1752 213l63 -31q-30 -78 -75 -126q-80 -85 -181 -85q-93 0 -163 115q-54 89 -90 192.5t-56 153.5q-45 115 -88 115q-96 -292 -284.5 -436.5t-454.5 -144.5q-160 0 -285 70q-63 34 -101 92.5t-38 138.5t41 150t108 113q138 91 311 91q6 265 179 479q175 218 417 300
q126 42 231 42t181 -20.5t141 -60.5t104.5 -109t39.5 -157.5t-33.5 -170t-93.5 -146.5q-112 -122 -285 -209q68 -56 148 -271q29 -76 68 -136t79 -60q39 0 65 34q33 43 52 77zM572 313l-61 -14q-24 47 -45 169l-7 40q-166 0 -295 -78q-43 -27 -71.5 -70t-28.5 -99t31 -102.5
t83 -72.5q102 -53 227 -53q214 0 344 114t202 326q15 44 39.5 120.5t39.5 122t41 114t48 114.5t56.5 104t71.5 102q89 104 196 171q-24 14 -88 25.5t-134 11.5q-119 0 -245.5 -64t-226.5 -166t-165.5 -239t-66.5 -273q220 -31 346 -192l-33 -35q-6 3 -33 21.5t-52.5 32.5
t-61.5 31q-76 36 -166 36q5 -65 29.5 -129.5t25.5 -67.5zM1166 567q179 56 296.5 187t117.5 309q0 61 -24 123.5t-66 97.5q-111 -79 -165 -180q-31 -58 -50 -97.5t-39 -118.5q-25 -97 -45 -196.5t-25 -124.5zM1298 1512h-70q10 83 75.5 135t126.5 52q125 0 125 -113
q0 -37 -12 -74h-72q4 16 4 37.5t-14 35t-42 13.5t-66.5 -25t-54.5 -61z" />
    <glyph glyph-name="uni0213" unicode="&#x213;" horiz-adv-x="764" 
d="M549 473q-38 0 -90 -48.5t-101 -118.5q-78 -112 -159 -258l-27 -48h-141l31 94q87 260 87 308.5t-16 48.5q-29 0 -69 -69q-9 -16 -15 -25.5t-13.5 -23t-9.5 -16.5l-67 39q78 127 143 187.5t133 60.5q31 0 53.5 -26t22.5 -61.5t-4 -63t-9 -50.5t-14 -55t-14.5 -49
t-14.5 -46t-11 -34q18 36 61 106t56 88t36 48t40.5 46.5t42 38t46.5 32.5q56 26 108 26t83.5 -30.5t31.5 -71t-25.5 -71t-59 -30.5t-52.5 11.5t-26 24.5q-21 36 -37 36zM395 676h-70q10 83 75.5 135t126.5 52q125 0 125 -113q0 -37 -12 -74h-72q4 16 4 37.5t-14 35t-42 13.5
t-66.5 -25t-54.5 -61z" />
    <glyph glyph-name="uni0214" unicode="&#x214;" horiz-adv-x="1675" 
d="M1429 63q74 0 168 173l53 -31q-53 -112 -123.5 -171t-145 -59t-126 67t-51.5 173t18 223q25 156 63.5 311.5t40.5 162.5l9 36q-13 -31 -43.5 -107t-58 -142.5t-69.5 -158t-81.5 -166t-92 -151.5t-104.5 -129q-117 -119 -237 -119q-86 0 -132 60.5t-46 160t27 232
t59 241.5q86 293 86 486q0 102 -52.5 168t-140 66t-153 -44.5t-107.5 -113.5t-72 -154q-55 -160 -55 -307q0 -273 125 -479l-39 -33q-68 109 -103.5 243.5t-35.5 241t15 195.5t50 180t86 162t131 115.5t162.5 44.5t137.5 -22.5t90.5 -60t59.5 -88.5q44 -93 44 -206
t-24 -230.5t-54 -210.5q-77 -243 -77 -425q0 -119 60.5 -119t136 74t148.5 192t146.5 261t135.5 285q126 289 186 453l28 74h187q-297 -830 -297 -1188q0 -166 67 -166zM1386 1507h-54q-65 50 -180 168.5t-129 132.5h170q133 -215 193 -301zM1125 1507h-54
q-65 50 -180 168.5t-129 132.5h170q133 -215 193 -301z" />
    <glyph glyph-name="uni0215" unicode="&#x215;" horiz-adv-x="896" 
d="M790 582q-134 -357 -134 -433q0 -32 16 -32q44 0 128 128l43 -41q-53 -95 -125.5 -157.5t-117.5 -62.5q-93 0 -93 94q0 73 34 178t34 106q-5 -9 -24 -41.5t-28 -48.5t-29.5 -48.5t-34 -51t-36 -47.5t-40 -46t-41.5 -37.5t-46 -31.5q-50 -26 -98 -26q-119 0 -119 131
q0 60 43 186.5t43 149t-14 22.5q-40 0 -111 -127l-65 39q137 219 264 219q42 0 67 -23.5t23.5 -72t-49 -173t-47.5 -190.5q0 -36 33 -36q38 0 90.5 48.5t101.5 118.5q78 110 162 258l27 48h143zM691 672h-54q-65 50 -180 168.5t-129 132.5h170q133 -215 193 -301zM430 672
h-54q-65 50 -180 168.5t-129 132.5h170q133 -215 193 -301z" />
    <glyph glyph-name="uni0216" unicode="&#x216;" horiz-adv-x="1675" 
d="M1429 63q74 0 168 173l53 -31q-53 -112 -123.5 -171t-145 -59t-126 67t-51.5 173t18 223q25 156 63.5 311.5t40.5 162.5l9 36q-13 -31 -43.5 -107t-58 -142.5t-69.5 -158t-81.5 -166t-92 -151.5t-104.5 -129q-117 -119 -237 -119q-86 0 -132 60.5t-46 160t27 232
t59 241.5q86 293 86 486q0 102 -52.5 168t-140 66t-153 -44.5t-107.5 -113.5t-72 -154q-55 -160 -55 -307q0 -273 125 -479l-39 -33q-68 109 -103.5 243.5t-35.5 241t15 195.5t50 180t86 162t131 115.5t162.5 44.5t137.5 -22.5t90.5 -60t59.5 -88.5q44 -93 44 -206
t-24 -230.5t-54 -210.5q-77 -243 -77 -425q0 -119 60.5 -119t136 74t148.5 192t146.5 261t135.5 285q126 289 186 453l28 74h187q-297 -830 -297 -1188q0 -166 67 -166zM1111 1511h-70q10 83 75.5 135t126.5 52q125 0 125 -113q0 -37 -12 -74h-72q4 16 4 37.5t-14 35
t-42 13.5t-66.5 -25t-54.5 -61z" />
    <glyph glyph-name="uni0217" unicode="&#x217;" horiz-adv-x="896" 
d="M790 582q-134 -357 -134 -433q0 -32 16 -32q44 0 128 128l43 -41q-53 -95 -125.5 -157.5t-117.5 -62.5q-93 0 -93 94q0 73 34 178t34 106q-5 -9 -24 -41.5t-28 -48.5t-29.5 -48.5t-34 -51t-36 -47.5t-40 -46t-41.5 -37.5t-46 -31.5q-50 -26 -98 -26q-119 0 -119 131
q0 60 43 186.5t43 149t-14 22.5q-40 0 -111 -127l-65 39q137 219 264 219q42 0 67 -23.5t23.5 -72t-49 -173t-47.5 -190.5q0 -36 33 -36q38 0 90.5 48.5t101.5 118.5q78 110 162 258l27 48h143zM416 676h-70q10 83 75.5 135t126.5 52q125 0 125 -113q0 -37 -12 -74h-72
q4 16 4 37.5t-14 35t-42 13.5t-66.5 -25t-54.5 -61z" />
    <glyph glyph-name="dotlessj" unicode="&#x237;" horiz-adv-x="423" 
d="M-137 -75q64 0 64 -55q0 -29 -10 -43q80 8 127 131q27 70 46.5 143t51 170t46.5 151q0 33 -14 33q-35 0 -113 -138l-67 39q147 248 270 248q94 0 94 -96q0 -51 -17 -108.5t-35 -121.5t-29 -103t-27 -90t-28 -81t-30 -67.5t-35.5 -58.5t-42 -44t-51.5 -34
q-64 -26 -133 -26t-101.5 25.5t-32.5 56.5t18.5 50t48.5 19z" />
    <glyph glyph-name="circumflex" unicode="&#x2c6;" horiz-adv-x="758" 
d="M422 972h53l200 -301h-170l-64 261l-175 -261h-170z" />
    <glyph glyph-name="caron" unicode="&#x2c7;" horiz-adv-x="758" 
d="M420 672h-53l-200 301h170l64 -261l175 261h170z" />
    <glyph glyph-name="breve" unicode="&#x2d8;" horiz-adv-x="537" 
d="M398 865h70q-10 -83 -75.5 -135t-126.5 -52q-125 0 -125 113q0 37 12 74h72q-4 -16 -4 -37.5t14 -35t42 -13.5t66.5 25t54.5 61z" />
    <glyph glyph-name="dotaccent" unicode="&#x2d9;" horiz-adv-x="537" 
d="M370 949q29 -28 29 -84t-37 -91t-81.5 -35t-74.5 28.5t-30 84t37.5 90.5t82.5 35t74 -28z" />
    <glyph glyph-name="ring" unicode="&#x2da;" horiz-adv-x="537" 
d="M362 774q37 35 37 91t-29 84t-74 28t-82.5 -35t-37.5 -90.5t30 -84t74.5 -28.5t81.5 35zM421 994.5q48 -43.5 48 -130.5t-57 -137.5t-131 -50.5t-125.5 44.5t-51.5 128.5t60 136.5t134.5 52.5t122.5 -43.5z" />
    <glyph glyph-name="ogonek" unicode="&#x2db;" horiz-adv-x="1305" 
d="M708 -326l9 -24q-46 -29 -113 -29q-141 0 -141 91q0 104 213 287h66q-68 -68 -119 -158.5t-51 -136.5q0 -41 61 -41q29 0 75 11z" />
    <glyph glyph-name="tilde" unicode="&#x2dc;" horiz-adv-x="1707" 
d="M887 727.5q-91 34.5 -138.5 34.5t-87.5 -35l-10 11q19 52 67.5 90t101.5 38t149.5 -36t134 -36t64 18.5t33.5 19.5l10 -10q-8 -47 -72 -88t-112.5 -41t-139.5 34.5z" />
    <glyph glyph-name="hungarumlaut" unicode="&#x2dd;" horiz-adv-x="492" 
d="M148 672h-54q41 57 158 245l35 56h170q-14 -14 -79 -81q-165 -170 -230 -220zM409 672h-54q41 57 158 245l35 56h170q-14 -14 -79 -81q-165 -170 -230 -220z" />
    <glyph glyph-name="dotaccentcmb" unicode="&#x307;" horiz-adv-x="537" 
d="M370 949q29 -28 29 -84t-37 -91t-81.5 -35t-74.5 28.5t-30 84t37.5 90.5t82.5 35t74 -28z" />
    <glyph glyph-name="uni030F" unicode="&#x30f;" horiz-adv-x="492" 
d="M457 672h-54q-65 50 -180 168.5t-129 132.5h170q133 -215 193 -301zM196 672h-54q-65 50 -180 168.5t-129 132.5h170q133 -215 193 -301z" />
    <glyph glyph-name="uni0311" unicode="&#x311;" horiz-adv-x="537" 
d="M196 676h-70q10 83 75.5 135t126.5 52q125 0 125 -113q0 -37 -12 -74h-72q4 16 4 37.5t-14 35t-42 13.5t-66.5 -25t-54.5 -61z" />
    <glyph glyph-name="uni0326" unicode="&#x326;" horiz-adv-x="370" 
d="M77 -449h-32q55 229 69 321l170 55q0 -47 -79 -185t-128 -191z" />
    <glyph glyph-name="Pi" unicode="&#x3a0;" horiz-adv-x="1842" 
d="M46 120q-63 71 -63 152t27 139.5t71.5 97.5t104.5 66q109 50 249 52q9 165 71.5 313t165.5 259.5t252 177t326 65.5t291 -86t114 -212.5t-80 -268t-208.5 -244.5t-258.5 -121q-80 -261 -250.5 -397t-429.5 -136q-254 0 -382 143zM91.5 384q-39.5 -52 -39.5 -113
t36.5 -106.5t93.5 -71.5q118 -54 219.5 -54t168.5 22.5t115.5 58.5t90.5 92.5t69 111.5t54.5 130.5t44.5 134.5q47 171 78 263q113 338 315 467q-89 33 -198 33t-231.5 -62.5t-209 -164t-138 -234t-51.5 -268.5q139 -21 279 -115l-43 -66q-140 80 -234 80q0 -22 16 -90
t37 -125l-59 -18q-24 38 -41.5 114.5t-22.5 118.5q-124 0 -249 -58q-61 -28 -100.5 -80zM1411 1282q-113 -112 -186 -300t-103 -413q89 36 181.5 121t157 195.5t64.5 204.5q0 126 -114 192zM1470 10q-24 26 -24 71.5t23.5 124t47 142.5t23.5 85.5t-14 21.5q-35 0 -113 -138
l-67 39q147 248 270 248q84 0 84 -106q0 -31 -20 -99l-72 -206q-11 -29 -11 -52.5t18 -23.5q34 0 125 126l42 -39q-54 -100 -128.5 -160t-117 -60t-66.5 26zM1806 776q-27 -33 -73 -33t-69 27.5t-23 69.5t28.5 74.5t73.5 32.5t67.5 -28.5t22.5 -69t-27 -73.5z" />
    <glyph glyph-name="endash" unicode="&#x2013;" horiz-adv-x="892" 
d="M856 332q-308 -32 -379 -32q-117 0 -360 24l-81 8l1 41q319 34 387 34q107 0 350 -25l81 -9z" />
    <glyph glyph-name="emdash" unicode="&#x2014;" horiz-adv-x="1104" 
d="M1056 332q-408 -32 -479 -32q-117 0 -435 24l-106 8l1 41q419 34 487 34q107 0 425 -25l106 -9z" />
    <glyph glyph-name="quoteleft" unicode="&#x2018;" horiz-adv-x="381" 
d="M252 1319h32q-53 -224 -64 -293q36 -14 57.5 -42.5t21.5 -62.5t-32.5 -58.5t-90.5 -24.5t-94.5 27t-36.5 76t79 187t128 191z" />
    <glyph glyph-name="quoteright" unicode="&#x2019;" horiz-adv-x="381" 
d="M92 838h-32q53 224 64 293q-36 14 -57.5 42.5t-21.5 62.5t32.5 58.5t90.5 24.5t94.5 -27t36.5 -76t-79 -187t-128 -191z" />
    <glyph glyph-name="quotesinglbase" unicode="&#x201a;" horiz-adv-x="370" 
d="M92 -293h-32q53 224 64 293q-36 14 -57.5 42.5t-21.5 62.5t32.5 58.5t90.5 24.5t94.5 -27t36.5 -76t-79 -187t-128 -191z" />
    <glyph glyph-name="quotedblleft" unicode="&#x201c;" horiz-adv-x="698" 
d="M580 1319h32q-53 -224 -64 -293q36 -14 57.5 -42.5t21.5 -62.5t-32.5 -58.5t-90.5 -24.5t-94.5 27t-36.5 76t79 187t128 191zM252 1319h32q-53 -224 -64 -293q36 -14 57.5 -42.5t21.5 -62.5t-32.5 -58.5t-90.5 -24.5t-94.5 27t-36.5 76t79 187t128 191z" />
    <glyph glyph-name="quotedblright" unicode="&#x201d;" horiz-adv-x="707" 
d="M92 838h-32q53 224 64 293q-36 14 -57.5 42.5t-21.5 62.5t32.5 58.5t90.5 24.5t94.5 -27t36.5 -76t-79 -187t-128 -191zM450 838h-32q53 224 64 293q-36 14 -57.5 42.5t-21.5 62.5t32.5 58.5t90.5 24.5t94.5 -27t36.5 -76t-79 -187t-128 -191z" />
    <glyph glyph-name="quotedblbase" unicode="&#x201e;" horiz-adv-x="707" 
d="M92 -293h-32q53 224 64 293q-36 14 -57.5 42.5t-21.5 62.5t32.5 58.5t90.5 24.5t94.5 -27t36.5 -76t-79 -187t-128 -191zM450 -293h-32q53 224 64 293q-36 14 -57.5 42.5t-21.5 62.5t32.5 58.5t90.5 24.5t94.5 -27t36.5 -76t-79 -187t-128 -191z" />
    <glyph glyph-name="bullet" unicode="&#x2022;" horiz-adv-x="397" 
d="M304.5 692.5q38.5 -35.5 38.5 -108t-49 -117t-110 -44.5t-102 37t-41 108t51 115.5t112.5 44.5t100 -35.5z" />
    <glyph glyph-name="ellipsis" unicode="&#x2026;" horiz-adv-x="1191" 
d="M255 156.5q26 -23.5 26 -72t-32.5 -78t-73.5 -29.5t-68 25t-27 72t34 76.5t74.5 29.5t66.5 -23.5zM652 156.5q26 -23.5 26 -72t-32.5 -78t-73.5 -29.5t-68 25t-27 72t34 76.5t74.5 29.5t66.5 -23.5zM1049 156.5q26 -23.5 26 -72t-32.5 -78t-73.5 -29.5t-68 25t-27 72
t34 76.5t74.5 29.5t66.5 -23.5z" />
    <glyph glyph-name="guilsinglleft" unicode="&#x2039;" horiz-adv-x="667" 
d="M412 68l-89 -70q-268 330 -268 344q99 95 208 185.5t174 130.5l63 -84q-196 -135 -313 -236q30 -22 225 -270z" />
    <glyph glyph-name="guilsinglright" unicode="&#x203a;" horiz-adv-x="599" 
d="M98 -7l-77 75q257 250 294 268h-2q-104 112 -256 238l67 79q60 -43 144 -125t138 -142l53 -61q0 -2 -25 -24q-108 -93 -336 -308z" />
    <glyph glyph-name="fraction" unicode="&#x2044;" horiz-adv-x="1096" 
d="M-82 -283l1228 2055l46 -35l-1227 -2052z" />
    <glyph glyph-name="foursuperior" unicode="&#x2074;" horiz-adv-x="780" 
d="M470 233l-35 -152q4 -20 37 -32.5t68 -14.5l-3 -34h-363l3 34q13 0 47 9q53 14 67 32l37 158h-271l-12 44l488 440h48l-98 -434h64q22 0 48.5 37t36.5 73h27l-56 -279h-27q0 31 -8 73.5t-27 45.5h-71zM403 537l-268 -254h206z" />
    <glyph glyph-name="Euro" unicode="&#x20ac;" horiz-adv-x="1378" 
d="M72 417l-15 66h570l-15 -66h-540zM42 552l-16 66h631l-16 -66h-599zM1198 301l48 -45q-227 -295 -547 -295q-209 0 -353 135q-70 65 -110.5 166t-40.5 231t49 270.5t136 260.5t199 214.5t247 149t284 54.5t258 -95t109 -266q0 -101 -46.5 -212.5t-120 -202t-173.5 -149.5
t-199 -59t-157 64t-58 149q0 146 121.5 282.5t312.5 201.5l23 -53q-96 -32 -181 -107t-132.5 -160.5t-47.5 -148.5q0 -131 146 -131q102 0 204.5 90t164 211.5t61.5 234t-76 184t-202 71.5t-259 -76t-235.5 -195t-168 -273.5t-65.5 -303.5q0 -241 161 -354q94 -66 213.5 -66
t235.5 58.5t199 164.5z" />
    <glyph glyph-name="trademark" unicode="&#x2122;" horiz-adv-x="1696" 
d="M1499 664h-146q35 82 72.5 199t37.5 164.5t-35 47.5q-81 0 -244 -278q-44 -75 -73 -134h-148l19 66q7 33 26 96q38 131 38 211q0 39 -32.5 39t-76.5 -42.5t-84.5 -103t-76.5 -121t-58.5 -103t-23.5 -42.5h-141q6 23 32.5 114.5t44.5 153.5q49 175 51 253h151
q-19 -105 -55.5 -226.5t-40.5 -136.5q23 47 40 76t37.5 65t32.5 52.5t33.5 48t37.5 47t39 37.5t42 33q50 26 104 26t84 -32.5t30 -76t-13.5 -90.5t-37.5 -109.5t-31 -84.5q89 162 135 227q120 166 237 166q67 0 96 -32t29 -77.5t-27 -132.5t-63 -183t-42 -117zM249 663h-131
q13 42 44 139q77 235 98 316h-207l16 66h556l-16 -66h-189q-80 -256 -171 -455z" />
    <glyph glyph-name="commaaccent" unicode="&#xf6c3;" horiz-adv-x="370" 
d="M77 -449h-32q55 229 69 321l170 55q0 -47 -79 -185t-128 -191z" />
    <glyph glyph-name="ff" unicode="&#xfb00;" horiz-adv-x="998" 
d="M-10 516l16 66h187q103 413 219 590q104 162 228 212q70 29 151 29q127 0 190 -82q105 82 240 82q115 0 167 -57q32 -35 32 -85.5t-32 -77t-74 -26.5t-71.5 24.5t-29.5 63t26 76.5q-47 17 -75.5 17t-67.5 -27.5t-69 -73.5q-112 -172 -228 -665h240l-17 -66h-237
q-63 -272 -92 -359q-71 -220 -182 -293q-68 -46 -137 -46t-92.5 21.5t-23.5 51.5t20 52t51 22t51 -13.5t20 -29.5q0 -34 -15 -55q58 8 97 101q43 102 61.5 191t27.5 136t21 120t17 101h-254q-63 -271 -92 -359q-71 -220 -182 -293q-69 -46 -161 -46q-45 0 -68.5 21.5
t-23.5 51.5t20 52t51 22t51 -13.5t20 -36.5t-15 -48q45 6 79 65q37 68 53.5 129t26.5 102t20 94.5t16.5 92t15 89t13.5 77.5h-189zM623 582q61 251 135 428.5t176 279.5q-50 56 -111.5 56t-111.5 -25.5t-87.5 -65t-71.5 -102t-57.5 -122t-46.5 -139.5q-43 -146 -60 -224.5
t-19 -85.5h254z" />
    <glyph glyph-name="fi" unicode="&#xfb01;" horiz-adv-x="952" 
d="M905 826q-27 -33 -73 -33t-69 27.5t-23 69.5t28.5 74.5t73.5 32.5t67.5 -28.5t22.5 -69t-27 -73.5zM660 516h-305l-25 -102q-67 -275 -104 -376q-80 -221 -203 -288q-63 -35 -127 -35q-109 0 -109 74q0 30 20 52t51 22t51 -14t20 -35.5t-15 -49.5q108 17 186 390
q12 60 28.5 141t25.5 119l24 102h-188l16 66h187q75 305 146 453.5t131 220.5q134 157 321 157q83 0 140.5 -34t57.5 -113q0 -46 -31.5 -72.5t-73.5 -26.5t-71.5 24.5t-29.5 63t26 76.5q-47 17 -75.5 17t-67.5 -27.5t-69 -73.5q-112 -172 -228 -665h352q84 0 84 -96
q0 -47 -20 -107l-71 -201q-8 -20 -8 -40t22 -20t61 48l61 76l42 -38q-54 -101 -128.5 -160.5t-118 -59.5t-66.5 27t-23 75.5t29.5 141t59 168t29.5 98t-14 22.5z" />
    <glyph glyph-name="fl" unicode="&#xfb02;" horiz-adv-x="1001" 
d="M743 1348q-52 0 -103 -51q-148 -150 -271 -715h239l-16 -66h-238l-24 -102q-67 -283 -111 -398q-85 -219 -218 -277q-55 -24 -111.5 -24t-79.5 21.5t-23 52t20 52.5t50.5 22t50.5 -14t20 -36.5t-14 -48.5q103 16 185 390q13 59 29.5 140.5t25.5 119.5l24 102h-188l16 66
h186q85 339 176 518q158 313 402 313q132 0 189 -57.5t57 -154.5t-37.5 -243.5t-83.5 -278.5q-124 -356 -133 -499q0 -55 16 -55q31 0 119 127q10 15 10 16l43 -37q-66 -126 -137.5 -186.5t-118.5 -60.5q-92 0 -92 145q0 179 134 565t134 520t-127 134z" />
    <glyph glyph-name="ffi" unicode="&#xfb03;" horiz-adv-x="1292" 
d="M623 582q126 525 311 708q-50 56 -116.5 56t-123 -33t-98.5 -91.5t-76 -129.5t-60 -158q-58 -188 -73 -264q-16 -80 -18 -88h254zM1269.5 825.5q-26.5 -32.5 -73 -32.5t-69.5 27.5t-23 69t29 74.5t73.5 33t67 -28.5t22.5 -69.5t-26.5 -73.5zM799 582h307q72 0 72 -76
q0 -45 -29 -127l-66 -186q-14 -39 -14 -53.5t1 -19.5q1 -11 22 -11t45 32l53 70l41 -35q-54 -100 -119.5 -150.5t-107.5 -50.5t-62 28.5t-20 75.5t29 141.5t58 172.5t29 100.5t-14 22.5h-240q-63 -270 -90 -355q-71 -221 -181 -296q-69 -47 -163 -47q-45 0 -68.5 21.5
t-23.5 51.5t20 52t51 22t50.5 -13.5t19.5 -37.5t-14 -47q57 8 97 101q42 102 60.5 191t27.5 136t21 120t17 101h-254q-63 -270 -90 -355q-71 -221 -181 -296q-69 -47 -163 -47q-45 0 -68.5 21.5t-23.5 51.5t20 52t50.5 22t50.5 -13.5t20 -37.5t-14 -47q57 8 97 101
q42 102 60.5 191t27.5 136t21 120t17 101h-188l16 66h186q75 304 146.5 453t131.5 221q134 157 320 157q128 0 191 -82q105 82 240 82q83 0 140.5 -34t57.5 -113q0 -46 -31.5 -72.5t-73.5 -26.5t-72 24.5t-30 62.5t27 77q-49 17 -76.5 17t-66.5 -27.5t-69 -73.5
q-112 -172 -228 -665z" />
    <glyph glyph-name="ffl" unicode="&#xfb04;" horiz-adv-x="1434" 
d="M1174 1348q-104 0 -198 -190q-21 -42 -36 -85q-80 -218 -141 -491h239l-16 -66h-238q-63 -270 -90 -355q-71 -221 -181 -296q-69 -47 -163 -47q-45 0 -68.5 21.5t-23.5 51.5t20 52t51 22t50.5 -13.5t19.5 -37.5t-14 -47q57 8 97 101q42 102 60.5 191t27.5 136t21 120
t17 101h-254q-63 -270 -90 -355q-71 -221 -181 -296q-69 -47 -163 -47q-45 0 -68.5 21.5t-23.5 51.5t20 52t51 22t50.5 -13.5t19.5 -37.5t-14 -47q57 8 97 101q42 102 60.5 191t27.5 136t21 120t17 101h-188l16 66h187q75 305 146 453.5t131 220.5q134 157 321 157
q123 0 186 -78q100 78 227 78q242 0 242 -221q0 -166 -121 -513q-124 -356 -133 -499q0 -55 16 -55q31 0 119 127q10 15 10 16l43 -37q-67 -126 -137.5 -186.5t-118.5 -60.5q-92 0 -92 145q0 181 134.5 565t134.5 519t-127 135zM369 582h254q61 251 134 430t173 280
q-48 54 -113.5 54t-122 -33t-98.5 -91.5t-76 -129.5t-60 -158q-58 -188 -73 -264q-16 -80 -18 -88z" />
    <glyph glyph-name="st" unicode="&#xfb06;" horiz-adv-x="1106" 
d="M881 862q0 228 -203 228q-70 0 -140.5 -37.5t-118.5 -106.5t-48 -140q0 -146 131 -222q74 -43 74 -90t-23.5 -72t-59 -25t-60.5 19t-25 53.5t39 69.5q-25 16 -80 16t-104.5 -24t-49.5 -54.5t34.5 -50.5t83.5 -37t98 -39t83.5 -63t34.5 -102.5t-49 -112.5
q-93 -95 -254 -95q-87 0 -151 23q-121 44 -121 135q0 34 20.5 59t55 25t61 -20.5t26.5 -57t-41 -57.5q50 -31 129 -31q152 0 152 88q0 60 -107 96q-44 15 -88.5 32t-77.5 50t-36 80q0 68 45 115q85 90 254 90h22q-92 69 -92 178t65 198t161.5 136t197.5 47
q158 0 233.5 -93.5t75.5 -227.5t-49 -260h148l-17 -66h-151q-82 -284 -82 -345.5t12.5 -61.5t22.5 5q31 19 116 146l41 -37q-66 -126 -137.5 -187t-117.5 -61t-69.5 34t-23.5 89q0 131 76 418h-113l17 66h116q64 159 64 280z" />
    </font>
</defs>
</svg>
