<?xml version="1.0" encoding="iso-8859-1"?>
<!-- Generator: Adobe Illustrator 22.1.0, SVG Export Plug-In . SVG Version: 6.00 Build 0)  -->
<svg version="1.1" id="Layer_1" xmlns="http://www.w3.org/2000/svg" xmlns:xlink="http://www.w3.org/1999/xlink" x="0px" y="0px"
	 viewBox="0 0 50 50" style="enable-background:new 0 0 50 50;" xml:space="preserve">
<g id="Layer_1_1_">
	<path d="M24,1H1v44h23h2h23V1H26H24z M24,43H3V3h21V43z M47,3v40H26V3H47z" fill="#ff465b"/>
	<rect x="1" y="47" width="48" height="2" fill="#ff465b"/>
	<rect x="7" y="7" width="13" height="2" fill="#ff465b"/>
	<rect x="7" y="13" width="13" height="2" fill="#ff465b"/>
	<rect x="7" y="19" width="13" height="2" fill="#ff465b"/>
	<rect x="7" y="25" width="13" height="2" fill="#ff465b"/>
	<rect x="7" y="31" width="13" height="2" fill="#ff465b"/>
	<rect x="7" y="37" width="13" height="2" fill="#ff465b"/>
	<rect x="30" y="7" width="13" height="2" fill="#ff465b"/>
	<rect x="30" y="13" width="13" height="2" fill="#ff465b"/>
	<rect x="30" y="19" width="13" height="2" fill="#ff465b"/>
	<rect x="30" y="25" width="13" height="2" fill="#ff465b"/>
	<rect x="30" y="31" width="13" height="2" fill="#ff465b"/>
	<rect x="30" y="37" width="13" height="2" fill="#ff465b"/>
</g>
</svg>
