<!DOCTYPE svg PUBLIC "-//W3C//DTD SVG 1.1//EN" "http://www.w3.org/Graphics/SVG/1.1/DTD/svg11.dtd">
<svg width="200px" height="200px" viewBox="0 0 24 24" fill="none" xmlns="http://www.w3.org/2000/svg" stroke="#000000" stroke-width="0">
<g id="SVGRepo_bgCarrier" stroke-width="0"/>
<g id="SVGRepo_iconCarrier"> <path d="M20 12.2565C20 15.7437 19.4904 21.077 19.4904 21.2821C19.4904 21.4872 19.2866 21.7949 19.0828 21.8975C18.9809 22.0001 18.879 22.0001 18.6752 22.0001C18.5732 22.0001 18.4713 22.0001 18.2675 21.8975L12.051 18.6154C11.949 18.6154 11.8471 18.6154 11.8471 18.6154L5.63057 21.8975C5.42675 22.0001 5.12102 22.0001 4.9172 21.8975C4.71338 21.7949 4.50955 21.5898 4.50955 21.2821C4.50955 21.077 4 15.7437 4 12.2565C4.10191 10.0001 4.30573 7.0257 4.50955 4.87186C4.61146 3.53852 5.63057 2.51288 6.95541 2.30775C8.38217 2.20519 10.4204 2.00006 12.051 2.00006C13.6815 2.00006 15.7197 2.20519 17.1465 2.30775C18.4713 2.41032 19.4904 3.53852 19.5924 4.87186C19.7962 7.0257 20 10.0001 20 12.2565Z" fill="#e6e6e6"/> </g>
</svg>